<?xml version="1.0" encoding="UTF-8"?>
<svg width="20px" height="16px" viewBox="0 0 20 16" version="1.1" xmlns="http://www.w3.org/2000/svg" xmlns:xlink="http://www.w3.org/1999/xlink">
    <!-- Generator: Sketch 64 (93537) - https://sketch.com -->
    <title>envelope</title>
    <desc>Created with Sketch.</desc>
    <g id="Illustrations" stroke="none" stroke-width="1" fill="none" fill-rule="evenodd">
        <g id="Artboard" transform="translate(-781.000000, -647.000000)">
            <g id="envelope" transform="translate(781.000000, 647.000000)">
                <path d="M17,-8.8817842e-16 L3,-8.8817842e-16 C1.34314575,-8.8817842e-16 -4.4408921e-16,1.34314575 -4.4408921e-16,3 L-4.4408921e-16,13 C-4.4408921e-16,14.6568542 1.34314575,16 3,16 L17,16 C18.6568542,16 20,14.6568542 20,13 L20,3 C20,1.34314575 18.6568542,-8.8817842e-16 17,-8.8817842e-16 Z" id="Shape" fill="#334AC0" fill-rule="nonzero"></path>
                <path d="M16.59,2 L10.71,7.88 C10.5222334,8.06931265 10.2666375,8.17579832 10,8.17579832 C9.73336246,8.17579832 9.4777666,8.06931265 9.29,7.88 L3.41,2 L16.59,2 Z" id="Path" fill="#A6B1E7"></path>
                <path d="M18,13 C18,13.5522847 17.5522847,14 17,14 L3,14 C2.44771525,14 2,13.5522847 2,13 L2,3.41 L7.88,9.29 C9.05127019,10.4598135 10.9487298,10.4598135 12.12,9.29 L18,3.41 L18,13 Z" id="Path" fill="#A6B1E7"></path>
            </g>
        </g>
    </g>
</svg>