<?xml version="1.0" encoding="UTF-8"?>
<svg width="44px" height="44px" viewBox="0 0 44 44" version="1.1" xmlns="http://www.w3.org/2000/svg" xmlns:xlink="http://www.w3.org/1999/xlink">
    <!-- Generator: Sketch 64 (93537) - https://sketch.com -->
    <title>icon-youtube</title>
    <desc>Created with Sketch.</desc>
    <g id="icon-youtube" stroke="none" stroke-width="1" fill="none" fill-rule="evenodd">
        <g id="youtube" transform="translate(6.000000, 10.000000)" fill="#FFFFFF" fill-rule="nonzero">
            <path d="M31.68,5.4016 C31.68,5.4016 31.368,3.1968 30.408,2.2256 C29.192,0.9504 27.8272,0.944 27.2016,0.8704 C22.7232,0.5472 16.0064,0.5472 16.0064,0.5472 L15.992,0.5472 C15.992,0.5472 9.2752,0.5472 4.7968,0.8704 C4.1728,0.9456 2.8096,0.952 1.592,2.2256 C0.632,3.1968 0.32,5.4016 0.32,5.4016 C0.32,5.4016 0,7.992 0,10.5808 L0,13.008 C0,15.5968 0.32,18.1872 0.32,18.1872 C0.32,18.1872 0.632,20.392 1.592,21.3632 C2.8096,22.6384 4.408,22.5968 5.12,22.7312 C7.68,22.976 16,23.0528 16,23.0528 C16,23.0528 22.7248,23.0432 27.2016,22.7184 C27.8272,22.6432 29.1904,22.6368 30.408,21.3632 C31.368,20.392 31.68,18.1872 31.68,18.1872 C31.68,18.1872 32,15.5984 32,13.008 L32,10.5808 C32,7.992 31.68,5.4016 31.68,5.4016 Z M12.696,15.9504 L12.6944,6.9584 L21.3408,11.4704 L12.696,15.9504 Z" id="Shape"></path>
        </g>
    </g>
</svg>