<?xml version="1.0" encoding="UTF-8"?>
<svg width="44px" height="44px" viewBox="0 0 44 44" version="1.1" xmlns="http://www.w3.org/2000/svg" xmlns:xlink="http://www.w3.org/1999/xlink">
    <!-- Generator: Sketch 64 (93537) - https://sketch.com -->
    <title>icon-instagram</title>
    <desc>Created with Sketch.</desc>
    <g id="icon-instagram" stroke="none" stroke-width="1" fill="none" fill-rule="evenodd">
        <g id="instagram" transform="translate(6.000000, 6.000000)" fill="#FFFFFF" fill-rule="nonzero">
            <path d="M16,2.88355556 C20.272,2.88355556 20.7786667,2.89955556 22.4657778,2.976 C24.0248889,3.04711111 24.8728889,3.30844444 25.4364444,3.52711111 C26.1831111,3.81688889 26.7164444,4.16355556 27.2764444,4.72355556 C27.8364444,5.28355556 28.1831111,5.81688889 28.4728889,6.56355556 C28.6915556,7.12711111 28.9528889,7.97511111 29.024,9.53422222 C29.1004444,11.2213333 29.1164444,11.728 29.1164444,16 C29.1164444,20.272 29.1004444,20.7786667 29.024,22.4657778 C28.9528889,24.0248889 28.6915556,24.8728889 28.4728889,25.4364444 C28.1831111,26.1831111 27.8364444,26.7164444 27.2764444,27.2764444 C26.7164444,27.8364444 26.1831111,28.1831111 25.4364444,28.4728889 C24.8728889,28.6915556 24.0248889,28.9528889 22.4657778,29.024 C20.7786667,29.1004444 20.2737778,29.1164444 16,29.1164444 C11.7262222,29.1164444 11.2213333,29.1004444 9.53422222,29.024 C7.97511111,28.9528889 7.12711111,28.6915556 6.56355556,28.4728889 C5.81688889,28.1831111 5.28355556,27.8364444 4.72355556,27.2764444 C4.16355556,26.7164444 3.81688889,26.1831111 3.52711111,25.4364444 C3.30844444,24.8728889 3.04711111,24.0248889 2.976,22.4657778 C2.89955556,20.7786667 2.88355556,20.272 2.88355556,16 C2.88355556,11.728 2.89955556,11.2213333 2.976,9.53422222 C3.04711111,7.97511111 3.30844444,7.12711111 3.52711111,6.56355556 C3.81688889,5.81688889 4.16355556,5.28355556 4.72355556,4.72355556 C5.28355556,4.16355556 5.81688889,3.81688889 6.56355556,3.52711111 C7.12711111,3.30844444 7.97511111,3.04711111 9.53422222,2.976 C11.2213333,2.89955556 11.728,2.88355556 16,2.88355556 M16,0 C11.6551111,0 11.1093333,0.0177777778 9.40266667,0.096 C7.69955556,0.174222222 6.53688889,0.444444444 5.52,0.839111111 C4.46755556,1.248 3.57511111,1.79555556 2.68622222,2.68622222 C1.79733333,3.57511111 1.24977778,4.46755556 0.840888889,5.52 C0.444444444,6.53688889 0.174222222,7.69955556 0.096,9.40266667 C0.0177777778,11.1093333 0,11.6551111 0,16 C0,20.3448889 0.0177777778,20.8906667 0.096,22.5973333 C0.174222222,24.3004444 0.444444444,25.4631111 0.839111111,26.4817778 C1.248,27.5342222 1.79555556,28.4266667 2.68444444,29.3155556 C3.57333333,30.2044444 4.46577778,30.752 5.51822222,31.1608889 C6.53511111,31.5555556 7.69955556,31.8275556 9.40266667,31.904 C11.1093333,31.9822222 11.6551111,32 16,32 C20.3448889,32 20.8906667,31.9822222 22.5973333,31.904 C24.3004444,31.8257778 25.4631111,31.5555556 26.4817778,31.1608889 C27.5342222,30.752 28.4266667,30.2044444 29.3155556,29.3155556 C30.2044444,28.4266667 30.752,27.5342222 31.1608889,26.4817778 C31.5555556,25.4648889 31.8275556,24.3004444 31.904,22.5973333 C31.9822222,20.8906667 32,20.3448889 32,16 C32,11.6551111 31.9822222,11.1093333 31.904,9.40266667 C31.8257778,7.69955556 31.5555556,6.53688889 31.1608889,5.51822222 C30.752,4.46577778 30.2044444,3.57333333 29.3155556,2.68444444 C28.4266667,1.79555556 27.5342222,1.248 26.4817778,0.839111111 C25.4648889,0.444444444 24.3004444,0.172444444 22.5973333,0.096 C20.8906667,0.0177777778 20.3448889,0 16,0 L16,0 Z M16,7.78311111 C11.4631111,7.78311111 7.78311111,11.4613333 7.78311111,16 C7.78311111,20.5386667 11.4631111,24.2168889 16,24.2168889 C20.5368889,24.2168889 24.2168889,20.5386667 24.2168889,16 C24.2168889,11.4613333 20.5368889,7.78311111 16,7.78311111 Z M16,21.3333333 C13.0542222,21.3333333 10.6666667,18.9457778 10.6666667,16 C10.6666667,13.0542222 13.0542222,10.6666667 16,10.6666667 C18.9457778,10.6666667 21.3333333,13.0542222 21.3333333,16 C21.3333333,18.9457778 18.9457778,21.3333333 16,21.3333333 Z M24.5404444,5.53955556 C23.4808889,5.53955556 22.6204444,6.4 22.6204444,7.45955556 C22.6204444,8.51911111 23.4808889,9.37955556 24.5404444,9.37955556 C25.6,9.37955556 26.4604444,8.51911111 26.4604444,7.45955556 C26.4604444,6.4 25.6017778,5.53955556 24.5404444,5.53955556 Z" id="Shape"></path>
        </g>
    </g>
</svg>