<?xml version="1.0" encoding="UTF-8"?>
<svg width="44px" height="44px" viewBox="0 0 44 44" version="1.1" xmlns="http://www.w3.org/2000/svg" xmlns:xlink="http://www.w3.org/1999/xlink">
    <!-- Generator: Sketch 64 (93537) - https://sketch.com -->
    <title>icon-twitter</title>
    <desc>Created with Sketch.</desc>
    <g id="icon-twitter" stroke="none" stroke-width="1" fill="none" fill-rule="evenodd">
        <g id="facebook" transform="translate(6.000000, 9.000000)" fill="#FFFFFF" fill-rule="nonzero">
            <path d="M31.617094,3.00698413 C30.4668132,3.51648352 29.2305739,3.86188034 27.9333822,4.01660562 C29.2571429,3.22266178 30.2745788,1.96610501 30.7528205,0.468864469 C29.5134554,1.2034188 28.1412454,1.7379243 26.6799512,2.02549451 C25.5124786,0.778315018 23.844884,0 22.0006838,0 C18.4591941,0 15.5881807,2.87101343 15.5881807,6.41250305 C15.5881807,6.91575092 15.6444444,7.40493284 15.7538462,7.87379731 C10.42442,7.60654457 5.69982906,5.05435897 2.53655678,1.17372405 C1.98485958,2.12083028 1.66759463,3.22266178 1.66759463,4.39794872 C1.66759463,6.62349206 2.79912088,8.58490842 4.51985348,9.73518926 C3.46803419,9.70236874 2.48029304,9.41323565 1.61445665,8.93343101 C1.61445665,8.96 1.61445665,8.98656899 1.61445665,9.01470085 C1.61445665,12.1217094 3.82437118,14.7145299 6.75946276,15.3021734 C6.2218315,15.4490842 5.65450549,15.5272283 5.06998779,15.5272283 C4.65738706,15.5272283 4.2557265,15.4865934 3.86344322,15.4115751 C4.6792674,17.959072 7.04859585,19.8126496 9.85396825,19.8657875 C7.65968254,21.5849573 4.89338217,22.6102076 1.88952381,22.6102076 C1.37221001,22.6102076 0.861147741,22.5805128 0.359462759,22.5211233 C3.19765568,24.3403175 6.56879121,25.401514 10.1899878,25.401514 C21.9850549,25.401514 28.43663,15.6303785 28.43663,7.15487179 C28.43663,6.87667888 28.4303785,6.60004884 28.4178755,6.32498168 C29.6713065,5.42319902 30.7575092,4.29323565 31.617094,3.00698413 Z" id="Path"></path>
        </g>
    </g>
</svg>