<?xml version="1.0" encoding="UTF-8"?>
<svg width="44px" height="44px" viewBox="0 0 44 44" version="1.1" xmlns="http://www.w3.org/2000/svg" xmlns:xlink="http://www.w3.org/1999/xlink">
    <!-- Generator: Sketch 64 (93537) - https://sketch.com -->
    <title>icon-linkedin</title>
    <desc>Created with Sketch.</desc>
    <g id="icon-linkedin" stroke="none" stroke-width="1" fill="none" fill-rule="evenodd">
        <g id="Group" transform="translate(10.027323, 10.000000)" fill="#FFFFFF" fill-rule="nonzero">
            <path d="M0.382523082,7.83261549 L5.28246161,7.83261549 L5.28246161,23.5889234 L0.382523082,23.5889234 L0.382523082,7.83261549 Z M2.84160004,-1.42108547e-13 C4.40812313,-1.42108547e-13 5.68320007,1.27507694 5.68320007,2.84160004 C5.68320007,4.40812313 4.40812313,5.68320007 2.84160004,5.68320007 C1.26596925,5.68320007 -9.1038288e-14,4.40812313 -9.1038288e-14,2.84160004 C-9.1038288e-14,1.27507694 1.26596925,-1.42108547e-13 2.84160004,-1.42108547e-13" id="XMLID_195_"></path>
            <path d="M8.36086165,7.83261549 L13.0513232,7.83261549 L13.0513232,9.99113859 L13.1150771,9.99113859 C13.7708309,8.75249242 15.3646771,7.4500924 17.7508925,7.4500924 C22.7054772,7.4500924 23.6253542,10.7106463 23.6253542,14.954831 L23.6253542,23.5889234 L18.7345233,23.5889234 L18.7345233,15.9293541 C18.7345233,14.0987079 18.7072002,11.7489232 16.1934771,11.7489232 C13.6433233,11.7489232 13.2608002,13.7435079 13.2608002,15.7927387 L13.2608002,23.5889234 L8.36996934,23.5889234 L8.36996934,7.83261549 L8.36086165,7.83261549 Z" id="XMLID_192_"></path>
        </g>
    </g>
</svg>