<?xml version="1.0" encoding="UTF-8"?>
<svg width="614px" height="250px" viewBox="0 0 614 250" version="1.1" xmlns="http://www.w3.org/2000/svg" xmlns:xlink="http://www.w3.org/1999/xlink">
    <!-- Generator: Sketch 64 (93537) - https://sketch.com -->
    <title>hipporello-logo</title>
    <desc>Created with Sketch.</desc>
    <g id="Logo" stroke="none" stroke-width="1" fill="none" fill-rule="evenodd">
        <path d="M140.869496,180.299403 C144.391138,180.299403 147.768285,180.987201 150.907303,182.344302 C154.042854,183.700247 156.811386,185.576953 159.136027,187.918934 C161.461826,190.26265 163.32755,193.039274 164.683495,196.17309 C166.040596,199.310374 166.728394,202.705439 166.728394,206.264072 C166.728394,209.822126 166.040596,213.207943 164.683495,216.329043 C163.326394,219.446098 161.46067,222.205383 159.13545,224.530025 C156.809651,226.855245 154.041697,228.722125 150.907303,230.07807 C147.770597,231.434593 144.392872,232.122969 140.869496,232.122969 C138.754662,232.122969 136.68202,231.872703 134.70879,231.379685 C132.888726,230.924813 131.122414,230.28152 129.449157,229.465988 L129.449157,229.465988 L129.449157,242.124941 C129.449157,243.168776 129.275185,244.165794 128.932442,245.087097 C128.588543,246.009556 128.101882,246.826822 127.486332,247.515776 C126.863846,248.209354 126.10669,248.754391 125.233937,249.137014 C124.360607,249.518482 123.384974,249.712106 122.334204,249.712106 C121.319268,249.712106 120.354038,249.51906 119.464525,249.13817 C118.575011,248.756702 117.783754,248.213978 117.113296,247.524446 C116.444571,246.838959 115.90358,246.024005 115.505929,245.101547 C115.107122,244.177354 114.904828,243.17629 114.904828,242.124941 L114.904828,242.124941 L114.904828,205.840411 C114.939507,202.351714 115.66314,199.009824 117.057231,195.906641 C118.448433,192.806925 120.341323,190.074228 122.683883,187.784843 C125.02702,185.495458 127.794396,183.655742 130.910295,182.318293 C134.030818,180.977953 137.381955,180.299403 140.869496,180.299403 Z M209.851892,180.299403 C213.373534,180.299403 216.750103,180.987201 219.889699,182.344302 C223.025249,183.700247 225.793781,185.576953 228.119001,187.918934 C230.443644,190.26265 232.309946,193.039274 233.665891,196.17309 C235.022992,199.310374 235.71079,202.705439 235.71079,206.264072 C235.71079,209.822126 235.022992,213.207943 233.665313,216.329043 C232.309368,219.446098 230.442488,222.205383 228.117846,224.530025 C225.792625,226.855245 223.024094,228.722125 219.889699,230.07807 C216.752993,231.434593 213.375846,232.122969 209.851892,232.122969 C207.737635,232.122969 205.664416,231.872703 203.691186,231.379685 C201.8717,230.924813 200.10481,230.28152 198.431553,229.465988 L198.431553,229.465988 L198.431553,242.124941 C198.431553,243.168776 198.257581,244.165794 197.914838,245.087097 C197.570939,246.009556 197.084278,246.826822 196.46815,247.515776 C195.846241,248.209354 195.089086,248.754391 194.215756,249.137014 C193.343003,249.518482 192.367948,249.712106 191.3166,249.712106 C190.302242,249.712106 189.335857,249.51906 188.447499,249.13817 C187.557985,248.756702 186.76615,248.213978 186.095692,247.524446 C185.426967,246.838959 184.885398,246.024005 184.488325,245.101547 C184.090095,244.177354 183.887224,243.17629 183.887224,242.124941 L183.887224,242.124941 L183.887224,205.840411 C183.921903,202.351714 184.646114,199.009824 186.039627,195.906641 C187.430829,192.806925 189.323719,190.074228 191.666279,187.784843 C194.009416,185.495458 196.77737,183.655742 199.892691,182.318293 C203.013214,180.977953 206.363773,180.299403 209.851892,180.299403 Z M84.5170971,180.873339 C86.2949687,180.123696 88.4144272,180.097687 90.1865188,180.875073 C91.0534914,181.255962 91.8141149,181.78077 92.4481611,182.435045 C93.0804728,183.087586 93.5850508,183.85977 93.9457113,184.730788 C94.3075279,185.602384 94.491326,186.541026 94.491326,187.518971 L94.491326,187.518971 L94.491326,224.903401 C94.491326,225.882502 94.2982801,226.821722 93.9179683,227.696208 C93.5399684,228.564914 93.0174728,229.33652 92.3666656,229.989639 C91.717592,230.641602 90.9482987,231.16641 90.0807481,231.547878 C89.2114638,231.929346 88.2757116,232.122969 87.2977667,232.122969 C86.3198219,232.122969 85.3753999,231.929924 84.4893538,231.548455 C83.6050421,231.167566 82.818987,230.644492 82.1519963,229.992529 C81.4844275,229.341144 80.9451705,228.569538 80.5475193,227.700832 C80.14929,226.82808 79.9464183,225.886547 79.9464183,224.903401 L79.9464183,224.903401 L79.9464183,187.518971 C79.9464183,186.535825 80.14929,185.594293 80.5475193,184.720962 C80.9463266,183.851678 81.4855836,183.08065 82.1519963,182.429265 C82.8201431,181.776146 83.6160236,181.253073 84.5170971,180.873339 Z M276.419134,180.299461 C279.974877,180.299461 283.370519,180.987259 286.509537,182.34436 C289.645088,183.700304 292.41362,185.576433 294.738262,187.918992 C297.06406,190.262708 298.929785,193.039332 300.285729,196.17257 C301.642252,199.310432 302.330629,202.705496 302.330629,206.263551 C302.330629,209.822184 301.642252,213.208001 300.285729,216.329101 C298.928629,219.446156 297.062904,222.20544 294.737684,224.530082 C292.411886,226.855302 289.643932,228.722183 286.509537,230.078128 C283.372831,231.434651 279.978345,232.123027 276.419134,232.123027 C272.859345,232.123027 269.472951,231.434651 266.354162,230.07755 C263.238263,228.722761 260.470309,226.856458 258.126594,224.530661 C255.783456,222.20544 253.908484,219.446156 252.552539,216.329101 C251.19486,213.209734 250.507062,209.82334 250.507062,206.263551 C250.507062,202.70434 251.19486,199.309276 252.551961,196.17257 C253.907328,193.039332 255.782878,190.26213 258.126016,187.918414 C260.469153,185.575855 263.237107,183.700304 266.354162,182.344938 C269.475263,180.987259 272.862235,180.299461 276.419134,180.299461 Z M392.383345,180.299461 C395.905565,180.299461 399.273463,180.969341 402.393408,182.291185 C405.50815,183.611295 408.276682,185.451011 410.621555,187.759469 C412.962959,190.065038 414.855847,192.805827 416.248207,195.90612 C417.639984,199.008726 418.381535,202.367377 418.453207,205.890175 C418.453207,207.964551 417.777545,209.651679 416.445876,210.909946 C415.118828,212.164166 413.382574,212.800523 411.285077,212.800523 L411.285077,212.800523 L382.673253,212.800523 C383.724024,214.366854 385.058584,215.632633 386.649189,216.568386 C388.380823,217.586789 390.310126,218.103505 392.383345,218.103505 C393.719059,218.103505 394.796995,217.991954 395.587673,217.772899 C396.384135,217.552688 397.11239,217.253294 397.751058,216.88223 C398.460243,216.421578 399.185033,216.082303 399.891905,215.882899 C401.705033,215.373698 403.356905,215.529753 404.766023,216.187496 C405.617969,216.588037 406.372813,217.140009 407.008593,217.828963 C407.641481,218.517917 408.146638,219.324202 408.507876,220.227587 C408.870271,221.135018 409.054067,222.089266 409.054067,223.065477 C409.054067,224.304092 408.703233,225.494734 408.013125,226.605037 C407.325905,227.707825 406.267619,228.677101 404.866593,229.485119 C403.482905,230.283312 401.73451,230.929495 399.668224,231.40633 C397.610033,231.882009 395.15939,232.123027 392.383345,232.123027 C388.823556,232.123027 385.419244,231.434651 382.266932,230.078128 C379.115776,228.723339 376.321235,226.856458 373.961337,224.531817 C371.601439,222.207174 369.70797,219.448468 368.333528,216.330257 C366.958512,213.209734 366.261464,209.82334 366.261464,206.263551 C366.261464,202.669661 366.958512,199.256102 368.333528,196.119396 C369.707391,192.984423 371.600282,190.2078 373.96018,187.86524 C376.319502,185.523258 379.11462,183.656378 382.268088,182.317773 C385.422135,180.978011 388.825868,180.299461 392.383345,180.299461 Z M546.929734,180.299461 C550.486056,180.299461 553.880543,180.987259 557.020138,182.34436 C560.155689,183.700304 562.924221,185.576433 565.248864,187.918992 C567.574084,190.262708 569.440386,193.039332 570.796332,196.17257 C572.152854,199.310432 572.84123,202.705496 572.84123,206.263551 C572.84123,209.822184 572.152854,213.208001 570.796332,216.329101 C569.43923,219.446156 567.573504,222.20544 565.248285,224.530082 C562.923065,226.855302 560.154533,228.722183 557.020138,230.078128 C553.883432,231.434651 550.488368,232.123027 546.929734,232.123027 C543.369948,232.123027 539.982974,231.434651 536.864764,230.07755 C533.748866,228.722761 530.98091,226.856458 528.637194,224.530661 C526.294637,222.20544 524.419086,219.446156 523.062563,216.329101 C521.705462,213.209734 521.017662,209.82334 521.017662,206.263551 C521.017662,202.70434 521.705462,199.309276 523.062563,196.17257 C524.41793,193.039332 526.293481,190.26213 528.636617,187.918414 C530.979754,185.575855 533.74771,183.700304 536.864764,182.344938 C539.985865,180.987259 543.372836,180.299461 546.929734,180.299461 Z M11.5861619,162.181297 C13.3663453,161.419518 15.452281,161.418939 17.1972075,162.182453 C18.0659139,162.562187 18.8380973,163.086416 19.4912165,163.739536 C20.1443358,164.393233 20.6685651,165.174664 21.048299,166.061288 C21.4297669,166.951958 21.6233908,167.917765 21.6233908,168.932123 L21.6233908,168.932123 L21.6233908,185.519617 C23.4359411,183.986232 25.4253539,182.742416 27.5459685,181.819957 C29.8648307,180.810801 32.3322342,180.299287 34.8811331,180.299287 C38.3010505,180.299287 41.5377478,180.969746 44.5027935,182.292746 C47.4637934,183.615168 50.0647105,185.4387 52.2332976,187.713635 C54.4007287,189.986837 56.1242701,192.684856 57.3582608,195.732553 C58.5922515,198.781984 59.2176276,202.078213 59.2176276,205.528185 L59.2176276,205.528185 L59.2176276,224.535689 C59.2176276,225.553515 59.0234257,226.50256 58.6408018,227.357973 C58.259912,228.211074 57.7258569,228.966496 57.0536643,229.602854 C56.3797379,230.238633 55.5994628,230.743211 54.7336462,231.103294 C53.8626278,231.466267 52.9245635,231.650643 51.9454629,231.650643 C50.96694,231.650643 50.020206,231.466267 49.1324261,231.103872 C48.2458023,230.743211 47.4637934,230.2369 46.8083622,229.599964 C46.1552428,228.96534 45.6304355,228.210496 45.2501237,227.357973 C44.8674999,226.50256 44.673298,225.553515 44.673298,224.535689 L44.673298,224.535689 L44.673298,205.528185 C44.673298,204.028323 44.4403712,202.593772 43.980298,201.264415 C43.5231146,199.943149 42.8613254,198.78314 42.0145825,197.816176 C41.1701513,196.853837 40.1326743,196.083387 38.9333626,195.525635 C36.525491,194.406663 33.3697112,194.437874 30.2723078,195.459167 C28.7146473,195.972415 27.2748951,196.70125 25.9929318,197.624287 C24.7167484,198.543277 23.6549962,199.6478 22.8377301,200.9078 C22.0314458,202.149305 21.6233908,203.509295 21.6233908,204.950781 L21.6233908,204.950781 L21.6233908,224.325882 C21.6233908,225.303248 21.4395926,226.241891 21.0766202,227.114643 C20.7124917,227.986817 20.1963541,228.760156 19.5432349,229.412698 C18.8906936,230.065817 18.1190882,230.590047 17.2498038,230.96978 C15.5042993,231.733872 13.313171,231.732716 11.5329876,230.970936 C10.6463638,230.591202 9.86493258,230.066395 9.21123535,229.412698 C8.5592721,228.761891 8.03562075,227.990285 7.65415287,227.119267 C7.27268499,226.247093 7.07906114,225.307294 7.07906114,224.325882 L7.07906114,224.325882 L7.07906114,168.932123 C7.07906114,167.917187 7.27268499,166.95138 7.65299691,166.061288 C8.03504276,165.171774 8.56909776,164.389765 9.24013445,163.736646 C9.91059312,163.084104 10.700116,162.561031 11.5861619,162.181297 Z M442.185939,162.709226 C443.890407,161.931262 446.042235,161.956694 447.825308,162.705758 C448.730426,163.08607 449.53671,163.609143 450.223353,164.259372 C450.911729,164.911914 451.462547,165.683519 451.861932,166.553959 C452.26305,167.429024 452.466499,168.387895 452.466499,169.404565 L452.466499,169.404565 L452.466499,214.559379 C452.529499,215.470278 452.874553,216.137269 453.521318,216.578269 C454.185416,217.03314 455.110767,217.263755 456.272509,217.263755 C457.283977,217.263755 458.24805,217.447554 459.138142,217.809948 C460.030547,218.174654 460.797527,218.692526 461.418279,219.349113 C462.034986,220.003388 462.53147,220.774416 462.892709,221.641966 C463.25626,222.515874 463.440059,223.453939 463.440059,224.430727 C463.440059,225.442195 463.25626,226.398177 462.892709,227.272085 C462.530317,228.142525 462.032094,228.897947 461.412499,229.518122 C460.791168,230.139452 460.025922,230.637094 459.138142,230.998911 C458.249782,231.361305 457.285709,231.545681 456.272509,231.545681 C453.797012,231.545681 451.422665,231.123755 449.214197,230.293195 C447.00284,229.462635 445.036547,228.268525 443.370802,226.744388 C441.705637,225.220828 440.366455,223.379379 439.391977,221.270324 C438.416344,219.160691 437.921592,216.796746 437.921592,214.244379 L437.921592,214.244379 L437.921592,169.404565 C437.921592,168.390207 438.105392,167.434804 438.468363,166.563207 C438.830758,165.693345 439.33707,164.920583 439.97285,164.267464 C440.605162,163.615501 441.349602,163.091272 442.185939,162.709226 Z M486.070235,162.709226 C487.775282,161.931262 489.926531,161.956694 491.709604,162.705758 C492.614722,163.08607 493.421005,163.609143 494.107648,164.259372 C494.796024,164.911914 495.346839,165.683519 495.746225,166.553959 C496.147346,167.429024 496.350795,168.387895 496.350795,169.404565 L496.350795,169.404565 L496.350795,214.559379 C496.413795,215.470278 496.758849,216.137269 497.40561,216.578269 C498.069712,217.03314 498.995062,217.263755 500.156804,217.263755 C501.168272,217.263755 502.132345,217.447554 503.022438,217.809948 C503.914839,218.174654 504.681823,218.692526 505.302575,219.349113 C505.919281,220.003388 506.415766,220.774416 506.777004,221.641966 C507.140555,222.515874 507.324355,223.453939 507.324355,224.430727 C507.324355,225.442195 507.140555,226.398177 506.777004,227.272085 C506.41461,228.142525 505.91639,228.897947 505.296794,229.518122 C504.675463,230.139452 503.910218,230.637094 503.022438,230.998911 C502.134078,231.361305 501.170005,231.545681 500.156804,231.545681 C497.681307,231.545681 495.30696,231.123755 493.098492,230.293195 C490.887136,229.462635 488.92084,228.268525 487.255098,226.744388 C485.589932,225.220828 484.250751,223.379379 483.276273,221.270324 C482.300639,219.160691 481.805888,216.796746 481.805888,214.244379 L481.805888,214.244379 L481.805888,169.404565 C481.805888,168.390207 481.989687,167.434804 482.352658,166.563207 C482.715053,165.693345 483.221365,164.920583 483.857146,164.267464 C484.489454,163.615501 485.233897,163.091272 486.070235,162.709226 Z M346.76626,180.299229 C349.149279,180.335064 351.011537,181.036156 352.303903,182.382853 C353.594537,183.728973 354.248811,185.457137 354.248811,187.518798 C354.248811,188.570725 354.045938,189.546935 353.644241,190.422 C353.246011,191.291862 352.703865,192.062889 352.034562,192.713697 C351.360636,193.369706 350.551461,193.885265 349.628426,194.246504 C348.707699,194.607742 347.727445,194.790963 346.713665,194.790963 C345.011509,194.790963 343.380445,195.119256 341.865553,195.766018 C340.347773,196.414513 338.999343,197.312696 337.859563,198.436293 C336.718627,199.559311 335.794436,200.899072 335.111261,202.418008 C334.430398,203.932898 334.067426,205.58188 334.033904,207.319292 L334.033904,207.319292 L334.033904,224.37842 C334.033904,225.391044 333.849528,226.347025 333.486554,227.219778 C333.123003,228.09253 332.606289,228.858356 331.951436,229.494713 C331.297159,230.130493 330.534226,230.636227 329.683436,230.997466 C328.828602,231.361016 327.898051,231.545392 326.918949,231.545392 C325.941583,231.545392 324.986178,231.362172 324.081637,230.999778 C323.177096,230.639117 322.378325,230.133961 321.70671,229.497603 C321.035096,228.863557 320.492373,228.100622 320.093564,227.228447 C319.692446,226.356273 319.489573,225.396824 319.489573,224.37842 L319.489573,224.37842 L319.489573,206.728017 C319.594768,203.135283 320.381398,199.705541 321.825774,196.535311 C323.268417,193.367394 325.223153,190.556669 327.63507,188.179431 C330.044675,185.803926 332.883143,183.894275 336.07071,182.502496 C339.2577,181.111294 342.694958,180.370321 346.28827,180.299229 L346.28827,180.299229 Z M140.869496,195.000943 C139.341313,195.000943 137.868038,195.29398 136.491864,195.871384 C135.112799,196.450521 133.88979,197.260274 132.855203,198.278677 C131.818882,199.296503 130.99179,200.50275 130.396469,201.863897 C129.802304,203.221576 129.501754,204.701787 129.501754,206.264072 C129.501754,207.826356 129.802304,209.306567 130.396469,210.663668 C130.991213,212.023658 131.818882,213.229328 132.855203,214.248309 C133.891524,215.268447 135.115111,216.078199 136.491864,216.655603 C137.865726,217.233007 139.337845,217.526043 140.869496,217.526043 C142.434671,217.526043 143.915459,217.233007 145.271405,216.656181 C146.630817,216.079355 147.835909,215.269603 148.856046,214.250043 C149.875028,213.231062 150.69345,212.024236 151.289349,210.663668 C151.882936,209.305411 152.184065,207.8252 152.184065,206.264072 C152.184065,204.702943 151.882936,203.222732 151.289349,201.863897 C150.692872,200.502172 149.87445,199.295347 148.856046,198.276943 C147.838221,197.259118 146.631973,196.449943 145.271405,195.870806 C143.913148,195.29398 142.432359,195.000943 140.869496,195.000943 Z M209.851892,195.000943 C208.323131,195.000943 206.850434,195.29398 205.474259,195.871384 C204.095773,196.450521 202.872186,197.260274 201.837599,198.278677 C200.801856,199.296503 199.974186,200.50275 199.378865,201.863897 C198.785278,203.221576 198.48415,204.701787 198.48415,206.264072 C198.48415,207.826356 198.785278,209.306567 199.378865,210.663668 C199.973608,212.023658 200.8007,213.229328 201.837599,214.248309 C202.874498,215.268447 204.097507,216.078199 205.474259,216.655603 C206.848122,217.233007 208.320819,217.526043 209.851892,217.526043 C211.417067,217.526043 212.897856,217.233007 214.254378,216.656181 C215.613213,216.079355 216.818883,215.269603 217.838442,214.250043 C218.857424,213.231062 219.676424,212.024236 220.271745,210.663668 C220.865332,209.305411 221.166461,207.8252 221.166461,206.264072 C221.166461,204.702943 220.865332,203.222732 220.271745,201.863897 C219.675268,200.502172 218.856846,199.295347 217.838442,198.276943 C216.820617,197.259118 215.614947,196.449943 214.254378,195.870806 C212.894965,195.29398 211.414177,195.000943 209.851892,195.000943 Z M276.392547,195.001001 C274.860318,195.001001 273.392822,195.294038 272.031676,195.870864 C270.666483,196.450579 269.448098,197.260331 268.411777,198.278735 C267.371988,199.298872 266.54374,200.50512 265.947841,201.864533 C265.35252,203.221634 265.051392,204.701845 265.051392,206.263551 C265.051392,207.826413 265.35252,209.306047 265.947841,210.663147 C266.542584,212.021404 267.371988,213.227652 268.411777,214.248367 C269.45041,215.268505 270.668795,216.078257 272.031676,216.656239 C273.391089,217.233064 274.858006,217.526101 276.392547,217.526101 C277.962345,217.526101 279.45585,217.233064 280.832602,216.655661 C282.21051,216.079413 283.428317,215.269661 284.449611,214.250101 C285.47206,213.230542 286.292794,212.023716 286.889271,210.663147 C287.484014,209.305469 287.786299,207.825835 287.786299,206.263551 C287.786299,204.702423 287.484014,203.22279 286.889271,201.863955 C286.292216,200.502808 285.471483,199.295983 284.449611,198.277579 C283.430051,197.259175 282.212244,196.450001 280.832602,195.871441 C279.453538,195.294038 277.959455,195.001001 276.392547,195.001001 Z M546.903148,195.001001 C545.371499,195.001001 543.903422,195.294038 542.542276,195.870864 C541.177085,196.450579 539.959276,197.260331 538.922378,198.278735 C537.883168,199.298872 537.054343,200.50512 536.458442,201.864533 C535.86312,203.221634 535.561993,204.701845 535.561993,206.263551 C535.561993,207.826413 535.86312,209.306047 536.458442,210.663147 C537.053764,212.021404 537.882012,213.227652 538.922378,214.248367 C539.961012,215.268505 541.179397,216.078257 542.542276,216.656239 C543.90169,217.233064 545.368607,217.526101 546.903148,217.526101 C548.472368,217.526101 549.966451,217.233064 551.343202,216.655661 C552.721113,216.079413 553.938342,215.269661 554.960212,214.250101 C555.982661,213.230542 556.803396,212.023716 557.399874,210.663147 C557.994616,209.305469 558.296899,207.825835 558.296899,206.263551 C558.296899,204.702423 557.994616,203.22279 557.399874,201.863955 C556.802817,200.502808 555.982084,199.295983 554.960212,198.277579 C553.940651,197.259175 552.722846,196.450001 551.343202,195.871441 C549.963562,195.294038 548.470056,195.001001 546.903148,195.001001 Z M392.64575,194.21379 C390.09338,194.21379 387.88896,194.85824 386.092014,196.129221 C384.415868,197.31524 383.105005,198.806432 382.190639,200.566386 L382.190639,200.566386 L403.36615,200.566386 C402.41595,198.713955 401.037463,197.199065 399.262482,196.05813 C397.358609,194.833964 395.132804,194.21379 392.64575,194.21379 Z M84.3067118,161.7355 C86.1839961,160.937307 88.4074915,160.937307 90.2888217,161.7355 C91.2280417,162.134307 92.0591793,162.694372 92.760849,163.398931 C93.4619407,164.102335 94.0272069,164.925958 94.4410416,165.846683 C94.8577664,166.773188 95.0687298,167.793904 95.0687298,168.879353 C95.0687298,169.930123 94.8583444,170.941013 94.4416196,171.884279 C94.0283626,172.822343 93.4630967,173.655793 92.760849,174.360353 C92.0568675,175.066646 91.2257299,175.626132 90.2888217,176.023784 C89.3507574,176.422013 88.3444915,176.624307 87.2977667,176.624307 C86.2493079,176.624307 85.24362,176.422013 84.3067118,176.023784 C83.3698035,175.626132 82.538088,175.066646 81.8346845,174.360353 C81.1312807,173.654637 80.5654368,172.821188 80.1527578,171.883701 C79.7371891,170.941591 79.5268037,169.93128 79.5268037,168.879353 C79.5268037,167.792747 79.7377671,166.772032 80.1539139,165.846683 C80.5665925,164.927114 81.1318587,164.103491 81.8346845,163.398931 C82.5357762,162.693794 83.3674918,162.134307 84.3067118,161.7355 Z M231.840914,13.5337275 C240.799051,22.9681216 243.724794,34.1954148 239.47663,42.8333501 C238.605033,44.6060197 237.49762,46.3405426 236.167107,48.023625 C243.718437,50.7366707 254.890244,53.3740009 270.244325,53.7352394 C293.316774,54.280854 319.864049,49.5703039 349.142286,39.7434604 C370.838559,31.1228643 390.61709,25.5303141 409.608411,22.6467638 C452.720062,16.09881 492.93949,24.0425894 522.848304,45.0152306 C532.877443,52.0475331 541.68357,60.7669639 549.02336,70.9319268 C550.656735,73.1947248 552.216707,75.5320824 553.669175,77.8902475 C554.508404,78.5346972 555.229726,79.3051465 555.821579,80.1894586 C563.306442,91.3728249 576.827164,101.857989 598.727466,88.2921827 C600.947494,86.9171646 603.571529,86.490036 606.110602,87.086513 C608.651988,87.6841461 610.80786,89.2354489 612.181723,91.4543202 C613.556742,93.6737697 613.984446,96.2949164 613.387392,98.8363017 C612.790338,101.377687 611.239035,103.534136 609.020163,104.908577 C599.093905,111.057145 589.182676,114.1742 579.561597,114.1742 C575.405906,114.1742 571.330559,113.589861 567.379477,112.432163 C568.992047,120.573612 569.519165,128.716796 568.945808,136.724153 C568.588179,141.722404 564.451658,145.6569 559.470657,145.795824 L559.198146,145.799621 L11.8634197,145.799621 C7.51757581,145.799621 3.65145671,142.879657 2.46370447,138.698538 C-3.66058881,117.151961 1.85740175,92.8582376 16.5213735,76.80711 C35.0144736,56.5656154 66.4769034,50.2725517 91.3335812,61.8448995 C93.5131499,62.8592575 95.6146912,63.9724501 97.6468745,65.0486519 C103.20359,67.9905782 108.419296,70.7521746 112.416617,69.9626517 C117.019084,69.0540645 120.876534,63.2967896 124.960552,57.2013953 C126.569075,54.8010374 128.222102,52.3342121 130.039855,49.9737351 C141.333117,35.3057051 159.46501,26.4758349 178.174497,26.2915681 L178.771797,26.288626 L178.804164,26.288626 C179.911577,15.0116265 185.556146,6.4852416 194.644329,2.58733352 C207.800925,-3.05607907 222.806484,4.01841602 231.840914,13.5337275 Z M36.3652745,92.8902012 C36.3404213,93.1427792 36.3554487,93.4132747 36.4369442,93.7057333 C36.4716232,93.938082 36.5409808,94.1317059 36.6247881,94.3097241 C37.8703387,98.1007057 40.5423478,100.777916 44.869118,100.558861 C48.0884758,100.395293 50.8101913,98.6075955 53.0128791,96.3696507 C55.8357414,93.5011279 60.3278148,89.5350179 61.3173192,85.4134308 C62.4201083,80.8173212 58.7551266,77.4205232 54.6138883,76.3264039 C43.9703566,73.5156791 35.3763481,82.7356421 36.3652745,92.8902012 Z M149.924099,66.3018327 C148.756576,67.7323374 148.217319,69.532172 148.404007,71.3689977 C148.590695,73.2052454 149.481943,74.8594288 150.912447,76.0252176 C152.341218,77.1921624 154.138741,77.7314194 155.977878,77.5453092 C157.815282,77.3586213 159.468887,76.4679516 160.635254,75.0374469 C163.33674,71.7250343 166.171162,70.1020621 169.053557,70.2032086 C172.910428,70.3471261 176.283529,73.2618874 178.155611,75.9414102 C179.446822,77.7921076 181.566859,78.8966305 183.825611,78.8966305 C185.244556,78.8966305 186.611482,78.466612 187.777849,77.6516579 L187.778427,77.6516579 C189.291583,76.5945296 190.303051,75.011438 190.626143,73.1942636 C190.948657,71.3765114 190.544647,69.5419978 189.487519,68.0288418 C184.59606,61.0242826 177.149923,56.6732369 169.565648,56.3906038 C164.434905,56.2044936 156.874328,57.7771818 149.924099,66.3018327 Z" id="hipporello-logo" fill="#334AC0" fill-rule="nonzero"></path>
    </g>
</svg>