<?xml version="1.0" encoding="UTF-8"?>
<svg width="614px" height="250px" viewBox="0 0 614 250" version="1.1" xmlns="http://www.w3.org/2000/svg" xmlns:xlink="http://www.w3.org/1999/xlink">
    <!-- Generator: Sketch 64 (93537) - https://sketch.com -->
    <title>logo</title>
    <desc>Created with Sketch.</desc>
    <g id="Page-1" stroke="none" stroke-width="1" fill="none" fill-rule="evenodd">
        <g id="logo">
            <path d="M52.2332976,187.713635 C50.0647105,185.4387 47.4637934,183.615168 44.5027935,182.292746 C41.5377478,180.969746 38.3010505,180.299287 34.8811331,180.299287 C32.3322342,180.299287 29.8648307,180.810801 27.5459685,181.819957 C25.4253539,182.742416 23.4359411,183.986232 21.6233908,185.519617 L21.6233908,168.932123 C21.6233908,167.917765 21.4297669,166.951958 21.048299,166.061288 C20.6685651,165.174664 20.1443358,164.393233 19.4912165,163.739536 C18.8380973,163.086416 18.0659139,162.562187 17.1972075,162.182453 C15.452281,161.418939 13.3663453,161.419518 11.5861619,162.181297 C10.700116,162.561031 9.91059312,163.084104 9.24013445,163.736646 C8.56909776,164.389765 8.03504276,165.171774 7.65299691,166.061288 C7.27268499,166.95138 7.07906114,167.917187 7.07906114,168.932123 L7.07906114,224.325882 C7.07906114,225.307294 7.27268499,226.247093 7.65415287,227.119267 C8.03562075,227.990285 8.5592721,228.761891 9.21123535,229.412698 C9.86493258,230.066395 10.6463638,230.591202 11.5329876,230.970936 C13.313171,231.732716 15.5042993,231.733872 17.2498038,230.96978 C18.1190882,230.590047 18.8906936,230.065817 19.5432349,229.412698 C20.1963541,228.760156 20.7124917,227.986817 21.0766202,227.114643 C21.4395926,226.241891 21.6233908,225.303248 21.6233908,224.325882 L21.6233908,204.950781 C21.6233908,203.509295 22.0314458,202.149305 22.8377301,200.9078 C23.6549962,199.6478 24.7167484,198.543277 25.9929318,197.624287 C27.2748951,196.70125 28.7146473,195.972415 30.2723078,195.459167 C33.3697112,194.437874 36.525491,194.406663 38.9333626,195.525635 C40.1326743,196.083387 41.1701513,196.853837 42.0145825,197.816176 C42.8613254,198.78314 43.5231146,199.943149 43.980298,201.264415 C44.4403712,202.593772 44.673298,204.028323 44.673298,205.528185 L44.673298,224.535689 C44.673298,225.553515 44.8674999,226.50256 45.2501237,227.357973 C45.6304355,228.210496 46.1552428,228.96534 46.8083622,229.599964 C47.4637934,230.2369 48.2458023,230.743211 49.1324261,231.103872 C50.020206,231.466267 50.96694,231.650643 51.9454629,231.650643 C52.9245635,231.650643 53.8626278,231.466267 54.7336462,231.103294 C55.5994628,230.743211 56.3797379,230.238633 57.0536643,229.602854 C57.7258569,228.966496 58.259912,228.211074 58.6408018,227.357973 C59.0234257,226.50256 59.2176276,225.553515 59.2176276,224.535689 L59.2176276,205.528185 C59.2176276,202.078213 58.5922515,198.781984 57.3582608,195.732553 C56.1242701,192.684856 54.4007287,189.986837 52.2332976,187.713635" id="Fill-1" fill="#FFFFFF" fill-rule="nonzero"></path>
            <path d="M92.4481611,182.435045 C91.8141149,181.78077 91.0534914,181.255962 90.1865188,180.875073 C88.4144272,180.097687 86.2949687,180.123696 84.5170971,180.873339 C83.6160236,181.253073 82.8201431,181.776146 82.1519963,182.429265 C81.4855836,183.08065 80.9463266,183.851678 80.5475193,184.720962 C80.14929,185.594293 79.9464183,186.535825 79.9464183,187.518971 L79.9464183,224.903401 C79.9464183,225.886547 80.14929,226.82808 80.5475193,227.700832 C80.9451705,228.569538 81.4844275,229.341144 82.1519963,229.992529 C82.818987,230.644492 83.6050421,231.167566 84.4893538,231.548455 C85.3753999,231.929924 86.3198219,232.122969 87.2977667,232.122969 C88.2757116,232.122969 89.2114638,231.929346 90.0807481,231.547878 C90.9482987,231.16641 91.717592,230.641602 92.3666656,229.989639 C93.0174728,229.33652 93.5399684,228.564914 93.9179683,227.696208 C94.2982801,226.821722 94.491326,225.882502 94.491326,224.903401 L94.491326,187.518971 C94.491326,186.541026 94.3075279,185.602384 93.9457113,184.730788 C93.5850508,183.85977 93.0804728,183.087586 92.4481611,182.435045" id="Fill-3" fill="#FFFFFF" fill-rule="nonzero"></path>
            <path d="M92.760849,163.398931 C92.0591793,162.694372 91.2280417,162.134307 90.2888217,161.7355 C88.4074915,160.937307 86.1839961,160.937307 84.3067118,161.7355 C83.3674918,162.134307 82.5357762,162.693794 81.8346845,163.398931 C81.1318587,164.103491 80.5665925,164.927114 80.1539139,165.846683 C79.7377671,166.772032 79.5268037,167.792747 79.5268037,168.879353 C79.5268037,169.93128 79.7371891,170.941591 80.1527578,171.883701 C80.5654368,172.821188 81.1312807,173.654637 81.8346845,174.360353 C82.538088,175.066646 83.3698035,175.626132 84.3067118,176.023784 C85.24362,176.422013 86.2493079,176.624307 87.2977667,176.624307 C88.3444915,176.624307 89.3507574,176.422013 90.2888217,176.023784 C91.2257299,175.626132 92.0568675,175.066646 92.760849,174.360353 C93.4630967,173.655793 94.0283626,172.822343 94.4416196,171.884279 C94.8583444,170.941013 95.0687298,169.930123 95.0687298,168.879353 C95.0687298,167.793904 94.8577664,166.773188 94.4410416,165.846683 C94.0272069,164.925958 93.4619407,164.102335 92.760849,163.398931" id="Fill-5" fill="#FFFFFF" fill-rule="nonzero"></path>
            <path d="M145.271405,216.656181 C143.915459,217.233007 142.434671,217.526043 140.869496,217.526043 C139.337845,217.526043 137.865726,217.233007 136.491864,216.655603 C135.115111,216.078199 133.891524,215.268447 132.855203,214.248309 C131.818882,213.229328 130.991213,212.023658 130.396469,210.663668 C129.802304,209.306567 129.501754,207.826356 129.501754,206.264072 C129.501754,204.701787 129.802304,203.221576 130.396469,201.863897 C130.99179,200.50275 131.818882,199.296503 132.855203,198.278677 C133.88979,197.260274 135.112799,196.450521 136.491864,195.871384 C137.868038,195.29398 139.341313,195.000943 140.869496,195.000943 C142.432359,195.000943 143.913148,195.29398 145.271405,195.870806 C146.631973,196.449943 147.838221,197.259118 148.856046,198.276943 C149.87445,199.295347 150.692872,200.502172 151.289349,201.863897 C151.882936,203.222732 152.184065,204.702943 152.184065,206.264072 C152.184065,207.8252 151.882936,209.305411 151.289349,210.663668 C150.69345,212.024236 149.875028,213.231062 148.856046,214.250043 C147.835909,215.269603 146.630817,216.079355 145.271405,216.656181 M159.136027,187.918934 C156.811386,185.576953 154.042854,183.700247 150.907303,182.344302 C147.768285,180.987201 144.391138,180.299403 140.869496,180.299403 C137.381955,180.299403 134.030818,180.977953 130.910295,182.318293 C127.794396,183.655742 125.02702,185.495458 122.683883,187.784843 C120.341323,190.074228 118.448433,192.806925 117.057231,195.906641 C115.66314,199.009824 114.939507,202.351714 114.904828,205.840411 L114.904828,242.124941 C114.904828,243.17629 115.107122,244.177354 115.505929,245.101547 C115.90358,246.024005 116.444571,246.838959 117.113296,247.524446 C117.783754,248.213978 118.575011,248.756702 119.464525,249.13817 C120.354038,249.51906 121.319268,249.712106 122.334204,249.712106 C123.384974,249.712106 124.360607,249.518482 125.233937,249.137014 C126.10669,248.754391 126.863846,248.209354 127.486332,247.515776 C128.101882,246.826822 128.588543,246.009556 128.932442,245.087097 C129.275185,244.165794 129.449157,243.168776 129.449157,242.124941 L129.449157,229.465988 C131.122414,230.28152 132.888726,230.924813 134.70879,231.379685 C136.68202,231.872703 138.754662,232.122969 140.869496,232.122969 C144.392872,232.122969 147.770597,231.434593 150.907303,230.07807 C154.041697,228.722125 156.809651,226.855245 159.13545,224.530025 C161.46067,222.205383 163.326394,219.446098 164.683495,216.329043 C166.040596,213.207943 166.728394,209.822126 166.728394,206.264072 C166.728394,202.705439 166.040596,199.310374 164.683495,196.17309 C163.32755,193.039274 161.461826,190.26265 159.136027,187.918934" id="Fill-7" fill="#FFFFFF" fill-rule="nonzero"></path>
            <path d="M214.254378,216.656181 C212.897856,217.233007 211.417067,217.526043 209.851892,217.526043 C208.320819,217.526043 206.848122,217.233007 205.474259,216.655603 C204.097507,216.078199 202.874498,215.268447 201.837599,214.248309 C200.8007,213.229328 199.973608,212.023658 199.378865,210.663668 C198.785278,209.306567 198.48415,207.826356 198.48415,206.264072 C198.48415,204.701787 198.785278,203.221576 199.378865,201.863897 C199.974186,200.50275 200.801856,199.296503 201.837599,198.278677 C202.872186,197.260274 204.095773,196.450521 205.474259,195.871384 C206.850434,195.29398 208.323131,195.000943 209.851892,195.000943 C211.414177,195.000943 212.894965,195.29398 214.254378,195.870806 C215.614947,196.449943 216.820617,197.259118 217.838442,198.276943 C218.856846,199.295347 219.675268,200.502172 220.271745,201.863897 C220.865332,203.222732 221.166461,204.702943 221.166461,206.264072 C221.166461,207.8252 220.865332,209.305411 220.271745,210.663668 C219.676424,212.024236 218.857424,213.231062 217.838442,214.250043 C216.818883,215.269603 215.613213,216.079355 214.254378,216.656181 M228.119001,187.918934 C225.793781,185.576953 223.025249,183.700247 219.889699,182.344302 C216.750103,180.987201 213.373534,180.299403 209.851892,180.299403 C206.363773,180.299403 203.013214,180.977953 199.892691,182.318293 C196.77737,183.655742 194.009416,185.495458 191.666279,187.784843 C189.323719,190.074228 187.430829,192.806925 186.039627,195.906641 C184.646114,199.009824 183.921903,202.351714 183.887224,205.840411 L183.887224,242.124941 C183.887224,243.17629 184.090095,244.177354 184.488325,245.101547 C184.885398,246.024005 185.426967,246.838959 186.095692,247.524446 C186.76615,248.213978 187.557985,248.756702 188.447499,249.13817 C189.335857,249.51906 190.302242,249.712106 191.3166,249.712106 C192.367948,249.712106 193.343003,249.518482 194.215756,249.137014 C195.089086,248.754391 195.846241,248.209354 196.46815,247.515776 C197.084278,246.826822 197.570939,246.009556 197.914838,245.087097 C198.257581,244.165794 198.431553,243.168776 198.431553,242.124941 L198.431553,229.465988 C200.10481,230.28152 201.8717,230.924813 203.691186,231.379685 C205.664416,231.872703 207.737635,232.122969 209.851892,232.122969 C213.375846,232.122969 216.752993,231.434593 219.889699,230.07807 C223.024094,228.722125 225.792625,226.855245 228.117846,224.530025 C230.442488,222.205383 232.309368,219.446098 233.665313,216.329043 C235.022992,213.207943 235.71079,209.822126 235.71079,206.264072 C235.71079,202.705439 235.022992,199.310374 233.665891,196.17309 C232.309946,193.039274 230.443644,190.26265 228.119001,187.918934" id="Fill-9" fill="#FFFFFF" fill-rule="nonzero"></path>
            <path d="M272.031676,195.870864 C273.392822,195.294038 274.860318,195.001001 276.392547,195.001001 C277.959455,195.001001 279.453538,195.294038 280.832602,195.871441 C282.212244,196.450001 283.430051,197.259175 284.449611,198.277579 C285.471483,199.295983 286.292216,200.502808 286.889271,201.863955 C287.484014,203.22279 287.786299,204.702423 287.786299,206.263551 C287.786299,207.825835 287.484014,209.305469 286.889271,210.663147 C286.292794,212.023716 285.47206,213.230542 284.449611,214.250101 C283.428317,215.269661 282.21051,216.079413 280.832602,216.655661 C279.45585,217.233064 277.962345,217.526101 276.392547,217.526101 C274.858006,217.526101 273.391089,217.233064 272.031676,216.656239 C270.668795,216.078257 269.45041,215.268505 268.411777,214.248367 C267.371988,213.227652 266.542584,212.021404 265.947841,210.663147 C265.35252,209.306047 265.051392,207.826413 265.051392,206.263551 C265.051392,204.701845 265.35252,203.221634 265.947841,201.864533 C266.54374,200.50512 267.371988,199.298872 268.411777,198.278735 C269.448098,197.260331 270.666483,196.450579 272.031676,195.870864 M294.738262,187.918992 C292.41362,185.576433 289.645088,183.700304 286.509537,182.34436 C283.370519,180.987259 279.974877,180.299461 276.419134,180.299461 C272.862235,180.299461 269.475263,180.987259 266.354162,182.344938 C263.237107,183.700304 260.469153,185.575855 258.126016,187.918414 C255.782878,190.26213 253.907328,193.039332 252.551961,196.17257 C251.19486,199.309276 250.507062,202.70434 250.507062,206.263551 C250.507062,209.82334 251.19486,213.209734 252.552539,216.329101 C253.908484,219.446156 255.783456,222.20544 258.126594,224.530661 C260.470309,226.856458 263.238263,228.722761 266.354162,230.07755 C269.472951,231.434651 272.859345,232.123027 276.419134,232.123027 C279.978345,232.123027 283.372831,231.434651 286.509537,230.078128 C289.643932,228.722183 292.411886,226.855302 294.737684,224.530082 C297.062904,222.20544 298.928629,219.446156 300.285729,216.329101 C301.642252,213.208001 302.330629,209.822184 302.330629,206.263551 C302.330629,202.705496 301.642252,199.310432 300.285729,196.17257 C298.929785,193.039332 297.06406,190.262708 294.738262,187.918992" id="Fill-11" fill="#FFFFFF" fill-rule="nonzero"></path>
            <path d="M346.76626,180.299229 L346.28827,180.299229 C342.694958,180.370321 339.2577,181.111294 336.07071,182.502496 C332.883143,183.894275 330.044675,185.803926 327.63507,188.179431 C325.223153,190.556669 323.268417,193.367394 321.825774,196.535311 C320.381398,199.705541 319.594768,203.135283 319.489573,206.728017 L319.489573,224.37842 C319.489573,225.396824 319.692446,226.356273 320.093564,227.228447 C320.492373,228.100622 321.035096,228.863557 321.70671,229.497603 C322.378325,230.133961 323.177096,230.639117 324.081637,230.999778 C324.986178,231.362172 325.941583,231.545392 326.918949,231.545392 C327.898051,231.545392 328.828602,231.361016 329.683436,230.997466 C330.534226,230.636227 331.297159,230.130493 331.951436,229.494713 C332.606289,228.858356 333.123003,228.09253 333.486554,227.219778 C333.849528,226.347025 334.033904,225.391044 334.033904,224.37842 L334.033904,207.319292 C334.067426,205.58188 334.430398,203.932898 335.111261,202.418008 C335.794436,200.899072 336.718627,199.559311 337.859563,198.436293 C338.999343,197.312696 340.347773,196.414513 341.865553,195.766018 C343.380445,195.119256 345.011509,194.790963 346.713665,194.790963 C347.727445,194.790963 348.707699,194.607742 349.628426,194.246504 C350.551461,193.885265 351.360636,193.369706 352.034562,192.713697 C352.703865,192.062889 353.246011,191.291862 353.644241,190.422 C354.045938,189.546935 354.248811,188.570725 354.248811,187.518798 C354.248811,185.457137 353.594537,183.728973 352.303903,182.382853 C351.011537,181.036156 349.149279,180.335064 346.76626,180.299229" id="Fill-13" fill="#FFFFFF" fill-rule="nonzero"></path>
            <path d="M403.36615,200.566386 L382.190639,200.566386 C383.105005,198.806432 384.415868,197.31524 386.092014,196.129221 C387.88896,194.85824 390.09338,194.21379 392.64575,194.21379 C395.132804,194.21379 397.358609,194.833964 399.262482,196.05813 C401.037463,197.199065 402.41595,198.713955 403.36615,200.566386 M410.621555,187.759469 C408.276682,185.451011 405.50815,183.611295 402.393408,182.291185 C399.273463,180.969341 395.905565,180.299461 392.383345,180.299461 C388.825868,180.299461 385.422135,180.978011 382.268088,182.317773 C379.11462,183.656378 376.319502,185.523258 373.96018,187.86524 C371.600282,190.2078 369.707391,192.984423 368.333528,196.119396 C366.958512,199.256102 366.261464,202.669661 366.261464,206.263551 C366.261464,209.82334 366.958512,213.209734 368.333528,216.330257 C369.70797,219.448468 371.601439,222.207174 373.961337,224.531817 C376.321235,226.856458 379.115776,228.723339 382.266932,230.078128 C385.419244,231.434651 388.823556,232.123027 392.383345,232.123027 C395.15939,232.123027 397.610033,231.882009 399.668224,231.40633 C401.73451,230.929495 403.482905,230.283312 404.866593,229.485119 C406.267619,228.677101 407.325905,227.707825 408.013125,226.605037 C408.703233,225.494734 409.054067,224.304092 409.054067,223.065477 C409.054067,222.089266 408.870271,221.135018 408.507876,220.227587 C408.146638,219.324202 407.641481,218.517917 407.008593,217.828963 C406.372813,217.140009 405.617969,216.588037 404.766023,216.187496 C403.356905,215.529753 401.705033,215.373698 399.891905,215.882899 C399.185033,216.082303 398.460243,216.421578 397.751058,216.88223 C397.11239,217.253294 396.384135,217.552688 395.587673,217.772899 C394.796995,217.991954 393.719059,218.103505 392.383345,218.103505 C390.310126,218.103505 388.380823,217.586789 386.649189,216.568386 C385.058584,215.632633 383.724024,214.366854 382.673253,212.800523 L411.285077,212.800523 C413.382574,212.800523 415.118828,212.164166 416.445876,210.909946 C417.777545,209.651679 418.453207,207.964551 418.453207,205.890175 C418.381535,202.367377 417.639984,199.008726 416.248207,195.90612 C414.855847,192.805827 412.962959,190.065038 410.621555,187.759469" id="Fill-15" fill="#FFFFFF" fill-rule="nonzero"></path>
            <path d="M461.418279,219.349113 C460.797527,218.692526 460.030547,218.174654 459.138142,217.809948 C458.24805,217.447554 457.283977,217.263755 456.272509,217.263755 C455.110767,217.263755 454.185416,217.03314 453.521318,216.578269 C452.874553,216.137269 452.529499,215.470278 452.466499,214.559379 L452.466499,169.404565 C452.466499,168.387895 452.26305,167.429024 451.861932,166.553959 C451.462547,165.683519 450.911729,164.911914 450.223353,164.259372 C449.53671,163.609143 448.730426,163.08607 447.825308,162.705758 C446.042235,161.956694 443.890407,161.931262 442.185939,162.709226 C441.349602,163.091272 440.605162,163.615501 439.97285,164.267464 C439.33707,164.920583 438.830758,165.693345 438.468363,166.563207 C438.105392,167.434804 437.921592,168.390207 437.921592,169.404565 L437.921592,214.244379 C437.921592,216.796746 438.416344,219.160691 439.391977,221.270324 C440.366455,223.379379 441.705637,225.220828 443.370802,226.744388 C445.036547,228.268525 447.00284,229.462635 449.214197,230.293195 C451.422665,231.123755 453.797012,231.545681 456.272509,231.545681 C457.285709,231.545681 458.249782,231.361305 459.138142,230.998911 C460.025922,230.637094 460.791168,230.139452 461.412499,229.518122 C462.032094,228.897947 462.530317,228.142525 462.892709,227.272085 C463.25626,226.398177 463.440059,225.442195 463.440059,224.430727 C463.440059,223.453939 463.25626,222.515874 462.892709,221.641966 C462.53147,220.774416 462.034986,220.003388 461.418279,219.349113" id="Fill-17" fill="#FFFFFF" fill-rule="nonzero"></path>
            <path d="M505.302575,219.349113 C504.681823,218.692526 503.914839,218.174654 503.022438,217.809948 C502.132345,217.447554 501.168272,217.263755 500.156804,217.263755 C498.995062,217.263755 498.069712,217.03314 497.40561,216.578269 C496.758849,216.137269 496.413795,215.470278 496.350795,214.559379 L496.350795,169.404565 C496.350795,168.387895 496.147346,167.429024 495.746225,166.553959 C495.346839,165.683519 494.796024,164.911914 494.107648,164.259372 C493.421005,163.609143 492.614722,163.08607 491.709604,162.705758 C489.926531,161.956694 487.775282,161.931262 486.070235,162.709226 C485.233897,163.091272 484.489454,163.615501 483.857146,164.267464 C483.221365,164.920583 482.715053,165.693345 482.352658,166.563207 C481.989687,167.434804 481.805888,168.390207 481.805888,169.404565 L481.805888,214.244379 C481.805888,216.796746 482.300639,219.160691 483.276273,221.270324 C484.250751,223.379379 485.589932,225.220828 487.255098,226.744388 C488.92084,228.268525 490.887136,229.462635 493.098492,230.293195 C495.30696,231.123755 497.681307,231.545681 500.156804,231.545681 C501.170005,231.545681 502.134078,231.361305 503.022438,230.998911 C503.910218,230.637094 504.675463,230.139452 505.296794,229.518122 C505.91639,228.897947 506.41461,228.142525 506.777004,227.272085 C507.140555,226.398177 507.324355,225.442195 507.324355,224.430727 C507.324355,223.453939 507.140555,222.515874 506.777004,221.641966 C506.415766,220.774416 505.919281,220.003388 505.302575,219.349113" id="Fill-19" fill="#FFFFFF" fill-rule="nonzero"></path>
            <path d="M542.542276,195.870864 C543.903422,195.294038 545.371499,195.001001 546.903148,195.001001 C548.470056,195.001001 549.963562,195.294038 551.343202,195.871441 C552.722846,196.450001 553.940651,197.259175 554.960212,198.277579 C555.982084,199.295983 556.802817,200.502808 557.399874,201.863955 C557.994616,203.22279 558.296899,204.702423 558.296899,206.263551 C558.296899,207.825835 557.994616,209.305469 557.399874,210.663147 C556.803396,212.023716 555.982661,213.230542 554.960212,214.250101 C553.938342,215.269661 552.721113,216.079413 551.343202,216.655661 C549.966451,217.233064 548.472368,217.526101 546.903148,217.526101 C545.368607,217.526101 543.90169,217.233064 542.542276,216.656239 C541.179397,216.078257 539.961012,215.268505 538.922378,214.248367 C537.882012,213.227652 537.053764,212.021404 536.458442,210.663147 C535.86312,209.306047 535.561993,207.826413 535.561993,206.263551 C535.561993,204.701845 535.86312,203.221634 536.458442,201.864533 C537.054343,200.50512 537.883168,199.298872 538.922378,198.278735 C539.959276,197.260331 541.177085,196.450579 542.542276,195.870864 M570.796332,196.17257 C569.440386,193.039332 567.574084,190.262708 565.248864,187.918992 C562.924221,185.576433 560.155689,183.700304 557.020138,182.34436 C553.880543,180.987259 550.486056,180.299461 546.929734,180.299461 C543.372836,180.299461 539.985865,180.987259 536.864764,182.344938 C533.74771,183.700304 530.979754,185.575855 528.636617,187.918414 C526.293481,190.26213 524.41793,193.039332 523.062563,196.17257 C521.705462,199.309276 521.017662,202.70434 521.017662,206.263551 C521.017662,209.82334 521.705462,213.209734 523.062563,216.329101 C524.419086,219.446156 526.294637,222.20544 528.637194,224.530661 C530.98091,226.856458 533.748866,228.722761 536.864764,230.07755 C539.982974,231.434651 543.369948,232.123027 546.929734,232.123027 C550.488368,232.123027 553.883432,231.434651 557.020138,230.078128 C560.154533,228.722183 562.923065,226.855302 565.248285,224.530082 C567.573504,222.20544 569.43923,219.446156 570.796332,216.329101 C572.152854,213.208001 572.84123,209.822184 572.84123,206.263551 C572.84123,202.705496 572.152854,199.310432 570.796332,196.17257" id="Fill-21" fill="#FFFFFF" fill-rule="nonzero"></path>
            <g id="Group-25" transform="translate(0.000000, 0.024274)" fill="#FFFFFF" fill-rule="nonzero">
                <g id="Fill-23-Clipped">
                    <g id="Combined-Shape">
                        <path d="M194.644329,2.56305952 C207.800925,-3.08035307 222.806484,3.99414202 231.840914,13.5094535 C240.799051,22.9438476 243.724794,34.1711408 239.47663,42.8090761 C238.605033,44.5817457 237.49762,46.3162686 236.167107,47.999351 C243.718437,50.7123967 254.890244,53.3497269 270.244325,53.7109654 C293.316774,54.25658 319.864049,49.5460299 349.142286,39.7191864 C370.838559,31.0985903 390.61709,25.5060401 409.608411,22.6224898 C452.720062,16.074536 492.93949,24.0183154 522.848304,44.9909566 C532.877443,52.0232591 541.68357,60.7426899 549.02336,70.9076528 C550.656735,73.1704508 552.216707,75.5078084 553.669175,77.8659735 C554.508404,78.5104232 555.229726,79.2808725 555.821579,80.1651846 C563.306442,91.3485509 576.827164,101.833715 598.727466,88.2679087 C600.947494,86.8928906 603.571529,86.465762 606.110602,87.062239 C608.651988,87.6598721 610.80786,89.2111749 612.181723,91.4300462 C613.556742,93.6494957 613.984446,96.2706424 613.387392,98.8120277 C612.790338,101.353413 611.239035,103.509862 609.020163,104.884303 C599.093905,111.032871 589.182676,114.149926 579.561597,114.149926 C575.405906,114.149926 571.330559,113.565587 567.379477,112.407889 C568.992047,120.549338 569.519165,128.692522 568.945808,136.699879 C568.581677,141.789007 564.29999,145.775347 559.198146,145.775347 L559.198146,145.775347 L11.8634197,145.775347 C7.51757581,145.775347 3.65145671,142.855383 2.46370447,138.674264 C-3.66058881,117.127687 1.85740175,92.8339636 16.5213735,76.782836 C35.0144736,56.5413414 66.4769034,50.2482777 91.3335812,61.8206255 C93.5131499,62.8349835 95.6146912,63.9481761 97.6468745,65.0243779 C103.20359,67.9663042 108.419296,70.7279006 112.416617,69.9383777 C117.019084,69.0297905 120.876534,63.2725156 124.960552,57.1771213 C126.569075,54.7767634 128.222102,52.3099381 130.039855,49.9494611 C141.453258,35.1253882 159.851569,26.264352 178.771797,26.264352 L178.771797,26.264352 L178.804164,26.264352 C179.911577,14.9873525 185.556146,6.4609676 194.644329,2.56305952 Z M54.6138883,76.3021299 C43.9703566,73.4914051 35.3763481,82.7113681 36.3652745,92.8659272 C36.3404213,93.1185052 36.3554487,93.3890007 36.4369442,93.6814593 C36.4716232,93.913808 36.5409808,94.1074319 36.6247881,94.2854501 C37.8703387,98.0764317 40.5423478,100.753642 44.869118,100.534587 C48.0884758,100.371019 50.8101913,98.5833215 53.0128791,96.3453767 C55.8357414,93.4768539 60.3278148,89.5107439 61.3173192,85.3891568 C62.4201083,80.7930472 58.7551266,77.3962492 54.6138883,76.3021299 Z M149.924099,66.2775587 C148.756576,67.7080634 148.217319,69.507898 148.404007,71.3447237 C148.590695,73.1809714 149.481943,74.8351548 150.912447,76.0009436 C152.341218,77.1678884 154.138741,77.7071454 155.977878,77.5210352 C157.815282,77.3343473 159.468887,76.4436776 160.635254,75.0131729 C163.33674,71.7007603 166.171162,70.0777881 169.053557,70.1789346 C172.910428,70.3228521 176.283529,73.2376134 178.155611,75.9171362 C179.446822,77.7678336 181.566859,78.8723565 183.825611,78.8723565 C185.244556,78.8723565 186.611482,78.442338 187.777849,77.6273839 L187.778427,77.6273839 C189.291583,76.5702556 190.303051,74.987164 190.626143,73.1699896 C190.948657,71.3522374 190.544647,69.5177238 189.487519,68.0045678 C184.59606,61.0000086 177.149923,56.6489629 169.565648,56.3663298 C164.434905,56.1802196 156.874328,57.7529078 149.924099,66.2775587 Z"></path>
                    </g>
                </g>
            </g>
            <g id="Group-32" transform="translate(0.000000, 0.024274)">
                <g id="Fill-30-Clipped">
                    <g></g>
                </g>
            </g>
        </g>
    </g>
</svg>