<?xml version="1.0" encoding="UTF-8"?>
<svg width="16px" height="20px" viewBox="0 0 16 20" version="1.1" xmlns="http://www.w3.org/2000/svg" xmlns:xlink="http://www.w3.org/1999/xlink">
    <!-- Generator: Sketch 64 (93537) - https://sketch.com -->
    <title>padlock</title>
    <desc>Created with Sketch.</desc>
    <g id="Illustrations" stroke="none" stroke-width="1" fill="none" fill-rule="evenodd">
        <g id="Artboard" transform="translate(-782.000000, -324.000000)">
            <g id="Group" transform="translate(779.000000, 242.000000)">
                <g id="padlock" transform="translate(3.000000, 82.000000)">
                    <path d="M13,7 L13,5 C13,2.23857625 10.7614237,8.8817842e-16 8,8.8817842e-16 C5.23857625,8.8817842e-16 3,2.23857625 3,5 L3,7 C1.34314575,7 1.77635684e-15,8.34314575 1.77635684e-15,10 L1.77635684e-15,17 C1.77635684e-15,18.6568542 1.34314575,20 3,20 L13,20 C14.6568542,20 16,18.6568542 16,17 L16,10 C16,8.34314575 14.6568542,7 13,7 Z M5,5 C5,3.34314575 6.34314575,2 8,2 C9.65685425,2 11,3.34314575 11,5 L11,7 L5,7 L5,5 Z" id="Shape" fill="#334AC0" fill-rule="nonzero"></path>
                    <path d="M13,9 C13.5522847,9 14,9.44771525 14,10 L14,17 C14,17.5522847 13.5522847,18 13,18 L3,18 C2.44771525,18 2,17.5522847 2,17 L2,10 C2,9.44771525 2.44771525,9 3,9 L13,9 Z M8,11 C7.3764518,10.9927112 6.8143219,11.3744932 6.59121356,11.956806 C6.36810522,12.5391187 6.53121801,13.1987714 7,13.61 L7,15 C7,15.5522847 7.44771525,16 8,16 C8.55228475,16 9,15.5522847 9,15 L9,13.61 C9.46878199,13.1987714 9.63189478,12.5391187 9.40878644,11.956806 C9.1856781,11.3744932 8.6235482,10.9927112 8,11 Z" id="Combined-Shape" fill="#A6B1E7"></path>
                </g>
            </g>
        </g>
    </g>
</svg>