<?xml version="1.0" encoding="UTF-8"?>
<svg width="22px" height="23px" viewBox="0 0 22 23" version="1.1" xmlns="http://www.w3.org/2000/svg" xmlns:xlink="http://www.w3.org/1999/xlink">
    <!-- Generator: Sketch 64 (93537) - https://sketch.com -->
    <title>palette</title>
    <desc>Created with Sketch.</desc>
    <g id="Illustrations" stroke="none" stroke-width="1" fill="none" fill-rule="evenodd">
        <g id="Artboard" transform="translate(-781.000000, -687.000000)">
            <g id="palette" transform="translate(781.000000, 687.000000)">
                <path d="M21.21,6.1 C18.6711649,1.02458975 12.6879746,-1.2863818 7.39659235,0.764653713 C2.10521008,2.81568922 -0.757373479,8.55544276 0.787737897,14.0160383 C2.33284927,19.4766339 7.77844519,22.8655334 13.36,21.84 C14.3810311,21.6478753 15.281932,21.0532807 15.86,20.19 C16.4828706,19.2514856 16.7026571,18.1021106 16.47,17 C16.4070283,16.6702989 16.3735627,16.335642 16.37,16 C16.3789485,14.020089 17.5553542,12.2319523 19.37,11.44 C20.3378976,11.00663 21.0834822,10.1922778 21.43,9.19 C21.7803258,8.16624748 21.7009556,7.04424066 21.21,6.08 L21.21,6.1 Z" id="Shape" fill="#334AC0" fill-rule="nonzero"></path>
                <path d="M11.36,2 C14.7781669,2.00085754 17.9008148,3.93798405 19.42,7 C19.6492414,7.47498119 19.6815884,8.02128547 19.51,8.52 L19.51,8.54 C19.3375938,9.0234997 18.976889,9.41666792 18.51,9.63 C15.9975791,10.754644 14.3775093,13.2473601 14.37,16 C14.3714809,16.4700858 14.4183652,16.9389296 14.51,17.4 C14.6333833,17.9693003 14.5215952,18.5643017 14.2,19.05 C13.9276268,19.4754644 13.4881522,19.7660262 12.99,19.85 C12.4558545,19.9503759 11.9134946,20.0005944 11.37,20 C8.93373694,20.0011793 6.60107388,19.0146287 4.90496157,17.2657485 C3.20884926,15.5168682 2.29420485,13.155084 2.37,10.72 C2.5308059,6.06390772 6.20020718,2.29065546 10.85,2 L11.36,2 Z M11.37,15.9999992 L11.37,16.05 C10.8177153,16.05 10.37,16.4977153 10.37,17.05 C10.37,17.6022847 10.8177153,18.05 11.37,18.05 C11.9222847,18.05 12.37,17.6022847 12.37,17.05 C12.3837058,16.7762314 12.2844311,16.5088386 12.0953888,16.310344 C11.9063464,16.1118495 11.6441113,15.9996571 11.37,15.9999992 Z M7.13,14.2442017 C6.86336246,14.2442017 6.6077666,14.3506873 6.42,14.54 C6.03227641,14.9300375 6.03227641,15.5599625 6.42,15.95 C6.6077666,16.1393127 6.86336246,16.2457983 7.13,16.2457983 C7.39663754,16.2457983 7.6522334,16.1393127 7.84,15.95 C8.22772359,15.5599625 8.22772359,14.9300375 7.84,14.54 C7.6522334,14.3506873 7.39663754,14.2442017 7.13,14.2442017 Z M5.37,9.99999922 L5.37,10.05 C4.81771525,10.05 4.37,10.4977153 4.37,11.05 C4.37,11.6022847 4.81771525,12.05 5.37,12.05 C5.92228475,12.05 6.37,11.6022847 6.37,11.05 C6.38370579,10.7762314 6.28443115,10.5088386 6.09538875,10.310344 C5.90634636,10.1118495 5.64411126,9.99965714 5.37,9.99999922 Z M11.37,10 C10.8177153,10 10.37,10.4477153 10.37,11 C10.37,11.5522847 10.8177153,12 11.37,12 C11.9222847,12 12.37,11.5522847 12.37,11 C12.37,10.4477153 11.9222847,10 11.37,10 Z M14.91,6.05 L14.91,6.1 C14.6227684,6.38552766 14.5361208,6.81611121 14.6905522,7.19051603 C14.8449837,7.56492086 15.2099962,7.8092073 15.615,7.8092073 C16.0200038,7.8092073 16.3850163,7.56492086 16.5394478,7.19051603 C16.6938792,6.81611121 16.6072316,6.38552766 16.32,6.1 C15.9438657,5.69810654 15.3136568,5.67575871 14.91,6.05 Z M7.13,5.75420168 C6.86336246,5.75420168 6.6077666,5.86068735 6.42,6.05 C6.03227641,6.44003745 6.03227641,7.06996255 6.42,7.46 C6.6077666,7.64931265 6.86336246,7.75579832 7.13,7.75579832 C7.39663754,7.75579832 7.6522334,7.64931265 7.84,7.46 C8.22772359,7.06996255 8.22772359,6.44003745 7.84,6.05 C7.6522334,5.86068735 7.39663754,5.75420168 7.13,5.75420168 Z M11.37,3.99999922 L11.37,4.05 C10.8177153,4.05 10.37,4.49771525 10.37,5.05 C10.37,5.60228475 10.8177153,6.05 11.37,6.05 C11.9222847,6.05 12.37,5.60228475 12.37,5.05 C12.3837058,4.77623139 12.2844311,4.50883856 12.0953888,4.31034405 C11.9063464,4.11184953 11.6441113,3.99965714 11.37,3.99999922 Z" id="Combined-Shape" fill="#A6B1E7"></path>
            </g>
        </g>
    </g>
</svg>