<?xml version="1.0" encoding="UTF-8"?>
<svg width="22px" height="20px" viewBox="0 0 22 20" version="1.1" xmlns="http://www.w3.org/2000/svg" xmlns:xlink="http://www.w3.org/1999/xlink">
    <!-- Generator: Sketch 64 (93537) - https://sketch.com -->
    <title>robot</title>
    <desc>Created with Sketch.</desc>
    <g id="Illustrations" stroke="none" stroke-width="1" fill="none" fill-rule="evenodd">
        <g id="Artboard" transform="translate(-779.000000, -444.000000)">
            <g id="Group" transform="translate(779.000000, 242.000000)">
                <g id="robot" transform="translate(0.000000, 202.000000)">
                    <path d="M1,12 C0.44771525,12 0,12.4477153 0,13 L0,15 C0,15.5522847 0.44771525,16 1,16 C1.55228475,16 2,15.5522847 2,15 L2,13 C2,12.4477153 1.55228475,12 1,12 Z M21,12 C20.4477153,12 20,12.4477153 20,13 L20,15 C20,15.5522847 20.4477153,16 21,16 C21.5522847,16 22,15.5522847 22,15 L22,13 C22,12.4477153 21.5522847,12 21,12 Z M16,5 L12,5 L12,3.72 C12.6150891,3.36489541 12.9957131,2.71022212 13,2 C13,0.8954305 12.1045695,0 11,0 C9.8954305,0 9,0.8954305 9,2 C9.00428692,2.71022212 9.38491093,3.36489541 10,3.72 L10,5 L6,5 C4.34314575,5 3,6.34314575 3,8 L3,17 C3,18.6568542 4.34314575,20 6,20 L16,20 C17.6568542,20 19,18.6568542 19,17 L19,8 C19,6.34314575 17.6568542,5 16,5 Z" id="Shape" fill="#334AC0" fill-rule="nonzero"></path>
                    <polygon id="Path" fill="#A6B1E7" points="12.72 7 12.22 9 9.78 9 9.28 7"></polygon>
                    <path d="M7.22,7 L8,10.24 C8.11281553,10.6971833 8.52930282,11.0137136 9,11 L13,11 C13.4706972,11.0137136 13.8871845,10.6971833 14,10.24 L14.78,7 L16,7 C16.5522847,7 17,7.44771525 17,8 L17,17 C17,17.5522847 16.5522847,18 16,18 L6,18 C5.44771525,18 5,17.5522847 5,17 L5,8 C5,7.44771525 5.44771525,7 6,7 L7.22,7 Z M8,13 C7.44771525,13 7,13.4477153 7,14 C7,14.5522847 7.44771525,15 8,15 C8.55228475,15 9,14.5522847 9,14 C9,13.4477153 8.55228475,13 8,13 Z M14,13 C13.4477153,13 13,13.4477153 13,14 C13,14.5522847 13.4477153,15 14,15 C14.5522847,15 15,14.5522847 15,14 C15,13.4477153 14.5522847,13 14,13 Z" id="Combined-Shape" fill="#A6B1E7"></path>
                </g>
            </g>
        </g>
    </g>
</svg>