<?xml version="1.0" encoding="UTF-8"?>
<svg width="700px" height="451px" viewBox="0 0 700 451" version="1.1" xmlns="http://www.w3.org/2000/svg" xmlns:xlink="http://www.w3.org/1999/xlink">
    <!-- Generator: Sketch 64 (93537) - https://sketch.com -->
    <title>Artboard</title>
    <desc>Created with Sketch.</desc>
    <defs>
        <rect id="path-1" x="0" y="0" width="422" height="422" rx="211"></rect>
    </defs>
    <g id="Artboard" stroke="none" stroke-width="1" fill="none" fill-rule="evenodd">
        <g id="Group" transform="translate(139.000000, 15.000000)">
            <mask id="mask-2" fill="white">
                <use xlink:href="#path-1"></use>
            </mask>
            <rect stroke="#334AC0" stroke-width="23.078125" x="11.5390625" y="11.5390625" width="398.921875" height="398.921875" rx="199.460938"></rect>
            <path d="M338.647612,116.804669 C349.885539,128.638319 353.555865,142.720819 348.226569,153.555463 C347.133156,155.77894 345.743914,157.954568 344.074793,160.065674 C353.547889,163.468673 367.56285,166.776701 386.824449,167.229806 C415.768691,167.914176 449.07208,162.005688 485.801444,149.679785 C513.019282,138.86689 537.831324,131.852102 561.655817,128.235237 C615.739111,120.022077 666.194131,129.986034 703.714549,156.292217 C716.296042,165.1129 727.343273,176.049765 736.550992,188.799774 C738.600052,191.638023 740.557026,194.569793 742.379138,197.527662 C743.431946,198.336001 744.336839,199.302383 745.079316,200.411584 C754.469029,214.438986 771.43069,227.590627 798.90448,210.574908 C801.689492,208.850209 804.981327,208.314458 808.166579,209.062625 C811.354731,209.812241 814.059259,211.758055 815.782761,214.541206 C817.507714,217.325083 818.044266,220.612812 817.295265,223.800496 C816.546265,226.988179 814.600165,229.693034 811.816604,231.417008 C799.364176,239.129215 786.930602,243.038967 774.861019,243.038967 C769.647731,243.038967 764.535234,242.306024 759.578626,240.853914 C761.601584,251.06581 762.26285,261.279882 761.543578,271.323587 C761.094029,277.605605 755.884709,282.547949 749.619177,282.703266 L749.315198,282.707031 L62.6872303,282.707031 C57.2353966,282.707031 52.3853745,279.044494 50.8953468,273.800077 C43.2124595,246.774001 50.1347439,216.302153 68.5306041,196.169072 C91.7300817,170.779974 131.199502,162.886524 162.382048,177.40183 C165.116303,178.674149 167.752673,180.070437 170.302034,181.420327 C177.272899,185.110413 183.815969,188.574309 188.830583,187.584003 C194.60435,186.444354 199.443496,179.222949 204.566871,171.577438 C206.584753,168.566647 208.658465,165.472484 210.938824,162.511716 C225.113686,144.103681 247.876696,133.026297 271.360884,132.80659 L272.072739,132.803259 L272.113343,132.803259 C273.502586,118.658412 280.583661,107.963687 291.98473,103.074504 C308.489596,95.9959179 327.313975,104.869524 338.647612,116.804669 Z M116.317424,195.566118 C102.965181,192.040599 92.1840509,203.605286 93.4246529,216.342246 C93.3934747,216.659057 93.4123265,216.998342 93.5145621,217.365175 C93.5580667,217.656613 93.6450754,217.899477 93.7502112,218.122767 C95.3127465,222.877831 98.6647651,226.235882 104.092671,225.961119 C108.131335,225.755953 111.54571,223.513628 114.308968,220.706552 C117.850231,217.108537 123.485509,212.133808 124.726836,206.964062 C126.110278,201.199118 121.512581,196.938482 116.317424,195.566118 Z M259.747453,170.543524 L259.482621,170.542879 C253.09093,170.558816 244.143605,172.862419 235.883483,182.992203 C234.418833,184.786499 233.742338,187.044049 233.976537,189.347996 C234.210736,191.651219 235.328801,193.726077 237.12336,195.188337 C238.580271,196.378091 240.342819,197.047666 242.190609,197.131264 L242.538015,197.140056 L242.850281,197.136202 C243.058854,197.129927 243.268167,197.116224 243.477911,197.095002 C245.782922,196.860838 247.85736,195.743663 249.32056,193.949367 C252.5159,190.031993 255.859493,187.998439 259.262,187.885163 L259.571479,187.880157 L259.881267,187.885736 L260.225819,187.90449 C264.920122,188.240182 269.007139,191.802289 271.299737,195.083217 C272.861703,197.321659 275.390483,198.689826 278.109822,198.784697 L278.412716,198.789978 L278.759263,198.783144 L278.821947,198.780443 L278.999103,198.770368 L278.999103,198.770368 L279.107857,198.762387 L279.203687,198.753688 L279.175999,198.756688 L279.216687,198.752688 L279.235687,198.750688 L279.223687,198.751688 L279.307687,198.742688 L279.412687,198.731688 L279.492687,198.721688 L279.553687,198.714688 L279.564687,198.712688 L279.559973,198.714417 L279.565687,198.712688 L279.607289,198.708004 L279.709687,198.692688 L279.738687,198.688688 L279.750911,198.686902 L279.910687,198.659688 L279.940945,198.655167 L279.933687,198.655688 L279.975687,198.647688 L280.097717,198.62568 L280.204687,198.602688 L280.111361,198.622971 L280.210687,198.601688 L280.269687,198.588688 L280.414687,198.555688 L280.280687,198.586688 L280.419112,198.555722 L280.583571,198.514892 L280.449715,198.548385 L280.608597,198.508376 L280.608597,198.508376 L280.74761,198.470705 L280.910713,198.423285 L280.779687,198.460688 L280.935385,198.415806 L281.064687,198.374688 L281.021687,198.387688 L281.076023,198.371616 L281.240281,198.31661 L281.268819,198.306676 L281.288687,198.298688 L281.390748,198.262953 L281.433435,198.247153 L281.556687,198.198688 L281.721687,198.132688 L281.733687,198.127688 L281.85576,198.076676 L281.823687,198.089688 L281.923312,198.04696 C281.973211,198.024754 282.022924,198.002062 282.072444,197.978887 L282.016687,198.003688 L282.006687,198.007688 L282.031687,197.996688 L282.127687,197.951688 L282.216687,197.908688 L282.331687,197.851688 L282.360078,197.837716 L282.348687,197.842688 L282.418687,197.806688 L282.431687,197.799688 L282.496687,197.765688 L282.783112,197.605192 L283.074835,197.426383 L283.370774,197.228397 L283.626428,197.043528 C285.383313,195.721307 286.557047,193.813139 286.94394,191.637445 C287.348532,189.357421 286.841705,187.056373 285.515544,185.158407 C279.37924,176.372522 270.038108,170.914965 260.523683,170.560455 L260.139042,170.549261 L260.139042,170.549261 L259.747453,170.543524 Z" id="Combined-Shape" fill="#334AC0" fill-rule="nonzero" mask="url(#mask-2)"></path>
        </g>
    </g>
</svg>