<?xml version="1.0" encoding="UTF-8"?>
<svg width="20px" height="20px" viewBox="0 0 20 20" version="1.1" xmlns="http://www.w3.org/2000/svg" xmlns:xlink="http://www.w3.org/1999/xlink">
    <!-- Generator: Sketch 64 (93537) - https://sketch.com -->
    <title>search-alt</title>
    <desc>Created with Sketch.</desc>
    <g id="Illustrations" stroke="none" stroke-width="1" fill="none" fill-rule="evenodd">
        <g id="Artboard" transform="translate(-780.000000, -484.000000)">
            <g id="Group" transform="translate(779.000000, 242.000000)">
                <g id="search-alt" transform="translate(1.000000, 242.000000)">
                    <path d="M19.07,14.83 L17,12.71 C16.0891025,11.8441206 14.7434823,11.6185313 13.6,12.14 L12.7,11.24 C14.9002388,8.30010279 14.454732,4.15972601 11.6794302,1.75519972 C8.90412849,-0.649326574 4.74251005,-0.500571204 2.14596942,2.09596942 C-0.450571204,4.69251005 -0.599326574,8.85412849 1.80519972,11.6294302 C4.20972601,14.404732 8.35010279,14.8502388 11.29,12.65 L12.18,13.54 C11.5957793,14.6875529 11.8090643,16.0799422 12.71,17 L14.83,19.12 C16.0012702,20.2898135 17.8987298,20.2898135 19.07,19.12 C19.6472382,18.5555786 19.9726266,17.7823261 19.9726266,16.975 C19.9726266,16.1676739 19.6472382,15.3944214 19.07,14.83 Z" id="Shape" fill="#334AC0" fill-rule="nonzero"></path>
                    <path d="M10.59,10.59 C8.63607683,12.5389899 5.4725503,12.5363241 3.5219146,10.584044 C1.57127891,8.63176383 1.57127891,5.46823617 3.5219146,3.51595605 C5.4725503,1.56367593 8.63607683,1.56101012 10.59,3.51 C11.530417,4.44804263 12.0589378,5.72172739 12.0589378,7.04999999 C12.0589378,8.37827261 11.530417,9.65195737 10.59,10.59 L10.59,10.59 Z" id="Path" fill="#A6B1E7"></path>
                    <path d="M17.66,17.66 C17.4722334,17.8493127 17.2166375,17.9557983 16.95,17.9557983 C16.6833625,17.9557983 16.4277666,17.8493127 16.24,17.66 L14.12,15.54 C13.9306873,15.3522334 13.8242017,15.0966375 13.8242017,14.83 C13.8242017,14.5633625 13.9306873,14.3077666 14.12,14.12 C14.3077666,13.9306873 14.5633625,13.8242017 14.83,13.8242017 C15.0966375,13.8242017 15.3522334,13.9306873 15.54,14.12 L17.66,16.24 C17.8493127,16.4277666 17.9557983,16.6833625 17.9557983,16.95 C17.9557983,17.2166375 17.8493127,17.4722334 17.66,17.66 L17.66,17.66 Z" id="Path" fill="#A6B1E7"></path>
                </g>
            </g>
        </g>
    </g>
</svg>