<?xml version="1.0" encoding="UTF-8"?>
<svg width="480px" height="300px" viewBox="0 0 480 300" version="1.1" xmlns="http://www.w3.org/2000/svg" xmlns:xlink="http://www.w3.org/1999/xlink">
    <!-- Generator: Sketch 64 (93537) - https://sketch.com -->
    <title>use-cases-2</title>
    <desc>Created with Sketch.</desc>
    <defs>
        <polygon id="path-1" points="0 0.9303 254.6577 0.9303 254.6577 19 0 19"></polygon>
        <polygon id="path-3" points="0.6147 0.101 26.6097349 0.101 26.6097349 23.8275 0.6147 23.8275"></polygon>
    </defs>
    <g id="use-cases-2" stroke="none" stroke-width="1" fill="none" fill-rule="evenodd">
        <g id="Group-93" transform="translate(99.000000, 34.000000)">
            <g id="Group-3" transform="translate(0.000000, 213.899000)">
                <mask id="mask-2" fill="white">
                    <use xlink:href="#path-1"></use>
                </mask>
                <g id="Clip-2"></g>
                <path d="M254.6577,9.9653 C254.6577,14.9553 197.6507,19.0003 127.3287,19.0003 C57.0077,19.0003 -0.0003,14.9553 -0.0003,9.9653 C-0.0003,4.9753 57.0077,0.9303 127.3287,0.9303 C197.6507,0.9303 254.6577,4.9753 254.6577,9.9653" id="Fill-1" fill="#E8E8E8" mask="url(#mask-2)"></path>
            </g>
            <path d="M211.7105,223.0269 L211.7105,223.0269 C212.7425,222.6099 213.2415,221.4349 212.8245,220.4019 L176.2205,129.7759 C175.8035,128.7429 174.6275,128.2439 173.5955,128.6609 C172.5625,129.0779 172.0645,130.2539 172.4815,131.2859 L209.0855,221.9119 C209.5025,222.9449 210.6785,223.4439 211.7105,223.0269" id="Fill-4" fill="#8C767E"></path>
            <path d="M158.1519,223.0269 L158.1519,223.0269 C159.1839,222.6099 159.6829,221.4349 159.2659,220.4019 L122.6619,129.7759 C122.2449,128.7429 121.0689,128.2439 120.0369,128.6609 C119.0039,129.0779 118.5049,130.2539 118.9219,131.2859 L155.5269,221.9119 C155.9439,222.9449 157.1189,223.4439 158.1519,223.0269" id="Fill-6" fill="#8C767E"></path>
            <path d="M134.7837,223.0269 L134.7837,223.0269 C133.7517,222.6099 133.2527,221.4349 133.6697,220.4019 L170.2737,129.7759 C170.6907,128.7429 171.8667,128.2439 172.8987,128.6609 C173.9307,129.0779 174.4297,130.2539 174.0127,131.2859 L137.4087,221.9119 C136.9917,222.9449 135.8157,223.4439 134.7837,223.0269" id="Fill-8" fill="#8C767E"></path>
            <path d="M140.1187,182.1646 L103.6027,182.1646 C102.7247,182.1646 102.0067,181.4466 102.0067,180.5676 C102.0067,179.6896 102.7247,178.9716 103.6027,178.9716 L140.1187,178.9716 C140.9977,178.9716 141.7157,179.6896 141.7157,180.5676 C141.7157,181.4466 140.9977,182.1646 140.1187,182.1646" id="Fill-10" fill="#8C767E"></path>
            <path d="M191.0562,182.1646 L153.9432,182.1646 C153.0652,182.1646 152.3462,181.4466 152.3462,180.5676 C152.3462,179.6896 153.0652,178.9716 153.9432,178.9716 L191.0562,178.9716 C191.9342,178.9716 192.6532,179.6896 192.6532,180.5676 C192.6532,181.4466 191.9342,182.1646 191.0562,182.1646" id="Fill-12" fill="#8C767E"></path>
            <path d="M135.6148,2.689 C135.6148,2.689 118.9778,9.461 134.3308,25.909 L142.5878,17.633 L142.5878,9.219 L135.6148,2.689 Z" id="Fill-14" fill="#F7AD36"></path>
            <path d="M129.0191,57.2476 C129.0191,57.2476 140.4151,-2.2454 191.7531,3.4606 C253.2641,10.2986 243.9981,150.8076 149.3711,150.1796 C22.5721,149.3376 104.1981,52.9286 129.0191,57.2476" id="Fill-16" fill="#42373B"></path>
            <path d="M168.6148,29.2862 C168.6148,34.6842 164.2388,39.0602 158.8408,39.0602 C153.4428,39.0602 149.0668,34.6842 149.0668,29.2862 C149.0668,23.8882 153.4428,19.5122 158.8408,19.5122 C164.2388,19.5122 168.6148,23.8882 168.6148,29.2862" id="Fill-18" fill="#F7AD36"></path>
            <path d="M179.1275,37.3667 C179.1275,42.7647 174.7515,47.1407 169.3545,47.1407 C163.9555,47.1407 159.5795,42.7647 159.5795,37.3667 C159.5795,31.9687 163.9555,27.5927 169.3545,27.5927 C174.7515,27.5927 179.1275,31.9687 179.1275,37.3667" id="Fill-20" fill="#F7AD36"></path>
            <path d="M81.3169,222.9087 L81.3169,222.9087 C80.2859,222.4917 79.7869,221.3177 80.2039,220.2857 L116.7739,129.7467 C117.1909,128.7147 118.3649,128.2167 119.3959,128.6327 C120.4279,129.0497 120.9259,130.2237 120.5089,131.2557 L83.9399,221.7947 C83.5229,222.8267 82.3489,223.3257 81.3169,222.9087" id="Fill-22" fill="#8C767E"></path>
            <polygon id="Fill-24" fill="#ED6C6C" points="71.6148 216.7681 62.9678 215.8531 64.5508 200.8881 73.1978 201.8031"></polygon>
            <path d="M62.397,213.8555 L55.2,219.3365 C53.491,220.6385 51.404,221.3485 49.255,221.3585 L47.067,221.3695 C46.09,221.3745 45.228,222.0045 44.926,222.9325 C44.511,224.2075 45.57,227.1825 49.097,227.2355 L53.715,227.3875 L70.703,226.4125 C70.703,226.4125 76.433,225.5065 73.215,214.5785 L62.397,213.8555 Z" id="Fill-26" fill="#42373B"></path>
            <polygon id="Fill-28" fill="#ED6C6C" points="96.7202 217.1055 88.0742 216.1905 92.1112 201.2625 100.7582 202.1775"></polygon>
            <path d="M87.5034,214.1914 L80.3064,219.6724 C78.5974,220.9744 76.5114,221.6844 74.3624,221.6944 L72.1734,221.7064 C71.1974,221.7104 70.3344,222.3404 70.0324,223.2684 C69.6174,224.5434 70.6764,227.5184 74.2034,227.5714 L78.8214,227.7234 L95.8094,226.7494 C95.8094,226.7494 101.5394,225.8424 98.3214,214.9144 L87.5034,214.1914 Z" id="Fill-30" fill="#42373B"></path>
            <path d="M111.0054,97.7173 C111.0054,97.7173 102.6754,121.6473 103.2504,126.3113 C104.3294,135.0503 109.0984,141.2423 109.0984,141.2423 L149.9704,140.9213 C161.6394,140.8293 170.4434,130.2923 168.4654,118.7923 C168.4554,118.7363 168.4454,118.6813 168.4374,118.6273 C168.2474,117.5293 168.0784,116.4273 167.9294,115.3233 C167.2294,110.1483 162.4634,101.3453 162.4634,101.3453 C149.7664,109.5763 129.4274,106.2443 109.2684,100.8053 L111.0054,97.7173 Z" id="Fill-32" fill="#705E65"></path>
            <path d="M67.8775,206.9439 C64.3825,206.9439 61.6145,203.9959 61.8455,200.5079 C62.9445,183.8559 65.6535,140.6619 67.2225,136.4399 C69.3845,130.6189 74.5985,126.3419 80.1845,123.9199 L124.7365,104.6009 L148.5665,130.0089 L87.1965,145.4239 C89.0825,161.4619 81.7335,181.4589 76.1085,202.8759 C75.4795,205.2759 73.3045,206.9439 70.8235,206.9439 L67.8775,206.9439 Z" id="Fill-34" fill="#705E65"></path>
            <path d="M70.0191,206.9439 C70.1031,206.3349 74.5191,201.4129 74.5191,194.5209 C74.5191,185.7589 75.4071,173.5549 77.7251,164.9929 C82.2791,148.1729 78.6981,140.5309 79.5941,138.2059 C81.8021,132.4779 97.1131,134.6749 102.9281,132.7089 L144.6501,119.7299 L151.1431,133.2239 L87.1971,145.4239 C89.2551,161.5049 84.3451,180.6499 79.0731,201.3419 C78.2341,204.6359 75.2681,206.9439 71.8691,206.9439 L70.0191,206.9439 Z" id="Fill-36" fill="#5E4F55"></path>
            <path d="M92.5191,208.9664 C88.3901,208.8924 85.3281,205.1104 86.1241,201.0594 C89.0381,186.2504 96.1081,154.3064 99.5801,139.1424 C100.8241,133.7084 104.3661,129.2464 109.4551,126.6994 L150.0351,106.3834 L181.1661,125.2824 L124.6531,146.3994 C121.2151,147.6844 118.8911,150.9594 118.9161,154.6294 C119.0121,168.3974 111.9931,184.5224 105.9881,202.7824 C104.7421,206.5714 101.1921,209.1224 97.2051,209.0504 L92.5191,208.9664 Z" id="Fill-38" fill="#705E65"></path>
            <path d="M132.3159,44.6919 L122.5009,61.9499 L119.8519,91.4179 L98.8769,112.8589 L104.8479,117.2809 C104.8479,117.2809 116.9789,109.7649 126.5309,102.5479 C129.4959,100.3079 131.4239,96.9609 131.8749,93.2719 C132.8959,84.9209 134.6629,70.4549 134.6629,70.4549 L134.7149,52.0309 L132.3159,44.6919 Z" id="Fill-40" fill="#ED6C6C"></path>
            <path d="M166.7466,64.2593 C165.4936,51.5053 178.4826,41.7363 171.2306,39.9353 C165.6436,37.5483 156.3066,34.6763 156.3066,34.6763 L152.4456,34.3523 C152.4456,34.3523 151.8706,34.2513 150.9976,34.0993 C146.3416,33.2853 142.2996,36.4313 136.8366,38.3133 C131.6406,39.9813 122.3456,43.4203 121.225572,67.0413 C121.2176,67.2273 122.9336,68.0673 125.1936,69.0923 C125.1666,71.0513 125.5416,72.9483 126.5876,74.7253 C130.5266,81.4193 130.6646,88.2423 130.6646,88.2423 L128.9276,115.7273 C128.9276,115.7273 184.0476,133.2143 180.3706,116.7243 L166.7466,64.2593 Z" id="Fill-42" fill="#F7C4C9"></path>
            <path d="M139.9595,111.6568 C139.9595,111.6568 161.0635,95.8448 159.9735,79.9268 C159.9735,79.9268 164.7245,73.8078 166.5595,68.3048 L170.6505,88.6248 L154.1415,111.6568 L146.3795,114.7308 L139.9595,111.6568 Z" id="Fill-44" fill="#E6B1B7"></path>
            <path d="M136.5855,111.233 C136.5855,111.233 133.8645,111.197 130.7825,115.024 C126.7745,119.999 126.5915,118.856 129.8235,123.317 C130.7295,124.566 135.1135,125.233 135.1135,125.233 L143.2605,121.814 C143.2605,121.814 153.8415,121.051 151.8045,114.482 C150.3675,109.846 136.5855,111.233 136.5855,111.233" id="Fill-46" fill="#ED6C6C"></path>
            <polygon id="Fill-48" fill="#334AC0" points="150.9859 125.4322 126.8859 125.0342 127.0329 122.2862 151.1319 122.6832"></polygon>
            <path d="M133.4556,125.143434 L91.9956,124.4581 L80.2386,90.8271 L123.2466,91.5381 C124.3486,91.5561 125.3206,92.2591 125.6846,93.2991 L135.7206,122.0061 C136.2616,123.5551 135.0956,125.1701 133.4556,125.143434" id="Fill-50" fill="#FFFFFF"></path>
            <path d="M132.1685,125.12188 L91.6805,124.4526 C90.8245,124.4386 90.0685,123.8926 89.7855,123.0846 L79.4655,93.5626 C78.9965,92.2216 80.0065,90.8236 81.4275,90.8472953 L121.9155,91.5156 C122.7725,91.5296 123.5275,92.0766 123.8105,92.8836 L134.1305,122.4056 C134.5995,123.7466 133.5895,125.1446 132.1685,125.12188" id="Fill-52" fill="#334AC0"></path>
            <path d="M108.4165,108.2217 C108.8395,110.3137 107.2945,111.9787 104.9655,111.9407 C102.6375,111.9017 100.4065,110.1747 99.9835,108.0817 C99.5615,105.9897 101.1055,104.3247 103.4355,104.3637 C105.7635,104.4017 107.9935,106.1287 108.4165,108.2217" id="Fill-54" fill="#FFFFFF"></path>
            <path d="M167.3989,75.5166 C168.4149,80.2346 169.3299,85.8886 166.6049,89.8716 L144.2209,113.9976 L150.1869,119.5286 C150.1869,119.5286 164.4779,106.5856 173.3339,97.5966 C180.6169,90.2006 179.8479,89.8466 180.1849,86.3826 C180.5929,82.1946 180.0549,74.9466 179.8929,69.4466 L167.3989,75.5166 Z" id="Fill-56" fill="#ED6C6C"></path>
            <path d="M137.7183,145.333668 C137.9383,145.5541 165.0633,81.1811 196.2273,78.6601 C226.7203,76.1931 219.4623,81.2221 219.4623,81.2221 L172.1883,145.0561 L137.7183,145.333668 Z" id="Fill-58" fill="#42373B"></path>
            <path d="M126.6694,75.6177 C126.6694,75.6177 129.9174,79.4377 132.6174,80.2057 L128.8984,82.1527 L126.6694,75.6177 Z" id="Fill-60" fill="#E6B1B7"></path>
            <path d="M185.1851,75.7369 C185.1851,75.7369 185.8731,45.8739 172.9811,40.8799 C160.0871,35.8849 162.9321,60.8729 162.9321,60.8729 L166.1821,80.9869 L185.1851,75.7369 Z" id="Fill-62" fill="#F7C4C9"></path>
            <path d="M144.2212,35.1949 L134.2462,39.2539 C134.2462,39.2539 132.5502,50.6659 145.9562,51.6529 C159.3622,52.6409 164.8312,37.4959 164.8312,37.4959 L155.2322,33.5329 L144.2212,35.1949 Z" id="Fill-64" fill="#ED6C6C"></path>
            <path d="M242.9429,160.8277 C242.9429,160.8277 241.9619,141.8597 250.4689,132.1547 C258.9769,122.4507 254.0689,102.1587 265.5219,95.5417 C276.9739,88.9257 282.8649,85.3957 282.8649,85.3957 C282.8649,85.3957 282.5379,107.8927 273.0469,115.8337 C263.5579,123.7737 266.3939,135.7327 263.0119,147.1527 C259.6309,158.5737 252.4319,167.8857 252.4319,167.8857 L242.9429,160.8277 Z" id="Fill-66" fill="#97A85E"></path>
            <path d="M240.979,61.5757 C240.979,61.5757 249.16,63.3397 249.16,76.1327 C249.16,88.9257 264.54,98.6297 259.631,116.7157 C254.723,134.8017 252.105,155.9757 252.105,155.9757 L250.789,166.6637 L237.707,163.9157 C237.707,163.9157 245.819,141.8597 242.908,135.2427 C239.998,128.6257 241.892,114.5107 242.908,107.0117 C243.924,99.5117 239.016,98.1887 237.707,90.6897 C236.398,83.1907 240.652,76.1327 240.979,61.5757" id="Fill-68" fill="#97A85E"></path>
            <path d="M233.981,161.0313 C233.981,161.0313 228.165,114.3213 206.568,124.4673 C184.97,134.6133 191.188,155.6893 184.643,161.0313 C184.643,161.0313 193.479,165.4913 197.406,156.2283 C201.333,146.9643 206.568,134.6133 210.822,138.5833 C215.076,142.5533 215.512,161.0313 224.784,161.0313 L233.981,161.0313 Z" id="Fill-70" fill="#97A85E"></path>
            <path d="M203.2388,82.1197 C203.2388,82.1197 200.9478,101.9697 208.8008,109.9107 C216.6548,117.8507 222.5448,120.0567 225.1628,129.0987 C227.7808,138.1417 233.0158,164.1677 233.0158,164.1677 L240.9478,162.1047 C240.9478,162.1047 242.1778,142.5537 236.9428,133.7307 C231.7078,124.9087 235.3068,111.2337 224.5088,103.7347 C213.7098,96.2357 204.5478,94.0297 203.2388,82.1197" id="Fill-72" fill="#97A85E"></path>
            <path d="M240.1694,226.0362 L240.1694,226.0362 C229.7514,226.0362 221.3074,217.5912 221.3074,207.1732 L221.3074,160.0052 L259.0314,160.0052 L259.0314,207.1732 C259.0314,217.5912 250.5874,226.0362 240.1694,226.0362" id="Fill-74" fill="#E8E8E8"></path>
            <path d="M259.0317,207.1734 L259.0317,163.7434 C251.4527,195.6414 236.2517,216.0214 230.2037,223.1674 C233.0967,224.9744 236.5057,226.0364 240.1697,226.0364 C250.5877,226.0364 259.0317,217.5904 259.0317,207.1734" id="Fill-76" fill="#DBDBDB"></path>
            <path d="M233.981,161.0313 C233.981,161.0313 233.771,144.8183 226.758,135.2743" id="Stroke-78" stroke="#42373B" stroke-width="1.505" stroke-linecap="round" stroke-linejoin="round"></path>
            <path d="M244.6177,158.8379 C244.6177,158.8379 253.6807,149.8379 251.7397,139.4259 C249.7987,129.0149 251.0337,126.1909 253.8567,121.4259 C256.6797,116.6619 258.2487,105.1199 259.5817,102.5859" id="Stroke-80" stroke="#42373B" stroke-width="1.505" stroke-linecap="round" stroke-linejoin="round"></path>
            <path d="M142.5874,24.9126 C142.5874,24.9126 144.0484,32.0196 145.2584,37.9056 C145.5804,39.4746 146.7244,40.7466 148.2484,41.2356 C149.7734,41.7246 151.4424,41.3526 152.6164,40.2646 C153.0004,39.9076 153.3754,39.5606 153.7304,39.2316 C155.3394,37.7386 155.9424,35.4526 155.2804,33.3596 C153.5804,27.9956 150.4844,18.2266 150.4844,18.2266 L142.5874,24.9126 Z" id="Fill-82" fill="#ED6C6C"></path>
            <path d="M153.0747,9.0391 C152.3697,6.0111 149.3437,4.1281 146.3147,4.8331 C143.0827,5.5861 139.0067,6.5351 135.7747,7.2881 C132.7477,7.9931 131.8177,16.4841 132.5227,19.5121 C133.5607,23.9691 134.0627,24.7601 135.1007,29.2171 C135.8057,32.2451 138.8327,34.1281 141.8607,33.4231 C145.0937,32.6701 151.0737,31.2001 152.6277,27.8781 C153.9437,25.0621 155.6297,23.8931 154.9247,20.8651 C153.8867,16.4091 154.1127,13.4961 153.0747,9.0391" id="Fill-84" fill="#ED6C6C"></path>
            <g id="Group-88" transform="translate(135.000000, 0.899000)">
                <mask id="mask-4" fill="white">
                    <use xlink:href="#path-3"></use>
                </mask>
                <g id="Clip-87"></g>
                <path d="M1.8247,6.1445 C1.8247,6.1445 10.3067,21.3785 23.8407,23.8275 L26.6087,18.6135 C26.6087,18.6135 27.1927,-6.5355 0.6147,1.7905 L1.8247,6.1445 Z" id="Fill-86" fill="#F7AD36" mask="url(#mask-4)"></path>
            </g>
            <path d="M156.896,21.4307 C156.896,23.5277 155.638,25.2277 154.086,25.2277 C152.535,25.2277 151.278,23.5277 151.278,21.4307 C151.278,19.3327 152.536,17.6327 154.086,17.6327 C155.638,17.6327 156.896,19.3327 156.896,21.4307" id="Fill-89" fill="#ED6C6C"></path>
            <polygon id="Fill-91" fill="#D66262" points="144.2007 32.7593 144.9057 34.2973 149.7937 29.8363"></polygon>
        </g>
    </g>
</svg>