<?xml version="1.0" encoding="UTF-8"?>
<svg width="480px" height="300px" viewBox="0 0 480 300" version="1.1" xmlns="http://www.w3.org/2000/svg" xmlns:xlink="http://www.w3.org/1999/xlink">
    <!-- Generator: Sketch 64 (93537) - https://sketch.com -->
    <title>use-cases-3</title>
    <desc>Created with Sketch.</desc>
    <defs>
        <polygon id="path-1" points="0.518560008 0.576247269 93.5496014 0.576247269 93.5496014 55.1896795 0.518560008 55.1896795"></polygon>
        <polygon id="path-3" points="0 0.764229894 39.6779254 0.764229894 39.6779254 53.8327078 0 53.8327078"></polygon>
    </defs>
    <g id="use-cases-3" stroke="none" stroke-width="1" fill="none" fill-rule="evenodd">
        <g id="Group-109" transform="translate(33.000000, 29.000000)">
            <path d="M383.158806,216.155283 C383.314806,220.961683 364.282805,225.480083 340.649205,226.248083 C317.015605,227.016083 297.730004,223.742483 297.574004,218.936883 C297.417204,214.131283 316.450005,209.612083 340.083605,208.844083 C363.717205,208.075283 383.002806,211.348883 383.158806,216.155283" id="Fill-1" fill="#E8E8E8"></path>
            <path d="M321.761925,224.189603 L309.073125,224.189603 C296.288324,224.189603 285.924324,213.825603 285.924324,201.040003 L285.924324,160.586402 L344.911525,160.586402 L344.911525,201.040003 C344.911525,213.825603 334.546725,224.189603 321.761925,224.189603" id="Fill-3" fill="#E8E8E8"></path>
            <path d="M344.810325,206.761523 L344.810325,164.928722 C332.958325,195.653523 309.191125,215.283923 299.733524,222.167123 C304.259125,223.908723 309.587925,224.930323 315.316725,224.930323 C331.605525,224.930323 344.810325,216.795923 344.810325,206.761523" id="Fill-5" fill="#DBDBDB"></path>
            <path d="M344.911125,161.711522 C344.911125,167.331522 331.706325,171.889123 315.417525,171.889123 C299.128724,171.889123 285.924724,167.331522 285.924724,161.711522 C285.924724,156.090722 299.128724,151.533122 315.417525,151.533122 C331.706325,151.533122 344.911125,156.090722 344.911125,161.711522" id="Fill-7" fill="#DBDBDB"></path>
            <path d="M322.293125,110.723202 C322.293125,110.723202 305.614725,88.2704013 317.692325,69.459201 C329.769925,50.6488008 324.465125,44.5080007 326.787525,34.4240005 C330.572325,17.9912003 349.205925,0.000800000012 349.205925,0.000800000012 C349.205925,0.000800000012 367.021925,24.4384004 355.755525,45.5360007 C349.561125,57.1344009 347.121125,65.923201 351.109125,76.2728011 C357.045925,91.6816014 336.946725,115.445602 322.293125,110.723202" id="Fill-9" fill="#97A85E"></path>
            <path d="M342.618965,26.2091204 C330.237365,68.177121 319.085365,108.150722 317.102165,164.285922" id="Stroke-11" stroke="#42373B" stroke-width="1.20400002" stroke-linecap="round" stroke-linejoin="round"></path>
            <g id="Group-15" transform="translate(320.000005, 75.408001)">
                <mask id="mask-2" fill="white">
                    <use xlink:href="#path-1"></use>
                </mask>
                <g id="Clip-14"></g>
                <path d="M15.6017602,23.4105603 C15.6017602,23.4105603 40.6905606,-15.8726402 93.5497614,8.61056013 C93.5497614,8.61056013 83.4233612,30.8881605 56.7913608,20.2089603 C56.7913608,20.2089603 34.9385605,67.228161 0.518560008,52.2409608 C3.50576005,43.5273606 5.92336009,35.0633605 15.6017602,23.4105603" id="Fill-13" fill="#73804D" mask="url(#mask-2)"></path>
            </g>
            <path d="M384.611126,84.4513613 C384.611126,84.4513613 316.751125,101.740162 320.518325,164.285762" id="Stroke-16" stroke="#42373B" stroke-width="1.20400002" stroke-linecap="round" stroke-linejoin="round"></path>
            <path d="M308.968965,144.245122 C308.968965,144.245122 285.436164,129.128322 290.092164,107.264322 C294.748964,85.4003213 287.617764,81.5291212 286.228964,71.2747211 C283.965764,54.5635208 295.046564,31.1523205 295.046564,31.1523205 C295.046564,31.1523205 320.344965,47.7243207 317.253765,71.4403211 C315.555365,84.4795213 316.376965,93.5635214 323.761765,101.837922 C334.757765,114.157922 324.346565,143.489122 308.968965,144.245122" id="Fill-18" fill="#73804D"></path>
            <line x1="298.139204" y1="57.9982409" x2="314.254405" y2="164.285442" id="Stroke-20" stroke="#42373B" stroke-width="1.20400002" stroke-linecap="round" stroke-linejoin="round"></line>
            <path d="M271.062644,229.557603 C271.062644,235.880804 217.157843,241.008004 150.664242,241.008004 C84.1698413,241.008004 30.2658405,235.880804 30.2658405,229.557603 C30.2658405,223.233603 84.1698413,218.107203 150.664242,218.107203 C217.157843,218.107203 271.062644,223.233603 271.062644,229.557603" id="Fill-22" fill="#E8E8E8"></path>
            <path d="M39.6919206,235.797444 L39.6919206,235.797444 C37.0783206,235.100644 35.3991205,232.559043 35.7831205,229.881443 L39.9575206,200.750243 L58.3183209,205.647043 L45.9255207,232.851843 C44.8447207,235.223844 42.2103206,236.469444 39.6919206,235.797444" id="Fill-24" fill="#42373B"></path>
            <path d="M267.099364,235.797444 L267.099364,235.797444 C269.712964,235.100644 271.391364,232.559043 271.008164,229.881443 L266.832964,200.750243 L248.472964,205.647043 L260.864964,232.851843 C261.945764,235.223844 264.580964,236.469444 267.099364,235.797444" id="Fill-26" fill="#42373B"></path>
            <path d="M240.053284,171.385683 L67.183681,171.385683 C44.7372807,171.385683 26.3724804,153.020882 26.3724804,130.574482 L26.3724804,97.8296815 C26.3724804,75.3840811 44.7372807,57.0192808 67.183681,57.0192808 L240.053284,57.0192808 C262.499684,57.0192808 280.864484,75.3840811 280.864484,97.8296815 L280.864484,130.574482 C280.864484,153.020882 262.499684,171.385683 240.053284,171.385683" id="Fill-28" fill="#334AC0"></path>
            <path d="M256.204884,205.930243 L46.1144807,205.930243 C26.5064804,205.930243 11.9008802,189.933443 16.0344802,172.987043 L26.2336804,131.176642 L279.108084,131.176642 L286.622484,174.609443 C289.473684,191.082243 275.054484,205.930243 256.204884,205.930243" id="Fill-30" fill="#334AC0"></path>
            <path d="M83.3943212,181.547443 L69.319121,181.547443 C60.7943209,181.547443 54.3975208,173.753043 56.0607208,165.391442 L56.6663208,162.348242 C57.9247209,156.023442 63.4759209,151.467442 69.924721,151.467442 L83.9999213,151.467442 C92.5247214,151.467442 98.9215215,159.262642 97.2583214,167.624242 L96.6527214,170.665843 C95.3943214,176.992243 89.8439213,181.547443 83.3943212,181.547443" id="Fill-32" fill="#2D41A9"></path>
            <path d="M220.670483,181.547443 L234.745683,181.547443 C243.270484,181.547443 249.667284,173.753043 248.004084,165.391442 L247.398484,162.348242 C246.140884,156.023442 240.588884,151.467442 234.140883,151.467442 L220.065683,151.467442 C211.540883,151.467442 205.144083,159.262642 206.807283,167.624242 L207.412883,170.665843 C208.670483,176.992243 214.221683,181.547443 220.670483,181.547443" id="Fill-34" fill="#2D41A9"></path>
            <path d="M144.961842,181.547443 L159.564242,181.547443 C166.961042,181.547443 172.984243,175.601843 173.081043,168.205043 L173.121043,165.163442 C173.219443,157.629042 167.138642,151.468242 159.604242,151.468242 L145.001042,151.468242 C137.604242,151.468242 131.580242,157.413842 131.484242,164.809842 L131.445042,167.853043 C131.345842,175.386643 137.426642,181.547443 144.961842,181.547443" id="Fill-36" fill="#2D41A9"></path>
            <g id="Group-40" transform="translate(0.000000, 128.208002)">
                <mask id="mask-4" fill="white">
                    <use xlink:href="#path-3"></use>
                </mask>
                <g id="Clip-39"></g>
                <path d="M12.6849602,53.7073608 L12.6849602,53.7073608 C3.91376006,52.6905608 -1.60624002,45.7441607 0.418560006,38.2713606 L7.36576011,12.6273602 C9.38976014,5.15456008 18.2225603,-0.127840002 26.9929604,0.889760013 C35.7641605,1.90656003 41.2841606,8.85296013 39.2593606,16.3249602 L32.3129605,41.9689606 C30.2881605,49.4417607 21.4553603,54.7241608 12.6849602,53.7073608" id="Fill-38" fill="#293B99" mask="url(#mask-4)"></path>
            </g>
            <path d="M285.447044,181.915363 L285.447044,181.915363 C294.218244,180.898563 299.737444,173.952163 297.713444,166.479362 L290.766244,140.835362 C288.742244,133.362562 279.909444,128.080162 271.138244,129.097762 C262.367844,130.114562 256.847844,137.060962 258.871844,144.532962 L265.819844,170.176963 C267.843844,177.649763 276.675844,182.932163 285.447044,181.915363" id="Fill-41" fill="#293B99"></path>
            <path d="M181.458003,154.630242 L181.687603,159.251042 C181.814803,161.824642 183.762803,163.939042 186.316403,164.278242 L202.977203,166.489442 C203.743603,166.591042 204.502003,166.251042 204.936403,165.611842 L205.148403,165.297442 C205.770003,164.380642 205.546003,163.135042 204.644403,162.491842 L197.740403,159.355842 L189.040403,151.699042 C186.416403,151.110242 184.007603,152.098242 181.458003,154.630242" id="Fill-43" fill="#ED6C6C"></path>
            <path d="M109.789602,130.831842 L118.454402,135.873442 L154.076802,117.378242 C157.899202,115.392642 162.589602,116.332642 165.352802,119.637442 L193.479203,153.267842 L179.244803,153.643042 C170.338403,148.361442 160.782402,143.431042 157.731202,134.993442 L139.046402,151.988642 L96.9960014,148.158242 L98.3896015,132.031042 L109.789602,130.831842 Z" id="Fill-45" fill="#E0B2B7"></path>
            <path d="M219.218963,170.717763 L222.982163,173.409763 C225.077363,174.908163 227.944563,174.697763 229.798163,172.906563 L241.884564,161.229762 C242.440564,160.692962 242.645364,159.887362 242.413364,159.148962 L242.299764,158.787362 C241.966964,157.731362 240.852564,157.132962 239.787764,157.438562 L233.039763,160.899362 L221.633363,162.956162 C219.541363,164.644962 218.818963,167.146562 219.218963,170.717763" id="Fill-47" fill="#ED6C6C"></path>
            <path d="M80.6353612,131.957602 C80.6353612,131.957602 71.2833611,142.648802 72.0329611,155.919202 C72.4985611,164.164802 79.3449612,170.605603 87.6025613,170.605603 L149.065762,170.605603 C149.065762,170.605603 202.448963,177.684003 221.632963,172.520803 L221.632963,162.956002 L154.588162,153.181602 L98.4329615,139.688002 L98.4329615,131.957602 L80.6353612,131.957602 Z" id="Fill-49" fill="#F7C4C9"></path>
            <path d="M65.681441,128.557602 C67.723041,134.056802 61.5054409,147.540802 64.871841,159.446402 L59.6358409,160.586402 C59.6358409,160.586402 52.7662408,136.580802 58.5990409,122.754402 C60.7406409,125.502402 63.0502409,127.624802 65.681441,128.557602" id="Fill-51" fill="#ED6C6C"></path>
            <path d="M106.540402,61.1349609 C106.540402,61.1349609 115.054802,71.0341611 105.306002,80.7397612 C95.5572014,90.4445613 96.3924014,80.7917612 96.3924014,80.7917612 C96.3924014,80.7917612 98.9740015,63.3909609 106.540402,61.1349609" id="Fill-53" fill="#42373B"></path>
            <path d="M85.1185613,59.6185609 C85.1185613,59.6185609 81.9033612,63.1033609 76.0409611,63.992961 C70.8681611,64.777761 69.042561,68.161761 66.204961,73.4257611 C61.6641609,81.8465612 53.4113608,76.5017611 50.5129608,89.4649613 C48.7369607,97.4113615 54.7177608,105.108962 68.588161,100.080161 C82.4593612,95.0521614 98.2233615,109.862562 104.506562,82.9433612 C106.728162,73.4281611 90.5209613,67.360961 90.5209613,67.360961 L85.1185613,59.6185609 Z" id="Fill-55" fill="#42373B"></path>
            <path d="M105.574802,85.0122413 L93.6412014,83.3610412 L86.3452013,83.5010412 L77.7364012,87.5498413 C73.4684011,89.5578413 71.3668011,94.4306414 72.8356011,98.9122415 L79.1228012,118.089842 L80.1644012,135.003442 C92.1204014,136.987442 102.857202,136.970642 108.693202,128.916242 L110.116402,109.861842 L105.574802,85.0122413 Z" id="Fill-57" fill="#E8E8E8"></path>
            <path d="M98.4013615,77.5255212 C98.4013615,77.5255212 96.3381614,83.3447212 94.6301614,88.1647213 C94.1749614,89.4487213 93.0621614,90.3871213 91.7205614,90.6207214 C90.3781613,90.8543214 89.0149613,90.3455213 88.1525613,89.2911213 C87.8709613,88.9455213 87.5957613,88.6087213 87.3357613,88.2903213 C86.1533613,86.8439213 85.9133613,84.8455213 86.7165613,83.1599212 C88.7765613,78.8383212 92.5293614,70.9655211 92.5293614,70.9655211 L98.4013615,77.5255212 Z" id="Fill-59" fill="#ED6C6C"></path>
            <path d="M96.9088014,80.1466412 C96.9088014,80.1466412 92.7008014,80.1306412 90.8792014,78.4506412 C90.8792014,78.4506412 92.7248014,83.4210412 96.2824014,84.1170413 L96.9088014,80.1466412 Z" id="Fill-61" fill="#ED6C6C"></path>
            <path d="M90.3248013,63.6810409 C90.6744014,61.3594409 92.8408014,59.7610409 95.1624014,60.1106409 C97.6416015,60.4850409 100.766402,60.9562409 103.244802,61.3298409 C105.566402,61.6802409 106.801602,63.819441 106.814552,66.166641 C106.830402,68.938641 105.564802,74.4938411 104.156802,78.4122412 C103.362402,80.6218412 101.244002,82.4498412 98.9224015,82.0994412 C96.4432014,81.7258412 89.3728013,78.2450412 89.3240013,73.7058411 C89.2864013,70.251441 89.8088013,67.097841 90.3248013,63.6810409" id="Fill-63" fill="#ED6C6C"></path>
            <path d="M79.5806412,66.456801 C79.5806412,66.456801 84.9830413,58.0400009 89.3574413,56.7904008 C95.6742414,54.9848008 102.131042,54.1528008 107.000642,61.8096009 C107.000642,61.8096009 103.814242,75.3984011 83.4694412,68.571201 L79.5806412,66.456801 Z" id="Fill-65" fill="#42373B"></path>
            <path d="M86.3536813,72.5146411 C86.7352813,74.4058411 88.3128813,75.6834411 89.8784813,75.3674411 C91.4440814,75.0522411 92.4032814,73.2634411 92.0224814,71.3714411 C91.6408814,69.481041 90.0632813,68.203441 88.4976813,68.518641 C86.9328813,68.833841 85.9720813,70.6234411 86.3536813,72.5146411" id="Fill-67" fill="#ED6C6C"></path>
            <path d="M105.574802,85.0122413 C105.574802,85.0122413 109.978802,84.6562413 114.589202,93.1074414 C119.198002,101.560242 128.582802,113.135442 128.582802,113.135442 C128.582802,113.135442 140.800402,124.487442 124.511602,127.565842 C114.949202,129.373842 102.067602,105.677842 102.067602,105.677842 L98.9316015,97.3218415 L105.574802,85.0122413 Z" id="Fill-69" fill="#E8E8E8"></path>
            <path d="M131.774002,125.351362 L149.746802,106.453762 L146.181202,101.684162 L126.966002,114.240162 C122.118802,117.152962 127.551602,127.068162 131.774002,125.351362" id="Fill-71" fill="#ED6C6C"></path>
            <path d="M63.884161,156.967762 L71.4249611,165.847762 C71.4249611,165.847762 75.2113611,174.614163 69.979361,175.259763 C64.746561,175.906163 64.846561,171.968563 64.468161,170.683763 C64.091361,169.398163 60.3345609,168.149363 59.4569609,159.986162 L63.884161,156.967762 Z" id="Fill-73" fill="#ED6C6C"></path>
            <path d="M74.6986411,89.8388013 C74.6986411,89.8388013 64.191441,100.117201 61.7634409,107.907602 C59.3354409,115.698002 49.4498407,130.751602 54.2770408,137.366802 C59.1042409,143.982802 66.593041,142.530802 69.212241,132.399602 C71.8322411,122.268402 80.0962412,113.586002 80.0962412,113.586002 L74.6986411,89.8388013 Z" id="Fill-75" fill="#E8E8E8"></path>
            <path d="M109.573602,117.131042 C109.573602,117.131042 116.490402,111.099842 113.401602,104.675042 C110.312802,98.2486415 110.393602,97.3614415 110.393602,97.3614415 C110.393602,97.3614415 118.570402,105.248642 116.348002,113.815842 L114.126402,122.382242 L109.573602,117.131042 Z" id="Fill-77" fill="#D1D1D1"></path>
            <path d="M76.2310411,117.588802 L79.7726412,110.067202 C79.8806412,113.595202 81.6742412,116.615202 85.5670413,119.002402 C87.4246413,124.680002 87.5446413,135.029602 91.3566414,136.326402 L79.7950412,135.357602 L76.9030411,121.871202 L76.2310411,117.588802 Z" id="Fill-79" fill="#D1D1D1"></path>
            <path d="M144.380642,112.782562 L138.655042,111.332962 C136.339042,110.746562 134.923842,108.371362 135.510242,106.056162 L140.816642,85.0865613 C141.403042,82.7705612 143.778242,81.3553612 146.095042,81.9409612 L151.819842,83.3905612 C154.135842,83.9761613 155.551842,86.3513613 154.965442,88.6673613 L149.658242,109.636162 C149.071842,111.952962 146.697442,113.368162 144.380642,112.782562" id="Fill-81" fill="#42373B"></path>
            <polygon id="Fill-83" fill="#D1D1D1" points="147.773202 109.713042 136.712402 106.913842 142.459602 84.2058413 153.520402 87.0058413"></polygon>
            <path d="M153.250962,92.3466414 C153.250962,92.3466414 154.667762,91.6322414 155.150962,94.9746414 C155.634162,98.3162415 153.398962,106.333842 152.076562,106.337054 C150.754162,106.341042 148.074962,105.382642 149.060562,102.517842 C150.045362,99.6538415 151.438162,92.4882414 153.250962,92.3466414" id="Fill-85" fill="#ED6C6C"></path>
            <path d="M136.847842,99.9520815 L136.847842,99.9520815 C135.990242,99.0256815 136.045442,97.5664815 136.971842,96.7080814 L139.195842,94.6480814 C140.121442,93.7896814 141.581442,93.8456814 142.439042,94.7712814 C143.297442,95.6984814 143.241442,97.1576814 142.315042,98.0152815 L140.091842,100.075281 C139.165442,100.933682 137.706242,100.877682 136.847842,99.9520815" id="Fill-87" fill="#ED6C6C"></path>
            <path d="M224.617363,106.337282 C224.617363,109.377282 222.152563,111.841282 219.113363,111.841282 C216.073363,111.841282 213.609363,109.377282 213.609363,106.337282 C213.609363,103.298082 216.073363,100.833282 219.113363,100.833282 C222.152563,100.833282 224.617363,103.298082 224.617363,106.337282" id="Fill-89" fill="#2D41A9"></path>
            <path d="M167.366562,106.337282 C167.366562,109.377282 164.902562,111.841282 161.862562,111.841282 C158.823362,111.841282 156.358562,109.377282 156.358562,106.337282 C156.358562,103.298082 158.823362,100.833282 161.862562,100.833282 C164.902562,100.833282 167.366562,103.298082 167.366562,106.337282" id="Fill-91" fill="#2D41A9"></path>
            <polyline id="Stroke-93" stroke="#42373B" stroke-width="1.20400002" stroke-linecap="round" stroke-linejoin="round" points="286.222084 197.308403 294.862084 191.949203 307.962885 202.673203 322.372485 192.388403 334.080485 201.685203 344.810085 190.956403"></polyline>
            <path d="M171,22.5 C171,34.9261993 160.925459,45 148.499523,45 C136.073587,45 126,34.9261993 126,22.5 C126,10.0738007 136.073587,0 148.499523,0 C160.925459,0 171,10.0738007 171,22.5 Z" id="Stroke-95" stroke="#42373B" stroke-width="1.44480008" stroke-linecap="round" stroke-linejoin="round"></path>
            <g id="send-email-envelope" transform="translate(133.000000, 15.000000)" fill="#42373B" fill-rule="nonzero">
                <path d="M7.45,16.875 C6.95,16.875 6.47875,16.67875 6.125,16.32375 C5.77125,15.96875 5.57625,15.49875 5.57625,14.9975 C5.57625,14.87125 5.58875,14.745 5.615,14.62375 L8.2175,2.1225 C8.30125,1.7125 8.52625,1.3375 8.85,1.065 C8.85375,1.06125 8.8575,1.0575 8.86125,1.05375 C8.8775,1.03875 8.90625,1.01875 8.93,1.005 C9.25375,0.75875 9.645,0.625 10.0525,0.625 L28.125,0.625 C28.62625,0.625 29.09625,0.8225 29.45125,1.18 C29.49125,1.21125 29.5375,1.25125 29.5775,1.31 C29.5875,1.32375 29.6,1.3475 29.61,1.36875 C29.865,1.70125 29.99875,2.0925 29.99875,2.50125 C29.99875,2.62625 29.98625,2.75125 29.96,2.875 L27.3625,15.3775 C27.185,16.245 26.4125,16.875 25.5275,16.875 L7.45,16.875 Z M6.8375,14.8775 C6.83,14.91625 6.825,14.9575 6.825,15 C6.825,15.16625 6.89,15.3225 7.0075,15.44125 C7.125,15.56 7.28375,15.625 7.45,15.625 L25.52625,15.625 C25.81875,15.625 26.07375,15.4175 26.13625,15.1325 C26.13625,15.13 28.7275,2.66625 28.7275,2.66625 L19.30375,9.26125 C18.78,9.62875 18.16125,9.8225 17.515,9.8225 C16.64375,9.8225 15.80875,9.46 15.22125,8.8275 L9.40375,2.5625 L6.8375,14.8775 Z M16.1375,7.97875 C16.49,8.3575 16.9925,8.575 17.515,8.575 C17.9025,8.575 18.2725,8.45875 18.58625,8.23875 L27.67875,1.875 L10.47125,1.875 L16.1375,7.97875 Z" id="Shape"></path>
                <path d="M0.625,3.125 C0.28,3.125 0,2.845 0,2.5 C0,2.155 0.28,1.875 0.625,1.875 L5.625,1.875 C5.97,1.875 6.25,2.155 6.25,2.5 C6.25,2.845 5.97,3.125 5.625,3.125 L0.625,3.125 Z" id="Path"></path>
                <path d="M0.625,6.875 C0.28,6.875 0,6.595 0,6.25 C0,5.905 0.28,5.625 0.625,5.625 L4.375,5.625 C4.72,5.625 5,5.905 5,6.25 C5,6.595 4.72,6.875 4.375,6.875 L0.625,6.875 Z" id="Path"></path>
                <path d="M0.625,10.625 C0.28,10.625 0,10.345 0,10 C0,9.655 0.28,9.375 0.625,9.375 L3.125,9.375 C3.47,9.375 3.75,9.655 3.75,10 C3.75,10.345 3.47,10.625 3.125,10.625 L0.625,10.625 Z" id="Path"></path>
            </g>
            <path d="M225.404083,57.9982409 C225.404083,68.415041 216.959283,76.8598411 206.542483,76.8598411 C196.124883,76.8598411 187.680883,68.415041 187.680883,57.9982409 C187.680883,47.5814407 196.124883,39.1366406 206.542483,39.1366406 C216.959283,39.1366406 225.404083,47.5814407 225.404083,57.9982409 Z" id="Stroke-97" stroke="#42373B" stroke-width="1.20400002" stroke-linecap="round" stroke-linejoin="round"></path>
            <line x1="148.666562" y1="50.6263208" x2="148.666562" y2="55.2847208" id="Stroke-103" stroke="#42373B" stroke-width="1.20400002" stroke-linecap="round" stroke-linejoin="round"></line>
            <line x1="148.666562" y1="60.2177609" x2="148.666562" y2="64.876161" id="Stroke-105" stroke="#42373B" stroke-width="1.20400002" stroke-linecap="round" stroke-linejoin="round"></line>
            <line x1="148.666562" y1="69.809121" x2="148.666562" y2="74.4675211" id="Stroke-107" stroke="#42373B" stroke-width="1.20400002" stroke-linecap="round" stroke-linejoin="round"></line>
        </g>
    </g>
</svg>