<?xml version="1.0" encoding="UTF-8"?>
<svg width="480px" height="300px" viewBox="0 0 480 300" version="1.1" xmlns="http://www.w3.org/2000/svg" xmlns:xlink="http://www.w3.org/1999/xlink">
    <!-- Generator: Sketch 64 (93537) - https://sketch.com -->
    <title>use-cases-4</title>
    <desc>Created with Sketch.</desc>
    <defs>
        <rect id="path-1" x="0.907680491" y="0.977110428" width="83.1599936" height="31.2479957" rx="3.02399959"></rect>
        <filter x="-13.2%" y="-32.0%" width="126.5%" height="170.4%" filterUnits="objectBoundingBox" id="filter-2">
            <feOffset dx="0" dy="1" in="SourceAlpha" result="shadowOffsetOuter1"></feOffset>
            <feGaussianBlur stdDeviation="3.5" in="shadowOffsetOuter1" result="shadowBlurOuter1"></feGaussianBlur>
            <feColorMatrix values="0 0 0 0 0   0 0 0 0 0   0 0 0 0 0  0 0 0 0.2 0" type="matrix" in="shadowBlurOuter1"></feColorMatrix>
        </filter>
        <linearGradient x1="50%" y1="0%" x2="50%" y2="100%" id="linearGradient-3">
            <stop stop-color="#0079BF" offset="0%"></stop>
            <stop stop-color="#0079BF" offset="100%"></stop>
        </linearGradient>
    </defs>
    <g id="use-cases-4" stroke="none" stroke-width="1" fill="none" fill-rule="evenodd">
        <g id="Group-164" transform="translate(26.000000, 17.000000)">
            <path d="M397.131256,114.280793 L222.732867,114.280793 C217.998467,114.280793 214.160067,110.442393 214.160067,105.707994 L214.160067,8.57279949 C214.160067,3.83839977 217.998467,0 222.732867,0 L397.131256,0 C401.865656,0 405.704056,3.83839977 405.704056,8.57279949 L405.704056,105.707994 C405.704056,110.442393 401.865656,114.280793 397.131256,114.280793" id="Fill-1" fill="#E8E8E8"></path>
            <g id="Group-23" transform="translate(271.500000, 31.500000) rotate(1.000000) translate(-271.500000, -31.500000) translate(229.000000, 15.000000)">
                <g id="Rectangle" transform="translate(42.487677, 16.601108) rotate(-1.000000) translate(-42.487677, -16.601108) ">
                    <use fill="black" fill-opacity="1" filter="url(#filter-2)" xlink:href="#path-1"></use>
                    <use fill="#FFFFFF" fill-rule="evenodd" xlink:href="#path-1"></use>
                </g>
                <g id="trello-logo-blue" transform="translate(8.239720, 5.864566)" fill-rule="nonzero">
                    <path d="M54.9730691,14.4998291 C53.9303693,14.9246944 53.1075543,16.3925403 51.8561454,17.226813 C51.7785471,17.2785451 51.7009489,17.3044112 51.6492167,17.3044112 C51.5457524,17.3044112 51.4164219,17.2009469 51.4164219,16.7353573 C51.4164219,15.13166 51.9337436,14.3556775 52.3734671,13.2175697 C53.8995661,9.26005862 56.5120408,5.87160142 58.8399885,2.17275118 C59.0210511,1.88822424 59.1245154,1.57783122 59.1245154,1.24157211 C59.1245154,0.957045165 59.0210511,0.724250395 58.8917206,0.439723454 C58.7882563,0.206928684 58.3226668,0 57.8053451,0 C57.5208181,0 57.2621573,0.0258660855 56.9258981,0.0258660855 C55.7101921,0.0258660855 55.4515313,1.81062599 55.1670043,2.27621553 C53.2270479,5.56120839 51.0025646,9.62218382 49.8644568,12.4933193 C49.6148835,13.1369557 49.3452987,13.7805921 49.1403885,14.4411657 C48.015708,14.7668426 47.1731473,16.3481905 45.8552135,17.226813 C45.7776153,17.2785451 45.700017,17.3044112 45.6482849,17.3044112 C45.5448205,17.3044112 45.4154901,17.2009469 45.4154901,16.7353573 C45.4154901,15.13166 45.9328118,14.3556775 46.3725352,13.2175697 C47.8986343,9.26005862 50.5111089,5.87160142 52.8390566,2.17275118 C53.0201192,1.88822424 53.1235836,1.57783122 53.1235836,1.24157211 C53.1235836,0.957045165 53.0201192,0.724250395 52.8907888,0.439723454 C52.7873245,0.206928684 52.3217349,0 51.8044132,0 C51.5198863,0 51.2612254,0.0258660855 50.9249663,0.0258660855 C49.7092603,0.0258660855 49.4505994,1.81062599 49.1660725,2.27621553 C47.2261161,5.56120839 45.0016327,9.62218382 43.863525,12.4933193 C43.7730457,12.7266605 43.6799363,12.9600017 43.588232,13.19415 C43.5599135,13.2092757 43.5309953,13.2256785 43.5013998,13.2434358 C42.1822294,14.0194184 41.0699877,15.3903209 39.4662904,16.3215 C39.1558974,16.5025626 38.1988522,17.1750808 37.4228697,17.1750808 C37.2418071,17.1750808 37.0866105,17.1233486 36.931414,17.0457504 C36.6986193,16.942286 36.4658245,16.4508304 36.4658245,16.2956339 C36.4658245,16.1663035 36.4916906,16.1404374 36.7503514,15.9852409 C39.026567,14.6143383 40.8889251,12.6485158 42.4926224,10.6826933 C43.0875424,9.95844293 43.863525,8.53580823 43.863525,7.5011648 C43.863525,6.82864658 43.6307302,6.05266401 42.8288815,5.76813707 C42.2598276,5.56120839 41.6131755,5.45774405 41.0958538,5.45774405 C39.7249513,5.45774405 38.7161739,6.0785301 38.14712,6.67345007 C37.5677917,7.29192218 37.0074193,7.92698075 36.4868007,8.58436306 C35.9428367,8.11473722 35.1755818,7.91502217 34.4482698,7.91502217 C33.594689,7.91502217 31.9909917,8.97553168 31.163277,9.59631773 C31.0339465,9.69978207 30.9563483,9.75151425 30.9046161,9.75151425 C30.87875,9.75151425 30.8528839,9.72564816 30.8528839,9.67391599 C30.8528839,9.6480499 30.9046161,9.41525513 30.9046161,9.00139776 C30.9046161,8.63927257 30.8270178,8.17368303 30.4907587,7.60462915 C30.4131605,7.47529872 29.9475709,7.19077178 29.3785171,7.19077178 C28.6801327,7.19077178 28.0334806,7.52703089 28.0334806,7.88915609 C28.0334806,8.14781694 28.2662754,8.25128128 28.2662754,8.48407605 C28.2662754,8.61340648 28.162811,9.20832645 28.0076145,9.77738033 C27.5678911,11.4328098 27.0247033,13.0623732 26.4556494,14.6919366 C26.1452564,15.5972496 25.1106129,16.3990982 25.1106129,17.3820095 C25.1106129,17.6924025 25.3175416,18.1062599 25.6020686,18.4166529 C26.0676581,18.9339746 26.352185,19.1150372 26.7660424,19.1150372 C26.947105,19.1150372 27.1540337,19.063305 27.3350963,18.9081085 C27.7230876,18.5718494 27.9300163,18.2355903 28.0334806,17.7700008 C28.7059988,14.7178027 30.6459552,12.6485158 32.7928403,11.2776133 C33.5170907,10.8120238 34.500002,10.3205681 34.6293324,10.3205681 C34.7619483,10.3205681 34.9693557,10.3817613 35.1783493,10.4413999 C34.5782144,11.4202661 34.091953,12.4525758 33.7757516,13.5538288 C33.6722873,13.915954 33.6205551,14.2522131 33.6205551,14.6143383 C33.6205551,15.2092583 33.7498855,15.8300443 33.9568142,16.4249643 C34.2413411,17.252679 34.7069307,17.9769294 35.3535828,18.3131886 C36.5434227,18.9339746 37.3970036,19.2702337 38.1729861,19.2702337 C38.6127096,19.2702337 38.9489687,19.1926355 39.3110939,18.9857068 C41.0111908,18.0238098 42.0535263,17.294064 42.8061799,16.6458912 C42.8268173,17.3030822 42.9563639,17.6671826 43.4238015,18.157992 C43.889391,18.6494477 44.6136414,19.0891711 45.5706866,19.2960998 C45.7258831,19.3219659 45.8810796,19.347832 46.0362761,19.347832 C47.1312655,19.347832 48.1850511,18.4578313 48.9976225,17.5755519 C49.0917028,17.7680811 49.2284189,17.9518619 49.4247333,18.157992 C49.8903229,18.6494477 50.6145733,19.0891711 51.5716184,19.2960998 C51.726815,19.3219659 51.8820115,19.347832 52.037208,19.347832 C53.319879,19.347832 54.5460111,18.1265919 55.3941131,17.1270836 C55.6767721,17.7117243 56.4666562,18.2897516 57.4173538,18.752912 C57.6760146,18.8822424 57.9864077,18.9598407 58.2709346,18.9598407 C59.3831763,18.9598407 60.1850249,18.0545277 60.805811,17.3820095 C62.4095083,15.6231157 63.2889552,13.4503645 63.9614734,10.7085594 C64.0132056,10.5016307 64.0908038,10.4240325 64.1942682,10.4240325 C64.452929,10.4240325 64.7891881,10.4240325 65.1513133,10.3723003 C65.8496977,10.268836 66.3928855,10.0360412 67.0395376,9.93257684 C67.4275289,9.85497859 67.3757967,9.72564816 67.7379219,9.59631773 C67.9965828,9.49285339 68.2035114,9.38938905 68.2035114,9.13072819 C68.2035114,8.69100474 67.4016628,8.2254152 66.1859568,8.2254152 C65.2289116,8.2254152 64.6598577,8.30301346 64.2718664,8.30301346 C63.6769465,8.30301346 63.52175,8.12195086 63.1337587,7.11317352 C63.1337587,7.11317352 63.52175,8.12195086 63.1337587,7.11317352 C63.0561604,6.90624484 62.9785622,6.80278049 62.7457674,6.59585181 C62.2025796,6.13026227 61.5300614,5.97506576 60.9868736,5.97506576 C59.6935693,5.97506576 58.5813276,7.29423612 57.8053451,8.4064778 C57.6242825,8.66513865 57.3656216,8.87206734 57.184559,9.15659428 C56.1190514,10.7548556 55.0988865,12.5571591 54.9730691,14.4998291 Z M21.9032183,5.69053882 C22.5498705,5.69053882 22.9119957,5.63880665 22.9895939,5.63880665 C23.0671922,5.63880665 23.1189244,5.66467273 23.1189244,5.74227099 C23.1189244,5.79400316 23.0930583,5.87160142 22.9119957,6.2595927 C21.3341645,9.6480499 20.2477889,13.0882393 19.2907437,16.8905539 C19.2648776,16.9940182 19.1872794,17.3820095 19.1872794,17.7700008 C19.1872794,18.132126 19.2907437,18.5201172 19.6528689,18.7270459 C20.3512532,19.1409033 20.9203071,19.3219659 21.3082984,19.3219659 C21.8773523,19.3219659 22.1618792,18.9598407 22.1618792,18.3649207 C22.1618792,17.847599 22.1877453,17.3044112 22.2653435,16.8905539 C22.9895939,13.0882393 24.0759695,10.1136394 25.7572651,7.00970918 C26.5591137,5.5353423 26.6625781,5.45774405 26.6625781,5.32841362 C26.6625781,5.27668145 26.636712,5.19908319 26.5849798,5.12148494 C27.6196232,4.88869017 28.8611953,4.73349365 29.9993031,4.73349365 C30.1286335,4.73349365 30.6459552,4.91455625 30.7235535,4.99215451 C30.9046161,5.17321711 31.0856787,5.3542797 31.3960717,5.3542797 C31.6547326,5.3542797 32.094456,5.17321711 32.2496525,5.06975276 C32.6117777,4.81109191 32.7928403,4.52656497 32.7928403,4.06097543 C32.7928403,3.62125197 31.163277,2.53487638 30.0251692,2.53487638 C28.6284006,2.53487638 27.3609624,2.71593898 26.1711224,2.94873375 C25.6538007,3.05219809 23.7914426,3.33672503 22.4464061,3.33672503 C21.1531019,3.33672503 21.2307001,3.15566243 20.6875123,3.15566243 C20.3771193,3.15566243 20.2219228,3.31085895 20.0925923,3.44018938 C19.9632619,3.5695198 19.8856637,4.08684151 19.8856637,4.55243105 C19.8856637,4.78522582 19.8856637,4.96628842 20.0149941,5.12148494 C20.4029854,5.58707447 21.1531019,5.69053882 21.9032183,5.69053882 C21.9032183,5.69053882 21.1531019,5.69053882 21.9032183,5.69053882 Z M41.0699877,7.78569174 C41.0699877,8.01848651 40.9923895,8.17368303 40.6819964,8.66513865 C40.3716034,9.15659428 40.5009338,9.15659428 40.1129426,9.67391599 C39.3628261,10.6826933 38.431647,11.6914707 37.215941,12.8037123 C36.8796819,13.1141054 36.8279497,13.1141054 36.7762175,13.1141054 C36.7503514,13.1141054 36.6986193,13.0882393 36.6986193,13.0365071 C36.6986193,12.9589089 36.7244853,12.8554445 36.9831462,12.3122567 C37.7849949,10.6309612 38.7679061,9.51871948 39.8542817,8.43234388 C40.4492017,7.83742392 40.8113269,7.63049523 40.9406573,7.63049523 C41.0182555,7.63049523 41.0699877,7.65636132 41.0699877,7.78569174 C41.0699877,7.78569174 41.0699877,7.65636132 41.0699877,7.78569174 Z M60.9610075,8.45820997 C60.9868736,8.45820997 61.0127397,8.48407605 61.0386057,8.53580823 C61.0644718,8.61340648 61.116204,8.69100474 61.2455344,8.79446908 C61.3489988,8.87206734 61.3489988,9.23419253 61.3489988,9.51871948 C61.3489988,12.0277298 59.9263641,14.0970166 58.5295954,16.1921695 C58.2192024,16.6577591 58.0381398,16.7353573 57.8829433,16.7353573 C57.7536129,16.7353573 57.5466842,16.3990982 57.4690859,16.1921695 C57.3656216,15.9076426 57.3397555,15.5713835 57.3397555,15.4420531 C57.3397555,13.4244984 59.2538458,10.4240325 60.521284,8.768603 C60.7282127,8.48407605 60.8834092,8.45820997 60.9610075,8.45820997 C60.9610075,8.45820997 60.8834092,8.45820997 60.9610075,8.45820997 Z" id="Type" fill="#0079BF"></path>
                    <g id="Mark" transform="translate(0.000000, 2.857680)">
                        <rect id="Board" fill="url(#linearGradient-3)" x="0" y="0" width="16.3295995" height="16.3295995" rx="2.04119993"></rect>
                        <rect id="Right-List" fill="#FFFFFF" x="9.22622369" y="2.12284793" width="4.98052783" height="7.14419976" rx="0.979775967"></rect>
                        <rect id="Left-List" fill="#FFFFFF" x="2.12284793" y="2.12284793" width="4.98052783" height="11.2265996" rx="0.979775967"></rect>
                    </g>
                </g>
            </g>
            <path d="M384.924223,46.5671174 L335.604226,46.5671174 C332.424226,46.5671174 329.845826,43.9887176 329.845826,40.8087177 L329.845826,22.4023188 C329.845826,19.221519 332.424226,16.6439192 335.604226,16.6439192 L384.924223,16.6439192 C388.105023,16.6439192 390.682623,19.221519 390.682623,22.4023188 L390.682623,40.8087177 C390.682623,43.9887176 388.105023,46.5671174 384.924223,46.5671174" id="Fill-5" fill="#D1D1D1"></path>
            <path d="M384.924223,105.046394 L335.604226,105.046394 C332.424226,105.046394 329.845826,102.467994 329.845826,99.2879943 L329.845826,63.8935964 C329.845826,60.7127966 332.424226,58.1343967 335.604226,58.1343967 L384.924223,58.1343967 C388.105023,58.1343967 390.682623,60.7127966 390.682623,63.8935964 L390.682623,99.2879943 C390.682623,102.467994 388.105023,105.046394 384.924223,105.046394" id="Fill-7" fill="#D1D1D1"></path>
            <path d="M304.841851,105.046394 L237.686597,105.046394 C233.356635,105.046394 229.845826,102.467994 229.845826,99.2879943 L229.845826,63.8935964 C229.845826,60.7127966 233.356635,58.1343967 237.686597,58.1343967 L304.841851,58.1343967 C309.172902,58.1343967 312.682622,60.7127966 312.682622,63.8935964 L312.682622,99.2879943 C312.682622,102.467994 309.172902,105.046394 304.841851,105.046394" id="Fill-7" fill="#D1D1D1"></path>
            <path d="M414.003173,254.450399 C414.003173,260.774399 324.459558,265.900799 214.001587,265.900799 C103.543615,265.900799 14,260.774399 14,254.450399 C14,248.1264 103.543615,243 214.001587,243 C324.459558,243 414.003173,248.1264 414.003173,254.450399" id="Fill-9" fill="#E8E8E8"></path>
            <path d="M189.480869,210.421027 L189.480869,210.421027 C185.554469,210.421027 182.341669,207.208228 182.341669,203.281828 L182.341669,193.838628 C182.341669,189.912229 185.554469,186.699429 189.480869,186.699429 C193.407268,186.699429 196.620068,189.912229 196.620068,193.838628 L196.620068,203.281828 C196.620068,207.208228 193.407268,210.421027 189.480869,210.421027" id="Fill-11" fill="#8C767E"></path>
            <path d="M189.169909,239.907746 L189.169909,239.907746 C187.572309,239.907746 186.277909,238.612546 186.277909,237.015746 L186.277909,183.826949 C186.277909,182.229349 187.572309,180.934949 189.169909,180.934949 C190.767509,180.934949 192.061909,182.229349 192.061909,183.826949 L192.061909,237.015746 C192.061909,238.612546 190.767509,239.907746 189.169909,239.907746" id="Fill-13" fill="#8C767E"></path>
            <path d="M167.53439,245.140945 L167.53439,245.140945 C166.05759,245.140945 164.85999,243.943345 164.85999,242.466546 L164.85999,240.240946 C164.85999,238.763346 166.05759,237.566546 167.53439,237.566546 C169.01119,237.566546 170.20799,238.763346 170.20799,240.240946 L170.20799,242.466546 C170.20799,243.943345 169.01119,245.140945 167.53439,245.140945" id="Fill-15" fill="#42373B"></path>
            <path d="M210.805427,245.140945 L210.805427,245.140945 C209.328628,245.140945 208.131028,243.943345 208.131028,242.466546 L208.131028,240.240946 C208.131028,238.763346 209.328628,237.566546 210.805427,237.566546 C212.282227,237.566546 213.479027,238.763346 213.479027,240.240946 L213.479027,242.466546 C213.479027,243.943345 212.282227,245.140945 210.805427,245.140945" id="Fill-17" fill="#42373B"></path>
            <path d="M189.493749,245.140945 L189.493749,245.140945 C188.016949,245.140945 186.820149,243.943345 186.820149,242.466546 L186.820149,240.240946 C186.820149,238.763346 188.016949,237.566546 189.493749,237.566546 C190.970549,237.566546 192.168149,238.763346 192.168149,240.240946 L192.168149,242.466546 C192.168149,243.943345 190.970549,245.140945 189.493749,245.140945" id="Fill-19" fill="#42373B"></path>
            <path d="M213.914467,242.248706 L165.23207,242.248706 C163.93927,242.248706 162.89047,241.200706 162.89047,239.907906 C162.89047,238.615106 163.93927,237.566306 165.23207,237.566306 L213.914467,237.566306 C215.207267,237.566306 216.255267,238.615106 216.255267,239.907906 C216.255267,241.200706 215.207267,242.248706 213.914467,242.248706" id="Fill-21" fill="#8C767E"></path>
            <path d="M178.055829,180.131509 L166.76143,139.169112 L157.115831,143.310711 L167.53423,184.285909 C168.40703,187.447509 177.118229,188.623509 180.397429,188.623509 L203.489428,188.623509 L203.489428,183.054709 L181.894229,183.054709 C180.103029,183.054709 178.531829,181.858709 178.055829,180.131509" id="Fill-23" fill="#8C767E"></path>
            <path d="M167.25895,193.758468 L215.575747,193.758468 C220.050147,193.758468 223.678147,190.130469 223.678147,185.655269 C223.678147,181.180069 220.050147,177.552069 215.575747,177.552069 L167.25895,177.552069 C162.78375,177.552069 159.155751,181.180069 159.155751,185.655269 C159.155751,190.130469 162.78375,193.758468 167.25895,193.758468" id="Fill-25" fill="#42373B"></path>
            <path d="M186.652309,166.92175 L160.53471,166.92175 C155.254711,166.92175 150.934711,162.60175 150.934711,157.321751 L150.934711,117.651353 C150.934711,112.371353 155.254711,108.051354 160.53471,108.051354 L186.652309,108.051354 C191.932309,108.051354 196.252308,112.371353 196.252308,117.651353 L196.252308,157.321751 C196.252308,162.60175 191.932309,166.92175 186.652309,166.92175" id="Fill-27" fill="#42373B"></path>
            <path d="M213.960147,104.239754 C213.960147,104.239754 220.719347,115.288553 221.966547,135.117352 C221.966547,135.117352 217.073747,134.653352 217.088147,133.950152 C217.102547,133.246952 213.960147,104.239754 213.960147,104.239754" id="Fill-29" fill="#F7AD36"></path>
            <polygon id="Fill-31" fill="#ED6C6C" points="259.992145 245.574145 269.904144 244.902945 266.624944 234.170146 257.132945 234.813346"></polygon>
            <polygon id="Fill-33" fill="#ED6C6C" points="215.450387 245.492865 226.061587 244.774465 224.726387 234.494466 214.115187 235.213666"></polygon>
            <path d="M283.605423,251.933505 C283.635823,252.316705 283.495023,252.679905 283.214223,252.939105 C282.932623,253.199105 279.671023,253.619105 279.247823,253.599105 C275.221424,253.403905 267.506224,252.607905 262.171024,252.350305 C261.340624,252.310305 260.527824,251.965505 259.922225,251.396705 C259.315025,250.827105 258.964625,250.082305 258.953425,249.331905 C258.907825,246.515105 258.845425,242.635906 258.845425,242.635906 L268.988624,241.703906 C268.988624,241.703906 277.323023,246.941505 281.517423,248.786305 C283.275023,249.559905 283.471023,250.227105 283.605423,251.932705 L283.605423,251.933505 Z" id="Fill-35" fill="#42373B"></path>
            <path d="M211.245267,145.826471 C211.245267,145.826471 217.498867,163.79207 217.066867,167.29287 C216.257267,173.85367 212.676467,178.503269 212.676467,178.503269 L181.992469,178.261669 C173.23167,178.192869 166.62287,170.28247 168.10767,161.64807 C168.11407,161.60647 168.12127,161.56487 168.12847,161.52487 C168.27087,160.70007 168.39727,159.87367 168.50927,159.044071 C169.03567,155.159271 170.61247,143.504871 170.61247,143.504871 C180.144469,149.684071 197.414868,152.228071 212.549267,148.144871 L211.245267,145.826471 Z" id="Fill-37" fill="#F7C4C9"></path>
            <path d="M236.485106,147.059671 L225.199507,137.172472 L216.659507,126.480472 L211.599507,138.457272 C216.624307,145.988471 223.618707,152.038871 234.626706,155.073271 L235.966706,151.057271 L236.485106,147.059671 Z" id="Fill-39" fill="#F7AD36"></path>
            <path d="M268.773424,237.406546 C268.769424,235.785746 258.939025,200.581748 253.390225,185.779349 C251.856625,181.688149 248.687825,178.322549 244.555825,176.392949 L211.599027,161.00415 L190.067029,178.204149 L235.387026,195.792148 C237.148626,206.969748 245.535025,223.146547 255.108625,238.486546 L268.773424,237.406546 Z" id="Fill-41" fill="#F7C4C9"></path>
            <path d="M260.627344,238.050306 C259.309745,227.793506 250.807345,218.620707 246.971345,213.519107 C242.094546,207.034308 245.070545,196.234308 243.043346,190.827109 C242.468146,189.292709 240.856946,187.300709 238.851346,185.308709 C234.403346,180.891109 228.688146,177.816709 222.482547,176.09911 C214.081747,173.77431 209.103348,170.43911 203.867348,167.18071 L190.066549,178.203909 L235.386546,195.792708 C237.148146,206.969508 245.535345,223.146307 255.108945,238.486306 L260.627344,238.050306 Z" id="Fill-43" fill="#DBAEB2"></path>
            <path d="M239.703906,253.571745 C239.734306,253.954945 239.592706,254.318145 239.312706,254.577345 C239.031106,254.837345 235.769506,255.258145 235.346306,255.237345 C231.319106,255.042945 223.603907,254.246145 218.269507,253.988545 C217.439107,253.948545 216.626307,253.603745 216.020707,253.034945 C215.413507,252.465345 215.063107,251.720545 215.051107,250.970145 C215.005507,248.153345 214.943107,244.274145 214.943107,244.274145 L226.214307,244.041345 C226.214307,244.041345 233.421506,248.579745 237.615906,250.424545 C239.373506,251.198145 239.568706,251.865345 239.703906,253.570945 L239.703906,253.571745 Z" id="Fill-45" fill="#42373B"></path>
            <path d="M203.024228,68.0018359 C203.024228,68.0018359 210.280227,71.2810358 204.597828,78.0410353 C198.915428,84.8002349 203.024228,68.0018359 203.024228,68.0018359" id="Fill-47" fill="#42373B"></path>
            <path d="M178.457429,99.8182341 C178.457429,99.8182341 178.530229,95.7350343 182.576629,93.7334344 C184.516629,92.7734345 187.612629,91.9990345 191.615829,92.9350345 C199.614228,94.8062343 202.306228,96.0254343 202.306228,96.0254343 L205.321428,106.003834 L195.246228,110.794233 L175.40543,95.9422343 L178.457429,99.8182341 Z" id="Fill-49" fill="#F7AD36"></path>
            <path d="M204.365988,73.7870356 C204.267588,71.3662357 203.175588,69.0926359 201.347588,67.502236 C199.518788,65.9118361 197.115588,65.1454361 194.704388,65.3838361 L194.703588,65.3838361 C190.037989,65.8446361 186.541189,69.8646358 186.732389,74.5494356 C186.841189,77.2446354 186.961189,80.1958352 187.065189,82.7526351 C187.135589,84.481435 187.915589,86.1046349 189.220389,87.2406348 C190.526789,88.3758347 192.241989,88.9230347 193.964388,88.7534347 C195.560388,88.5958347 197.257988,88.4278347 198.828388,88.2726347 C202.253988,87.9350348 204.821188,84.9830349 204.681188,81.5438351 C204.584388,79.1694353 204.471588,76.3982354 204.365988,73.7870356" id="Fill-51" fill="#ED6C6C"></path>
            <polygon id="Fill-53" fill="#ED6C6C" points="182.374629 98.8655141 188.700229 82.4471151 200.201828 87.5767148 197.010628 103.392714"></polygon>
            <path d="M191.812469,72.7471957 C191.812469,72.7471957 192.938068,80.7919952 186.623669,80.9767952 C186.623669,80.9767952 183.411669,73.7247956 183.042869,70.0031958 C182.358069,63.0831962 196.213268,61.7039963 201.825268,64.6495961 C207.436468,67.595196 203.996468,72.9111957 191.812469,72.7471957" id="Fill-55" fill="#42373B"></path>
            <path d="M198.515988,95.9323143 C194.699988,101.689114 185.570389,96.4707142 184.081589,94.4347144 C183.846389,94.1123144 179.818389,96.4675143 179.298389,96.8267142 C171.27279,102.363514 170.22799,126.132312 168.79519,134.699512 C168.12879,138.683512 164.38959,152.087511 166.38319,155.565111 C167.04399,156.715511 173.30719,155.833911 174.54159,156.053911 C179.773589,156.985911 203.229588,158.807511 206.449588,155.214711 C209.648788,151.646711 207.251188,145.002711 207.868788,140.781112 C211.116787,118.595513 204.904788,99.3459141 204.904788,99.3459141 L198.515988,95.9323143 Z" id="Fill-57" fill="#FFFFFF"></path>
            <path d="M207.190628,127.238952 C202.641028,139.374952 168.73623,126.347752 172.58983,120.520553 C177.969029,112.388553 170.22823,126.132552 168.79463,134.699752 C168.12903,138.683752 164.38983,152.087751 166.38343,155.565351 C167.04343,156.715751 169.71943,166.02215 170.97223,166.06775 C187.569029,166.66695 213.095427,167.60775 214.243427,162.92135 C215.861027,156.318151 208.413828,145.013351 207.869028,140.780552 C206.456228,129.805352 207.190628,127.238952 207.190628,127.238952" id="Fill-59" fill="#E8E8E8"></path>
            <path d="M186.759349,77.6147154 C187.905749,77.3227154 189.138549,78.2739153 189.510549,79.7363152 C189.883349,81.1995152 189.256949,82.6251151 188.109749,82.9163151 C186.964149,83.209115 185.731349,82.2579151 185.358549,80.7947152 C184.985749,79.3315153 185.612949,77.9067154 186.759349,77.6147154" id="Fill-61" fill="#ED6C6C"></path>
            <path d="M204.705028,81.5522351 C205.114628,80.8306352 206.838628,92.3914345 199.889028,92.9778345 C192.940228,93.5650344 190.021829,90.7314346 189.550629,77.4530354 C189.550629,77.4530354 192.337029,85.5202349 196.396228,85.6426349 C204.877028,85.8994349 204.213828,82.4170351 204.705028,81.5522351" id="Fill-63" fill="#42373B"></path>
            <path d="M175.56287,175.73895 L179.056469,170.71415 L202.586868,169.12855 L219.969267,176.892549 C225.207667,179.231749 228.528466,184.215749 228.481266,189.669349 L228.364466,203.328548 L228.330066,203.310148 L229.266866,241.150146 L213.824467,240.743746 C208.948468,222.550147 207.032468,207.077348 208.556468,192.978148 L175.56287,175.73895 Z" id="Fill-65" fill="#F7C4C9"></path>
            <path d="M202.305828,96.0252743 C202.305828,96.0252743 206.561028,117.680473 206.666628,130.722072 C206.772228,143.763671 212.586627,170.34927 212.586627,170.34927 C214.683427,166.45407 222.125827,167.62367 222.793027,164.07007 C222.793027,164.07007 216.274627,121.172473 215.125027,109.925273 C214.001827,98.9332741 209.754627,99.0116741 202.305828,96.0252743" id="Fill-67" fill="#F7AD36"></path>
            <path d="M196.330468,72.4936757 C196.330468,72.4936757 211.724067,71.2856758 208.148068,64.4616762 C204.840868,58.1496765 194.064868,71.4440757 191.800869,69.0176759 L196.330468,72.4936757 Z" id="Fill-69" fill="#42373B"></path>
            <path d="M215.125347,149.899911 C215.125347,149.899911 219.014947,147.238311 221.499747,148.530311 C222.682947,149.146311 224.652547,149.179111 226.420547,150.161511 C228.363746,151.240711 230.461347,154.213511 230.461347,154.213511 C230.461347,154.213511 230.470946,156.966311 228.019746,157.445511 C227.143746,157.615911 224.522147,155.277511 224.522147,155.277511 C222.154947,156.123911 219.326147,156.106311 216.119747,155.382311 L215.125347,149.899911 Z" id="Fill-71" fill="#ED6C6C"></path>
            <path d="M233.232786,149.678791 C233.232786,149.678791 236.915986,146.738791 239.488786,147.845191 C240.715186,148.372391 242.681586,148.261191 244.515985,149.110791 C246.533585,150.045191 248.843985,152.855591 248.843985,152.855591 C248.843985,152.855591 249.055185,155.600391 246.646385,156.257191 C245.784785,156.492391 242.999186,154.352391 242.999186,154.352391 C240.699986,155.369991 237.877586,155.560391 234.626386,155.073191 L233.232786,149.678791 Z" id="Fill-73" fill="#ED6C6C"></path>
            <polygon id="Fill-75" fill="#ED6C6C" points="215.125347 149.899911 202.790148 148.992711 202.306148 155.571111 217.751747 154.718311"></polygon>
            <polygon id="Fill-77" fill="#FFFFFF" points="210.435187 156.161591 250.818385 156.161591 250.818385 153.597591 210.435187 153.597591"></polygon>
            <path d="M160.37655,139.797992 C160.51895,133.799592 160.98615,126.681192 162.12695,119.373993 C163.46455,110.809193 165.19335,104.382794 168.19895,100.833994 C170.83495,97.7219942 173.34695,97.2459942 176.702949,95.5923943 L182.576549,93.7331944 C186.170149,110.437993 188.646949,126.377192 187.091749,142.919591 L206.710148,146.811591 L206.666948,156.161991 L184.968549,156.161991 L176.374949,156.161991 L170.33495,154.198791 L164.59415,150.989191 C161.89255,148.053191 160.27415,144.110791 160.37655,139.797992" id="Fill-79" fill="#F7AD36"></path>
            <path d="M240.534386,156.161591 L286.877583,156.161591 L300.859982,124.999193 L255.579185,124.999193 C254.932785,124.999193 254.347185,125.378393 254.083185,125.967992 L240.534386,156.161591 Z" id="Fill-80" fill="#FFFFFF"></path>
            <path d="M242.331986,156.161591 L288.675183,156.161591 L302.014382,126.433592 C302.315982,125.760793 301.823182,124.999193 301.085582,124.999193 L256.974385,124.999193 C256.572785,124.999193 256.209585,125.235193 256.045585,125.600793 L242.331986,156.161591 Z" id="Fill-81" fill="#334AC0"></path>
            <path d="M187.569109,135.954952 C187.569109,135.954952 187.961109,152.534151 191.785909,160.15415 C193.476308,163.52135 202.305908,172.50055 202.305908,172.50055 C202.305908,172.50055 168.43551,175.85095 167.35631,162.18855 C166.22911,147.921351 162.98271,132.615752 162.98271,132.615752 L187.569109,135.954952 Z" id="Fill-82" fill="#F7AD36"></path>
            <path d="M270.810944,140.776872 C270.260544,142.720071 271.763744,144.296071 274.170144,144.296071 C276.576544,144.296071 278.974143,142.720071 279.526143,140.776872 C280.076543,138.832872 278.572543,137.257672 276.166144,137.257672 C273.760544,137.257672 271.362144,138.832872 270.810944,140.776872" id="Fill-83" fill="#FFFFFF"></path>
            <path d="M160.37655,139.797992 C160.51895,133.799592 160.98615,126.681192 162.12695,119.373993 C163.46455,110.809193 165.19335,104.382794 168.19895,100.833994 C170.83495,97.7219942 173.34695,97.2459942 176.702949,95.5923943 L182.576549,93.7331944 C160.07575,105.257994 167.35975,129.924392 165.80455,146.465991 C169.42295,148.392391 171.13095,147.776391 179.549349,149.459591 C184.046949,150.829991 188.451749,152.814791 195.214948,154.011591 C200.294948,152.935591 203.148548,152.586791 206.666948,153.597991 L206.666948,156.161991 L184.968549,156.161991 L176.374949,156.161991 L170.33495,154.198791 L164.59415,150.989191 C161.89255,148.053191 160.27415,144.110791 160.37655,139.797992" id="Fill-84" fill="#F7AD36"></path>
            <path d="M93.0316745,128.297592 C100.261274,123.889593 104.339674,121.943993 111.498073,117.350393 L115.304473,119.708793 C102.320474,131.077592 99.0996741,137.098392 91.9228745,138.689592 C81.3580752,131.557592 90.0212746,139.566392 93.0316745,128.297592" id="Fill-85" fill="#ED6C6C"></path>
            <path d="M92.1355145,127.549112 C96.5683142,128.062712 98.8851141,135.942712 97.3235142,137.282712 L84.637115,141.419512 L74.9827155,132.525912 L71.4243157,115.368313 L84.637115,129.454712 L92.1355145,127.549112 Z" id="Fill-86" fill="#DBAEB2"></path>
            <path d="M53.5773568,220.518227 L53.5773568,220.518227 C49.650957,220.518227 46.4381572,217.305427 46.4381572,213.379027 L46.4381572,203.935028 C46.4381572,200.008628 49.650957,196.796628 53.5773568,196.796628 C57.5037566,196.796628 60.7165564,200.008628 60.7165564,203.935028 L60.7165564,213.379027 C60.7165564,217.305427 57.5037566,220.518227 53.5773568,220.518227" id="Fill-87" fill="#8C767E"></path>
            <path d="M53.2663968,250.004625 L53.2663968,250.004625 C51.6687969,250.004625 50.374397,248.710225 50.374397,247.112625 L50.374397,193.923828 C50.374397,192.326229 51.6687969,191.031829 53.2663968,191.031829 C54.8639967,191.031829 56.1583967,192.326229 56.1583967,193.923828 L56.1583967,247.112625 C56.1583967,248.710225 54.8639967,250.004625 53.2663968,250.004625" id="Fill-88" fill="#8C767E"></path>
            <path d="M31.6308781,255.237825 L31.6308781,255.237825 C30.1540782,255.237825 28.9572783,254.040225 28.9572783,252.563425 L28.9572783,250.337825 C28.9572783,248.861025 30.1540782,247.663425 31.6308781,247.663425 C33.107678,247.663425 34.305278,248.861025 34.305278,250.337825 L34.305278,252.563425 C34.305278,254.040225 33.107678,255.237825 31.6308781,255.237825" id="Fill-89" fill="#42373B"></path>
            <path d="M74.9019155,255.237825 L74.9019155,255.237825 C73.4251156,255.237825 72.2275157,254.040225 72.2275157,252.563425 L72.2275157,250.337825 C72.2275157,248.861025 73.4251156,247.663425 74.9019155,247.663425 C76.3787154,247.663425 77.5755154,248.861025 77.5755154,250.337825 L77.5755154,252.563425 C77.5755154,254.040225 76.3787154,255.237825 74.9019155,255.237825" id="Fill-90" fill="#42373B"></path>
            <path d="M53.5906368,255.237825 L53.5906368,255.237825 C52.1138369,255.237825 50.916237,254.040225 50.916237,252.563425 L50.916237,250.337825 C50.916237,248.861025 52.1138369,247.663425 53.5906368,247.663425 C55.0674367,247.663425 56.2642366,248.861025 56.2642366,250.337825 L56.2642366,252.563425 C56.2642366,254.040225 55.0674367,255.237825 53.5906368,255.237825" id="Fill-91" fill="#42373B"></path>
            <path d="M78.0109554,252.345985 L29.3285583,252.345985 C28.0357583,252.345985 26.9877584,251.297185 26.9877584,250.004385 C26.9877584,248.711585 28.0357583,247.663585 29.3285583,247.663585 L78.0109554,247.663585 C79.3037553,247.663585 80.3517552,248.711585 80.3517552,250.004385 C80.3517552,251.297185 79.3037553,252.345985 78.0109554,252.345985" id="Fill-92" fill="#8C767E"></path>
            <path d="M20.1054388,190.228389 L8.81103947,149.265991 L3.24303981,149.265991 L15.4198391,193.370788 C16.292639,196.531588 19.1678389,198.721188 22.4470387,198.721188 L45.5390373,198.721188 L45.5390373,193.151588 L23.9438386,193.151588 C22.1526387,193.151588 20.5814388,191.955589 20.1054388,190.228389" id="Fill-93" fill="#8C767E"></path>
            <path d="M31.3554381,203.855348 L79.6722353,203.855348 C84.147435,203.855348 87.7746348,200.227348 87.7746348,195.752148 C87.7746348,191.276949 84.147435,187.648949 79.6722353,187.648949 L31.3554381,187.648949 C26.8802384,187.648949 23.2522386,191.276949 23.2522386,195.752148 C23.2522386,200.227348 26.8802384,203.855348 31.3554381,203.855348" id="Fill-94" fill="#42373B"></path>
            <path d="M0.944959944,118.230393 L17.527359,177.390389 C18.5801589,181.147989 22.4801587,183.339989 26.2377584,182.287189 C29.9953582,181.233589 32.1873581,177.333589 31.1345581,173.57679 L14.5521591,114.415993 C13.4985592,110.659193 9.59855943,108.466394 5.84175965,109.519993 C2.08415988,110.572793 -0.108639994,114.472793 0.944959944,118.230393" id="Fill-95" fill="#42373B"></path>
            <path d="M10.5144794,165.33935 L14.8192791,164.15615 L8.11767952,139.772952 L3.81287977,140.956152 C1.05127994,141.715352 -0.571919966,144.569751 0.186479989,147.330551 L4.13927975,161.71295 C4.89847971,164.47535 7.75287954,166.09855 10.5144794,165.33935" id="Fill-96" fill="#42373B"></path>
            <path d="M120.733193,245.087825 L128.297992,245.383025 L101.040394,176.414229 L45.3571973,171.41823 L49.3323971,181.743829 C95.2075943,184.031829 93.8283944,190.334229 93.8283944,190.334229 C92.6675945,207.126228 103.628394,219.572627 120.733193,245.087825" id="Fill-97" fill="#D66262"></path>
            <path d="M90.1835946,245.523345 L96.0355943,245.404945 L100.573994,193.971348 C104.122794,165.98655 90.9659946,176.666549 46.4379972,174.06335 L46.4931972,180.565749 C91.9339945,182.870549 88.8323947,192.06335 88.8323947,192.06335 C84.479595,208.983348 87.7323948,215.006547 90.1835946,245.523345" id="Fill-98" fill="#ED6C6C"></path>
            <path d="M44.4101574,191.826069 L89.4093547,194.096468 L101.040554,176.177269 L49.972557,160.40207 C44.8501573,160.40207 39.1597577,157.809271 39.1597577,164.34767 L35.9365579,179.987669 C35.9365579,186.526069 39.2885577,191.826069 44.4101574,191.826069" id="Fill-99" fill="#829CBC"></path>
            <path d="M48.4769571,188.396389 C41.3473575,187.972389 40.7825576,178.689989 44.8033573,164.80759 L46.3769572,160.11079 C42.5745575,159.68119 39.3185577,159.40279 39.3185577,164.34759 L36.0961578,179.987589 C34.5353579,187.054789 39.4481576,191.825989 44.5697573,191.825989 L89.5681547,194.096388 L90.6433546,192.440389 L48.4769571,188.396389 Z" id="Fill-100" fill="#748CA8"></path>
            <path d="M108.728874,146.595991 L114.272873,145.935991 C115.380073,145.803991 116.499273,146.074391 117.424873,146.696791 L123.876073,151.036791 L121.223273,152.925591 L114.209673,153.361591 C112.662473,153.457591 111.031273,152.937591 109.645673,151.907191 L107.336074,150.190391 L108.728874,146.595991 Z" id="Fill-101" fill="#ED6C6C"></path>
            <path d="M87.3406348,146.315911 C95.8078343,146.403111 100.297434,146.911911 108.803034,146.804711 L110.783033,150.820711 C93.7494344,153.591911 87.8294348,156.995111 80.8990352,154.545511 C75.7110355,142.901511 78.8206353,154.283111 87.3406348,146.315911" id="Fill-102" fill="#ED6C6C"></path>
            <path d="M112.496473,121.355753 L118.057273,121.850153 C119.168473,121.949353 120.278873,121.646153 121.185273,120.995753 L124.858073,118.362953 C126.138072,117.446153 126.106072,115.531753 124.796473,114.657353 L117.773273,114.430153 C116.223673,114.380553 114.609273,114.948553 113.254873,116.019753 L110.997273,117.805353 L112.496473,121.355753 Z" id="Fill-103" fill="#ED6C6C"></path>
            <path d="M66.1425561,74.2046356 C66.1425561,74.2046356 81.4745551,69.6022359 79.2441553,84.077435 C77.2681554,96.9038342 69.8753558,102.774234 69.8753558,102.774234 L63.3833562,76.0318355 L66.1425561,74.2046356 Z" id="Fill-104" fill="#42373B"></path>
            <polygon id="Fill-105" fill="#ED6C6C" points="56.7039166 111.078393 65.2863161 114.951193 73.0567156 98.1263942 64.6559161 93.8975944"></polygon>
            <path d="M59.3350868,87.9526348 C59.3767165,80.6126352 59.6519164,79.3102353 65.6215161,76.8974354 C71.7839157,75.0286355 68.0687159,78.0734353 74.8767155,78.2606353 C78.8823153,78.3710353 79.6135153,81.9238351 79.8527152,86.5206348 C79.9367152,88.1254347 80.9343152,89.4502347 82.6447151,90.9014346 C83.231915,91.9086345 81.6087151,93.0398345 81.1855152,93.6046344 C80.6871152,94.2686344 81.3391152,98.8694341 79.8975152,99.886234 C78.7327153,100.706234 71.7687157,101.797434 71.7687157,101.797434 C63.8759162,99.4846341 63.3767162,84.710235 63.3767162,84.710235 C62.4879163,82.3438351 59.3239165,89.9014346 59.3350868,87.9526348" id="Fill-106" fill="#ED6C6C"></path>
            <path d="M64.8331961,74.2049556 C64.8331961,74.2049556 51.008397,76.4529554 57.7771966,92.5545545 C58.4555965,94.1705544 59.4571965,96.0241543 61.2627963,97.7001542 C62.5315963,98.8785541 63.7075962,99.0185541 65.4043961,98.6737541 C66.884396,98.3737541 67.597996,97.2649542 67.666796,97.1073542 C70.6979958,90.2665546 70.1419958,91.8849545 71.3931957,81.1185552 L76.0323955,78.0177553 L70.8979958,74.2041556 L64.8331961,74.2049556 Z" id="Fill-107" fill="#42373B"></path>
            <path d="M69.0851159,93.3424744 C69.0851159,93.3424744 64.0419162,83.892075 67.053116,80.4672752 L76.6931154,76.3672754 C76.6931154,76.3672754 77.5843154,87.5200748 69.0851159,93.3424744" id="Fill-108" fill="#42373B"></path>
            <path d="M68.4179959,107.813194 L76.4579954,122.315593 C79.2915953,126.185192 80.7491952,132.761992 80.2579952,137.532392 L70.8307958,146.831591 L67.006796,157.526791 C68.1123959,161.42999 69.9795958,165.18039 66.652396,165.55479 L38.3123977,164.58519 C40.0059976,129.808392 45.7619973,109.591593 59.6211964,104.448394 C61.5955963,103.715594 64.4875962,105.742794 68.4179959,107.813194" id="Fill-109" fill="#F7C4C9"></path>
            <polygon id="Fill-110" fill="#D1D1D1" points="71.3187157 108.535834 59.1835165 101.303034 56.1667167 104.648634 72.7995157 114.427033"></polygon>
            <path d="M80.9246352,154.936231 C85.3542349,153.570631 88.1846347,150.907431 88.6406347,146.316231 L69.7574358,121.219433 C68.3894359,118.970633 66.277436,115.969033 63.7518362,115.481833 C60.4470364,114.843433 56.6622366,116.817033 58.6414365,123.630633 C60.3438364,129.490632 73.2574356,146.724231 80.9246352,154.936231" id="Fill-111" fill="#F7C4C9"></path>
            <path d="M128.297672,244.582305 L135.010472,248.858305 C136.364072,249.889505 142.912871,250.971905 143.152071,251.707105 C143.480871,252.717505 142.641671,255.075105 139.846472,255.117505 L136.186472,255.237505 L122.724873,254.465505 C122.724873,254.465505 118.183273,253.747905 120.732873,245.087905 L128.297672,244.582305 Z" id="Fill-112" fill="#42373B"></path>
            <path d="M97.7503942,244.582305 L104.463194,248.858305 C105.816794,249.889505 112.365593,250.971905 112.604793,251.707105 C112.933593,252.717505 112.095193,255.075105 109.299193,255.117505 L105.639194,255.237505 L92.1775945,254.465505 C92.1775945,254.465505 87.6359948,253.747905 90.1863946,245.087905 L97.7503942,244.582305 Z" id="Fill-113" fill="#42373B"></path>
            <path d="M396.452296,255.686625 L396.452296,255.686625 C395.341096,256.105825 394.086697,255.579425 393.650697,254.510625 L355.378699,160.69703 C354.942699,159.62823 355.489899,158.421031 356.601899,158.001831 C357.712299,157.582631 358.966699,158.109031 359.402699,159.177831 L397.674696,252.991425 C398.110696,254.060225 397.564296,255.267425 396.452296,255.686625" id="Fill-121" fill="#8C767E"></path>
            <path d="M178.405429,258.239345 L178.405429,258.239345 C177.294229,258.658545 176.02943,258.105745 175.58063,257.005745 L136.220632,160.41855 C135.771832,159.318551 136.308632,158.086551 137.420632,157.667351 C138.531832,157.248151 139.796632,157.800951 140.244632,158.900951 L179.605429,255.488145 C180.054229,256.588145 179.516629,257.820145 178.405429,258.239345" id="Fill-122" fill="#8C767E"></path>
            <path d="M63.2675962,259.751825 L63.2675962,259.751825 C62.1603963,259.322225 61.6419963,258.069425 62.1099963,256.953425 L103.154794,159.027831 C103.622794,157.911831 104.899594,157.355831 106.006794,157.785431 C107.113994,158.214231 107.632394,159.46703 107.164394,160.58303 L66.1187961,258.508625 C65.6507961,259.624625 64.3747962,260.181424 63.2675962,259.751825" id="Fill-123" fill="#705E65"></path>
            <path d="M289.447663,264.961584 L289.447663,264.961584 C288.339663,264.532784 287.838063,263.238384 288.327663,262.069584 L331.23486,159.53279 C331.72366,158.364791 333.01806,157.764791 334.12526,158.194391 C335.23246,158.622391 335.73406,159.91679 335.24526,161.08559 L292.337263,263.622384 C291.848463,264.790384 290.554863,265.390384 289.447663,264.961584" id="Fill-124" fill="#705E65"></path>
            <path d="M374.431978,160.48079 L96.8767942,160.48079 C95.5455943,160.48079 94.4559944,159.39119 94.4559944,158.059991 C94.4559944,156.727991 95.5455943,155.638391 96.8767942,155.638391 L374.431978,155.638391 C375.763978,155.638391 376.852778,156.727991 376.852778,158.059991 C376.852778,159.39119 375.763978,160.48079 374.431978,160.48079" id="Fill-125" fill="#42373B"></path>
            <path d="M72.6788757,91.0366346 C73.1388756,93.3278344 72.2460757,95.3366343 70.6844758,95.5230343 C69.1228759,95.7102343 67.483676,94.0038344 67.023676,91.7134345 C66.563676,89.4214347 67.456476,87.4134348 69.0180759,87.2262348 C70.5796758,87.0390348 72.2188757,88.7454347 72.6788757,91.0366346" id="Fill-157" fill="#ED6C6C"></path>
            <path d="M59.8667964,79.7213552 C59.8667964,79.7213552 46.3675972,74.9565555 44.3483974,91.8069545 C42.6867975,105.662954 48.9867971,110.915753 46.3699972,116.526153 C45.6779973,118.010153 47.1339972,119.591753 48.6995971,119.110153 C53.9003968,117.508553 60.8827964,113.929353 60.3755964,106.311754 C59.5747964,94.2661544 59.8051964,85.8965549 60.5123964,85.6525549 C61.2187964,85.4077549 59.8667964,79.7213552 59.8667964,79.7213552" id="Fill-158" fill="#42373B"></path>
            <path d="M65.2437561,135.152232 C56.8813566,146.285031 56.7037566,165.21463 56.7037566,165.21463 L66.652556,165.55463 C69.9789558,165.18103 68.1125559,161.42983 67.006956,157.526631 L68.6213559,153.009831 L70.8301558,146.832231 L72.7997557,144.889031 L65.2437561,135.152232 Z" id="Fill-159" fill="#DBAEB2"></path>
            <path d="M109.087513,155.381511 L141.853912,155.381511 L141.853912,151.555111 L105.261114,151.555111 C105.261114,153.668711 106.973914,155.381511 109.087513,155.381511" id="Fill-160" fill="#D1D1D1"></path>
            <path d="M142.770311,154.370631 L156.339111,121.661833 C156.705511,120.779433 156.287111,119.766633 155.403911,119.401033 L155.066311,119.260233 C154.183911,118.893833 153.171111,119.312233 152.805511,120.194633 L139.236712,152.904231 C138.870312,153.786631 139.288712,154.798631 140.171112,155.165031 L140.509512,155.305031 C141.391912,155.671431 142.403912,155.253031 142.770311,154.370631" id="Fill-161" fill="#D1D1D1"></path>
            <path d="M90.1863146,245.087825 C90.1863146,245.087825 98.2551141,253.139825 104.831114,249.081426 L95.5591143,243.081426 L90.1863146,245.087825 Z" id="Fill-162" fill="#ED6C6C"></path>
            <path d="M120.680473,245.087825 C120.680473,245.087825 128.749272,253.139825 135.325272,249.081426 L126.053272,243.081426 L120.680473,245.087825 Z" id="Fill-163" fill="#D66262"></path>
        </g>
    </g>
</svg>