<?xml version="1.0" encoding="UTF-8"?>
<svg width="480px" height="300px" viewBox="0 0 480 300" version="1.1" xmlns="http://www.w3.org/2000/svg" xmlns:xlink="http://www.w3.org/1999/xlink">
    <!-- Generator: Sketch 64 (93537) - https://sketch.com -->
    <title>use-cases-1</title>
    <desc>Created with Sketch.</desc>
    <defs>
        <rect id="path-1" x="0.648343219" y="0.697936032" width="59.3999965" height="22.3199973" rx="2.15999974"></rect>
        <filter x="-13.5%" y="-31.4%" width="126.9%" height="171.7%" filterUnits="objectBoundingBox" id="filter-2">
            <feOffset dx="0" dy="1" in="SourceAlpha" result="shadowOffsetOuter1"></feOffset>
            <feGaussianBlur stdDeviation="2.5" in="shadowOffsetOuter1" result="shadowBlurOuter1"></feGaussianBlur>
            <feColorMatrix values="0 0 0 0 0   0 0 0 0 0   0 0 0 0 0  0 0 0 0.2 0" type="matrix" in="shadowBlurOuter1"></feColorMatrix>
        </filter>
        <linearGradient x1="50%" y1="0%" x2="50%" y2="100%" id="linearGradient-3">
            <stop stop-color="#0079BF" offset="0%"></stop>
            <stop stop-color="#0079BF" offset="100%"></stop>
        </linearGradient>
    </defs>
    <g id="use-cases-1" stroke="none" stroke-width="1" fill="none" fill-rule="evenodd">
        <g id="Group" transform="translate(60.000000, 22.000000)">
            <path d="M321.85,185.42 C321.85,185.42 328.631,144.72 355.733,119.173 C355.733,119.173 370.086,173.066 333.497,186.622 C330.85,187.603 321.85,185.42 321.85,185.42" id="Fill-13" fill="#73804D"></path>
            <path d="M315.006,138.823 C315.006,138.823 313.947,102.564 285.536,93.642 C285.536,93.642 278.61,149.884 311.98,185.42 L318.888,188.867 L315.006,138.823" id="Fill-14" fill="#73804D"></path>
            <path d="M314.3,186.622 C314.3,186.622 301.947,116.109 334.241,85.591 C334.241,85.591 351.31,137.128 323.111,188.867 L314.3,186.622" id="Fill-15" fill="#97A85E"></path>
            <path d="M326.465,65.848 L229.495,65.848 C222.895,65.848 217.495,60.448 217.495,53.848 L217.495,25.221 C217.495,18.62 222.895,13.221 229.495,13.221 L326.465,13.221 C333.066,13.221 338.465,18.62 338.465,25.221 L338.465,53.848 C338.465,60.448 333.066,65.848 326.465,65.848" id="Fill-34" fill="#DBDBDB"></path>
            <path d="M284.54,35.751 L233.744,35.751 C230.873,35.751 228.525,33.402 228.525,30.531 C228.525,27.66 230.873,25.312 233.744,25.312 L284.54,25.312 C287.411,25.312 289.76,27.66 289.76,30.531 C289.76,33.402 287.411,35.751 284.54,35.751" id="Fill-35" fill="#334AC0"></path>
            <path d="M323.452,35.751 L303.097,35.751 C300.226,35.751 297.878,33.402 297.878,30.531 C297.878,27.66 300.226,25.312 303.097,25.312 L323.452,25.312 C326.323,25.312 328.672,27.66 328.672,30.531 C328.672,33.402 326.323,35.751 323.452,35.751" id="Fill-36" fill="#334AC0"></path>
            <path d="M287.15,54.393 L231.134,54.393 C229.699,54.393 228.525,53.218 228.525,51.782 C228.525,50.347 229.699,49.173 231.134,49.173 L287.15,49.173 C288.586,49.173 289.76,50.347 289.76,51.782 C289.76,53.218 288.586,54.393 287.15,54.393" id="Fill-37" fill="#FFFFFF"></path>
            <path d="M182.32,28.588 C182.32,44.377 169.521,57.177 153.732,57.177 C137.943,57.177 125.144,44.377 125.144,28.588 C125.144,12.799 137.943,5.68434189e-14 153.732,5.68434189e-14 C169.521,5.68434189e-14 182.32,12.799 182.32,28.588" id="Fill-38" fill="#DBDBDB"></path>
            <polygon id="Fill-39" fill="#42373B" points="201.358 113.484 217.495 113.484 217.495 86.535 201.358 86.535"></polygon>
            <path d="M228.266,118.943 L193.224,118.943 C191.723,118.943 190.495,117.715 190.495,116.214 C190.495,114.713 191.723,113.484 193.224,113.484 L228.266,113.484 C229.767,113.484 230.995,114.713 230.995,116.214 C230.995,117.715 229.767,118.943 228.266,118.943" id="Fill-40" fill="#42373B"></path>
            <path d="M338.465,247.296 C338.465,251.977 262.697,255.771 169.233,255.771 C75.768,255.771 0,251.977 0,247.296 C0,242.616 75.768,238.822 169.233,238.822 C262.697,238.822 338.465,242.616 338.465,247.296" id="Fill-41" fill="#E8E8E8"></path>
            <path d="M93.113,242.922 L93.113,242.922 C94.082,242.546 94.566,241.528 94.194,240.65 L61.554,163.453 C61.182,162.574 60.095,162.165 59.126,162.54 C58.157,162.916 57.673,163.934 58.046,164.813 L90.686,242.009 C91.058,242.888 92.145,243.297 93.113,242.922" id="Fill-42" fill="#8C767E"></path>
            <polyline id="Fill-43" fill="#ED6C6C" points="75.939 223.433 88.073 229.231 96.326 219.814 84.192 214.016 75.939 223.433"></polyline>
            <path d="M96.23,245.558 C95.966,245.945 95.53,246.212 95.019,246.298 C94.507,246.384 90.574,244.89 90.122,244.623 C85.818,242.091 77.901,236.833 72.199,233.479 C71.311,232.956 70.679,232.151 70.448,231.251 C70.217,230.35 70.406,229.429 70.973,228.699 C73.102,225.963 76.032,222.194 76.032,222.194 L88.679,228.533 C88.679,228.533 93.141,237.096 96.354,241.314 C97.7,243.081 97.4,243.838 96.23,245.558" id="Fill-44" fill="#42373B"></path>
            <path d="M142.579,177.275 L94.5,224.812 L78.807,216.02 C90.237,193.102 107.682,165.046 123.6,165.598 L142.579,177.275" id="Fill-45" fill="#42373B"></path>
            <polyline id="Fill-46" fill="#ED6C6C" points="153.12 238.046 164.579 231.008 161.155 218.963 149.696 226.001 153.12 238.046"></polyline>
            <path d="M182.8,233.442 C182.97,233.878 182.944,234.389 182.726,234.859 C182.508,235.33 179.053,237.731 178.577,237.953 C174.056,240.074 165.245,243.636 159.256,246.445 C158.323,246.882 157.302,246.949 156.429,246.63 C155.554,246.312 154.902,245.636 154.62,244.756 C153.565,241.453 152.111,236.906 152.111,236.906 L164.486,230.054 C164.486,230.054 174.073,231.209 179.368,230.942 C181.587,230.829 182.042,231.505 182.799,233.442 L182.8,233.442" id="Fill-47" fill="#42373B"></path>
            <path d="M320.008,244.003 L320.008,244.003 C318.619,244.527 317.051,243.869 316.506,242.533 L268.665,125.267 C268.12,123.931 268.804,122.422 270.194,121.898 C271.583,121.373 273.151,122.031 273.695,123.367 L321.536,240.635 C322.081,241.971 321.397,243.479 320.008,244.003" id="Fill-48" fill="#8C767E"></path>
            <path d="M4.094,246.813 L4.094,246.813 C2.71,246.275 2.062,244.71 2.647,243.316 L53.953,120.908 C54.538,119.513 56.134,118.817 57.518,119.355 C58.902,119.891 59.55,121.457 58.965,122.852 L7.658,245.259 C7.074,246.653 5.478,247.35 4.094,246.813" id="Fill-49" fill="#BA9DA8"></path>
            <path d="M186.251,255.597 L186.251,255.597 C184.867,255.062 184.24,253.443 184.851,251.983 L238.486,123.812 C239.097,122.352 240.715,121.602 242.099,122.138 C243.483,122.673 244.11,124.292 243.499,125.752 L189.864,253.923 C189.253,255.383 187.635,256.133 186.251,255.597" id="Fill-50" fill="#705E65"></path>
            <path d="M54.672,133.095 C54.672,133.095 50.775,163.515 76.187,166.955 C101.599,170.397 151.054,169.119 151.054,169.119 C151.054,169.119 155.289,147.367 139.678,143.635 C119.95,138.918 109.667,136.576 109.667,136.576 L54.672,133.095" id="Fill-51" fill="#57484E"></path>
            <path d="M71.512,58.724 L77.631,39.534 L91.122,44.619 L88.544,62.908 C84.515,58.346 78.402,57.79 71.512,58.724" id="Fill-52" fill="#ED6C6C"></path>
            <path d="M83.369,45.566 C83.369,45.566 83.901,52.111 89.352,57.177 L90.684,47.728 C87.914,47.666 85.376,47.143 83.369,45.566" id="Fill-53" fill="#D66262"></path>
            <path d="M74.905,30.023 C76.723,21.028 77.374,19.498 85.277,17.976 C93.286,17.166 87.996,20.007 96.301,21.875 C101.188,22.975 101.23,27.508 100.418,33.205 C100.134,35.193 101.039,37.058 102.787,39.249 C103.265,40.626 101.002,41.624 100.347,42.214 C99.576,42.908 100.166,49.606 98.275,50.739 C93.086,53.85 84.599,50.228 84.599,50.228 C75.474,45.49 80.643,27.018 80.643,27.018 C80.123,23.901 74.423,32.41 74.905,30.023" id="Fill-54" fill="#ED6C6C"></path>
            <path d="M85.154,34.11 C85.154,34.11 80.447,43.658 76.304,47.762 C74.05,49.995 71.633,47.313 71.458,44.145 C71.11,37.833 66.599,32.229 69.235,23.198 C70.587,18.571 81.305,16.113 89.445,15.415 C98.893,14.606 109.599,27.144 93.951,28.526 L89.109,37.376 C88.401,38.669 86.486,38.473 86.056,37.064 L85.154,34.11" id="Fill-55" fill="#42373B"></path>
            <path d="M81.018,32.1 C82.882,31.527 84.987,32.995 85.718,35.373 C86.449,37.753 85.53,40.15 83.666,40.722 C81.802,41.294 79.697,39.826 78.966,37.446 C78.236,35.068 79.154,32.672 81.018,32.1" id="Fill-56" fill="#ED6C6C"></path>
            <polygon id="Fill-207" fill="#705E65" points="135.537 118.943 186.015 118.943 186.015 115.738 135.537 115.738"></polygon>
            <path d="M281.44,124.996 L43.64,124.996 C41.975,124.996 40.613,123.634 40.613,121.97 C40.613,120.305 41.975,118.943 43.64,118.943 L281.44,118.943 C283.104,118.943 284.466,120.305 284.466,121.97 C284.466,123.634 283.104,124.996 281.44,124.996" id="Fill-208" fill="#42373B"></path>
            <path d="M326.653,248.914 L316.793,248.914 C304.134,248.914 293.873,238.652 293.873,225.994 L293.873,182.884 L349.574,182.884 L349.574,225.994 C349.574,238.652 339.312,248.914 326.653,248.914" id="Fill-280" fill="#E8E8E8"></path>
            <path d="M349.574,230.052 L349.574,186.622 C338.382,218.52 315.939,238.9 307.008,246.045 C311.282,247.853 316.314,248.914 321.723,248.914 C337.105,248.914 349.574,240.469 349.574,230.052" id="Fill-281" fill="#DBDBDB"></path>
            <path d="M111.4,90.21 L109.667,136.576 C109.667,136.576 85.693,144.091 53.678,135.466 C51.465,133.856 51.123,130.969 53.194,126.434 L52.634,95.71 C52.505,88.611 53.305,81.515 55.187,74.67 C57.532,66.139 61.806,56.836 69.405,55.481 C77.317,54.068 81.524,54.729 90.324,56.674 C100.886,59.01 108.964,68.032 110.123,78.584 L111.4,90.21" id="Fill-342" fill="#334AC0"></path>
            <path d="M157.019,108.925 C157.019,108.925 161.309,104.887 164.627,106.003 C166.208,106.535 168.646,106.196 171.019,107.067 C173.627,108.025 176.792,111.293 176.792,111.293 C176.792,111.293 177.334,114.691 174.4,115.755 C173.351,116.135 169.662,113.753 169.662,113.753 C166.902,115.255 161.662,116.861 157.562,116.585 L149.893,116.233 L146.363,111.909 L157.019,108.925" id="Fill-371" fill="#ED6C6C"></path>
            <path d="M106.386,68.846 L127.128,101.233 L153.448,104.666 C155.801,104.974 157.562,106.979 157.562,109.352 L157.562,117.341 L121.569,118.439 L98.01,104.939 L106.386,68.846" id="Fill-372" fill="#334AC0"></path>
            <path d="M151.489,164.549 L164.708,223.209 L148.453,230.913 C137.586,208.359 127.356,187.995 129.759,169.407 L151.489,164.549" id="Fill-373" fill="#57484E"></path>
            <path d="M129.463,247.331 L129.463,247.331 C130.431,246.956 130.9,245.9 130.508,244.973 L96.157,163.538 C95.766,162.61 94.663,162.162 93.694,162.536 C92.725,162.911 92.256,163.968 92.648,164.896 L126.999,246.33 C127.39,247.258 128.493,247.706 129.463,247.331" id="Fill-374" fill="#8C767E"></path>
            <path d="M74.008,203.146 L43.64,203.146 C42.852,203.146 42.206,202.5 42.206,201.712 C42.206,200.923 42.852,200.277 43.64,200.277 L74.008,200.277 C74.797,200.277 75.443,200.923 75.443,201.712 C75.443,202.5 74.797,203.146 74.008,203.146" id="Fill-375" fill="#8C767E"></path>
            <path d="M57.272,247.331 L57.272,247.331 C56.303,246.956 55.834,245.9 56.226,244.973 L90.577,163.538 C90.968,162.61 92.071,162.162 93.041,162.536 C94.009,162.911 94.478,163.968 94.087,164.896 L59.735,246.33 C59.343,247.258 58.241,247.706 57.272,247.331" id="Fill-376" fill="#8C767E"></path>
            <path d="M110.144,203.146 L77.621,203.146 C76.832,203.146 76.187,202.5 76.187,201.712 C76.187,200.923 76.832,200.277 77.621,200.277 L110.144,200.277 C110.933,200.277 111.578,200.923 111.578,201.712 C111.578,202.5 110.933,203.146 110.144,203.146" id="Fill-377" fill="#8C767E"></path>
            <path d="M23.137,246.518 L22.982,246.457 C22.055,246.099 21.608,245.09 21.982,244.203 L55.047,165.817 C55.421,164.931 56.475,164.503 57.401,164.86 L57.557,164.921 C58.483,165.279 58.93,166.288 58.556,167.175 L25.491,245.561 C25.117,246.447 24.064,246.875 23.137,246.518" id="Fill-378" fill="#8C767E"></path>
            <path d="M105.139,177.501 L47.234,177.501 C42.605,177.501 38.852,173.748 38.852,169.119 C38.852,164.489 42.605,160.736 47.234,160.736 L105.139,160.736 C109.769,160.736 113.522,164.489 113.522,169.119 C113.522,173.748 109.769,177.501 105.139,177.501" id="Fill-379" fill="#705E65"></path>
            <path d="M110.615,111.212 L98.01,99.467 L98.01,138.817 C98.01,138.817 105.441,139.046 109.667,136.576 C111.752,134.928 112.481,133.095 109.912,130.013 L110.615,111.212" id="Fill-380" fill="#273891"></path>
            <path d="M240.192,100.46 L169.876,100.46 C166.935,100.46 164.589,98.007 164.72,95.069 L166.769,49.102 C166.892,46.344 169.164,44.171 171.924,44.171 L242.241,44.171 C245.182,44.171 247.528,46.624 247.397,49.562 L245.348,95.529 C245.225,98.287 242.953,100.46 240.192,100.46" id="Fill-381" fill="#42373B"></path>
            <path d="M234.953,94.471 L175.449,94.471 C172.961,94.471 170.975,92.497 171.086,90.135 L172.82,53.159 C172.924,50.941 174.846,49.192 177.183,49.192 L236.687,49.192 C239.175,49.192 241.16,51.166 241.049,53.529 L239.316,90.504 C239.212,92.723 237.289,94.471 234.953,94.471" id="Fill-382" fill="#DBDBDB"></path>
            <g id="Group-23" transform="translate(206.500000, 72.000000) rotate(1.000000) translate(-206.500000, -72.000000) translate(176.000000, 60.000000)">
                <g id="Rectangle" transform="translate(30.348341, 11.857935) rotate(-1.000000) translate(-30.348341, -11.857935) ">
                    <use fill="black" fill-opacity="1" filter="url(#filter-2)" xlink:href="#path-1"></use>
                    <use fill="#FFFFFF" fill-rule="evenodd" xlink:href="#path-1"></use>
                </g>
                <g id="trello-logo-blue" transform="translate(5.885514, 4.188976)" fill-rule="nonzero">
                    <path d="M39.2664786,10.3570209 C38.521693,10.6604962 37.933968,11.7089576 37.0401045,12.3048666 C36.9846771,12.3418182 36.9292498,12.3602939 36.8922983,12.3602939 C36.8183952,12.3602939 36.7260163,12.2863908 36.7260163,11.9538269 C36.7260163,10.8083288 37.0955318,10.2540555 37.40962,9.44112138 C38.4996908,6.6143277 40.3657441,4.19400108 42.0285639,1.55196516 C42.1578943,1.34873163 42.2317974,1.12702232 42.2317974,0.886837233 C42.2317974,0.683603701 42.1578943,0.517321719 42.0655155,0.314088187 C41.9916124,0.147806206 41.6590484,0 41.2895329,0 C41.0862994,0 40.9015416,0.0184757757 40.6613565,0.0184757757 C39.7929951,0.0184757757 39.6082373,1.2933043 39.4050038,1.62586826 C38.0193206,3.97229177 36.4304039,6.87298856 35.6174697,8.92379966 C35.4392031,9.38353995 35.2466426,9.84328023 35.1002781,10.3151185 C34.2969348,10.5477449 33.6951058,11.6772791 32.7537245,12.3048666 C32.6982972,12.3418182 32.6428699,12.3602939 32.6059183,12.3602939 C32.5320152,12.3602939 32.4396363,12.2863908 32.4396363,11.9538269 C32.4396363,10.8083288 32.8091518,10.2540555 33.12324,9.44112138 C34.2133108,6.6143277 36.0793641,4.19400108 37.742184,1.55196516 C37.8715144,1.34873163 37.9454175,1.12702232 37.9454175,0.886837233 C37.9454175,0.683603701 37.8715144,0.517321719 37.7791355,0.314088187 C37.7052324,0.147806206 37.3726684,0 37.0031529,0 C36.7999194,0 36.6151616,0.0184757757 36.3749765,0.0184757757 C35.5066151,0.0184757757 35.3218573,1.2933043 35.1186238,1.62586826 C33.7329406,3.97229177 32.1440239,6.87298856 31.3310898,8.92379966 C31.2664618,9.09047192 31.1999551,9.25714424 31.134452,9.42439299 C31.1142245,9.43519712 31.0935686,9.44691337 31.0724289,9.45959716 C30.1301644,10.0138704 29.335706,10.9930865 28.1902079,11.6582145 C27.9684986,11.7875449 27.2848949,12.2679151 26.7306216,12.2679151 C26.6012912,12.2679151 26.4904366,12.2309635 26.3795819,12.1755362 C26.2132999,12.1016331 26.0470179,11.7505933 26.0470179,11.6397387 C26.0470179,11.5473598 26.0654937,11.528884 26.2502515,11.4180294 C27.8761197,10.4388133 29.2063756,9.03465431 30.3518737,7.63049536 C30.7768165,7.11317364 31.3310898,6.09700598 31.3310898,5.35797495 C31.3310898,4.87760478 31.1648078,4.32333151 30.5920588,4.12009798 C30.1855917,3.97229177 29.7236973,3.89838867 29.3541818,3.89838867 C28.3749657,3.89838867 27.6544104,4.34180729 27.2479434,4.76675013 C26.8341374,5.20851593 26.4338714,5.6621292 26.0620009,6.13168801 C25.6734552,5.79624097 25.125416,5.65358736 24.6059074,5.65358736 C23.9962068,5.65358736 22.8507087,6.41109417 22.2594839,6.85451278 C22.167105,6.92841589 22.1116777,6.96536744 22.0747262,6.96536744 C22.0562504,6.96536744 22.0377746,6.94689166 22.0377746,6.90994011 C22.0377746,6.89146433 22.0747262,6.72518235 22.0747262,6.42956994 C22.0747262,6.17090908 22.0192988,5.83834512 21.7791138,5.43187805 C21.7236864,5.33949918 21.3911225,5.13626564 20.9846554,5.13626564 C20.4858095,5.13626564 20.0239151,5.37645073 20.0239151,5.63511159 C20.0239151,5.81986934 20.190197,5.89377245 20.190197,6.06005443 C20.190197,6.15243331 20.1162939,6.57737615 20.0054393,6.98384321 C19.6913511,8.16629286 19.3033598,9.33026673 18.8968927,10.4942406 C18.6751834,11.1408927 17.9361524,11.7136418 17.9361524,12.4157213 C17.9361524,12.6374306 18.0839586,12.933043 18.2871921,13.1547523 C18.6197561,13.5242678 18.8229896,13.6535982 19.1186021,13.6535982 C19.2479325,13.6535982 19.3957387,13.6166467 19.5250691,13.505792 C19.8022058,13.2656069 19.950012,13.0254219 20.0239151,12.6928579 C20.5042852,10.5127164 21.8899684,9.03465431 23.4234578,8.0554382 C23.9407795,7.72287424 24.642859,7.3718345 24.7352379,7.3718345 C24.8299635,7.3718345 24.9781117,7.41554388 25.1273928,7.45814291 C24.698725,8.1573331 24.3513954,8.89469716 24.1255373,9.68130646 C24.0516342,9.93996732 24.0146826,10.1801524 24.0146826,10.4388133 C24.0146826,10.8637561 24.1070615,11.3071747 24.2548677,11.7321176 C24.4581012,12.3233424 24.7906652,12.8406641 25.2525596,13.0808492 C26.1024453,13.5242678 26.7121459,13.7644529 27.2664191,13.7644529 C27.5805073,13.7644529 27.8206924,13.7090256 28.0793533,13.5612194 C29.2937082,12.8741501 30.0382336,12.352903 30.5758433,11.8899225 C30.5905843,12.3593447 30.6831176,12.6194163 31.0170016,12.9699945 C31.3495656,13.3210343 31.8668873,13.6351225 32.550491,13.7829287 C32.6613456,13.8014044 32.7722003,13.8198802 32.8830549,13.8198802 C33.6651902,13.8198802 34.4178943,13.1841655 34.9983024,12.5539658 C35.0655026,12.6914867 35.163157,12.8227587 35.3033816,12.9699945 C35.6359455,13.3210343 36.1532672,13.6351225 36.8368709,13.7829287 C36.9477256,13.8014044 37.0585803,13.8198802 37.1694349,13.8198802 C38.0856285,13.8198802 38.9614371,12.9475658 39.5672243,12.2336314 C39.7691236,12.6512319 40.3333265,13.0641085 41.0123962,13.3949374 C41.197154,13.4873163 41.4188633,13.5427436 41.6220968,13.5427436 C42.4165552,13.5427436 42.9893042,12.8960914 43.4327229,12.4157213 C44.578221,11.1593685 45.2063973,9.60740336 45.6867675,7.64897114 C45.7237191,7.50116493 45.7791464,7.4457376 45.8530495,7.4457376 C46.0378072,7.4457376 46.2779923,7.4457376 46.5366532,7.40878605 C47.0354991,7.33488295 47.4234904,7.16860097 47.8853848,7.09469787 C48.1625214,7.03927054 48.1255699,6.94689166 48.3842308,6.85451278 C48.5689885,6.78060968 48.7167947,6.70670658 48.7167947,6.52194882 C48.7167947,6.20786063 48.1440457,5.87529667 47.2756842,5.87529667 C46.5920805,5.87529667 46.1856134,5.930724 45.9084768,5.930724 C45.483534,5.930724 45.3726793,5.80139357 45.0955427,5.08083832 C45.0955427,5.08083832 45.3726793,5.80139357 45.0955427,5.08083832 C45.0401154,4.93303211 44.984688,4.85912901 44.818406,4.7113228 C44.4304148,4.37875884 43.9500446,4.26790419 43.5620533,4.26790419 C42.6382645,4.26790419 41.8438062,5.21016875 41.2895329,6.0046271 C41.1602025,6.18938486 40.9754447,6.33719106 40.8461143,6.5404246 C40.0850374,7.68203986 39.3563481,8.96939948 39.2664786,10.3570209 Z M15.6451562,4.06467065 C16.1070506,4.06467065 16.3657115,4.0277191 16.4211388,4.0277191 C16.4765661,4.0277191 16.5135177,4.04619488 16.5135177,4.1016222 C16.5135177,4.13857376 16.4950419,4.19400108 16.3657115,4.47113772 C15.2386892,6.89146433 14.4627066,9.3487425 13.7791029,12.0646815 C13.7606271,12.1385846 13.7051998,12.4157213 13.7051998,12.6928579 C13.7051998,12.9515188 13.7791029,13.2286554 14.0377637,13.3764616 C14.5366097,13.672074 14.9430767,13.8014044 15.2202134,13.8014044 C15.6266804,13.8014044 15.829914,13.5427436 15.829914,13.1178007 C15.829914,12.7482852 15.8483898,12.3602939 15.9038171,12.0646815 C16.4211388,9.3487425 17.1971214,7.2240283 18.3980468,5.00693521 C18.9707958,3.953816 19.0446989,3.89838867 19.0446989,3.80600979 C19.0446989,3.76905824 19.0262232,3.71363091 18.9892716,3.65820359 C19.7283026,3.49192161 20.6151399,3.38106695 21.428074,3.38106695 C21.5204529,3.38106695 21.8899684,3.51039738 21.9453957,3.56582471 C22.0747262,3.69515514 22.2040566,3.82448557 22.4257659,3.82448557 C22.6105237,3.82448557 22.9246118,3.69515514 23.0354665,3.62125204 C23.2941274,3.43649428 23.4234578,3.23326075 23.4234578,2.90069678 C23.4234578,2.5866086 22.2594839,1.81062602 21.4465498,1.81062602 C20.4488579,1.81062602 19.5435449,1.93995645 18.6936592,2.10623843 C18.3241437,2.18014153 16.9938878,2.38337506 16.0331475,2.38337506 C15.1093587,2.38337506 15.1647861,2.25404463 14.7767948,2.25404463 C14.5550855,2.25404463 14.4442308,2.36489929 14.3518519,2.45727817 C14.259473,2.54965705 14.2040457,2.91917256 14.2040457,3.25173652 C14.2040457,3.4180185 14.2040457,3.54734893 14.2964246,3.65820359 C14.5735612,3.99076755 15.1093587,4.06467065 15.6451562,4.06467065 C15.6451562,4.06467065 15.1093587,4.06467065 15.6451562,4.06467065 Z M29.335706,5.56120848 C29.335706,5.72749047 29.2802787,5.83834512 29.0585694,6.18938486 C28.8368601,6.5404246 28.9292389,6.5404246 28.6521023,6.90994011 C28.1163048,7.63049536 27.4511769,8.35105061 26.5828154,9.14550897 C26.3426303,9.36721828 26.3056788,9.36721828 26.2687272,9.36721828 C26.2502515,9.36721828 26.2132999,9.3487425 26.2132999,9.31179095 C26.2132999,9.25636362 26.2317757,9.18246052 26.4165335,8.79446923 C26.9892825,7.59354381 27.691362,6.79908546 28.4673446,6.02310288 C28.8922874,5.59816004 29.1509483,5.45035383 29.2433271,5.45035383 C29.2987545,5.45035383 29.335706,5.46882961 29.335706,5.56120848 C29.335706,5.56120848 29.335706,5.46882961 29.335706,5.56120848 Z M43.5435775,6.04157865 C43.5620533,6.04157865 43.5805291,6.06005443 43.5990048,6.09700598 C43.6174806,6.15243331 43.6544322,6.20786063 43.7468111,6.28176374 C43.8207142,6.33719106 43.8207142,6.59585192 43.8207142,6.79908546 C43.8207142,8.5912357 42.8045465,10.0692978 41.8068546,11.5658356 C41.5851453,11.8983995 41.4558149,11.9538269 41.3449602,11.9538269 C41.2525813,11.9538269 41.1047751,11.7136418 41.0493478,11.5658356 C40.9754447,11.3626021 40.9569689,11.122417 40.9569689,11.0300381 C40.9569689,9.58892759 42.3241763,7.4457376 43.2294893,6.26328796 C43.3772955,6.06005443 43.4881502,6.04157865 43.5435775,6.04157865 C43.5435775,6.04157865 43.4881502,6.04157865 43.5435775,6.04157865 Z" id="Type" fill="#0079BF"></path>
                    <g id="Mark" transform="translate(0.000000, 2.041200)">
                        <rect id="Board" fill="url(#linearGradient-3)" x="0" y="0" width="11.6639998" height="11.6639998" rx="1.45799998"></rect>
                        <rect id="Right-List" fill="#FFFFFF" x="6.59015989" y="1.51631997" width="3.55751994" height="5.10299992" rx="0.699839988"></rect>
                        <rect id="Left-List" fill="#FFFFFF" x="1.51631997" y="1.51631997" width="3.55751994" height="8.01899987" rx="0.699839988"></rect>
                    </g>
                </g>
            </g>
        </g>
    </g>
</svg>