<?xml version="1.0" encoding="UTF-8"?>
<svg width="20px" height="20px" viewBox="0 0 20 20" version="1.1" xmlns="http://www.w3.org/2000/svg" xmlns:xlink="http://www.w3.org/1999/xlink">
    <!-- Generator: Sketch 64 (93537) - https://sketch.com -->
    <title>user-square</title>
    <desc>Created with Sketch.</desc>
    <g id="Illustrations" stroke="none" stroke-width="1" fill="none" fill-rule="evenodd">
        <g id="Artboard" transform="translate(-780.000000, -404.000000)">
            <g id="Group" transform="translate(779.000000, 242.000000)">
                <g id="user-square" transform="translate(1.000000, 162.000000)">
                    <path d="M17,-4.4408921e-16 L3,-4.4408921e-16 C1.34314575,-4.4408921e-16 -4.4408921e-16,1.34314575 -4.4408921e-16,3 L-4.4408921e-16,17 C-4.4408921e-16,18.6568542 1.34314575,20 3,20 L17,20 C18.6568542,20 20,18.6568542 20,17 L20,3 C20,1.34314575 18.6568542,-4.4408921e-16 17,-4.4408921e-16 Z" id="Shape" fill="#334AC0" fill-rule="nonzero"></path>
                    <path d="M17,2 C17.5522847,2 18,2.44771525 18,3 L18,17 C18,17.5522847 17.5522847,18 17,18 L3,18 C2.44771525,18 2,17.5522847 2,17 L2,3 C2,2.44771525 2.44771525,2 3,2 L17,2 Z M10.03,4 C7.94236365,4 6.25,5.69236365 6.25,7.78 C6.26043527,8.7087749 6.61702216,9.60024213 7.25,10.28 C5.45963993,11.1715188 4.23813369,12.9041784 4,14.89 C3.93924868,15.4422847 4.33771525,15.9392487 4.89,16 C5.44228475,16.0607513 5.93924868,15.6622847 6,15.11 C6.24693938,13.1051076 7.94995725,11.5989785 9.97,11.5989785 C11.9900427,11.5989785 13.6930606,13.1051076 13.94,15.11 C13.9977855,15.6427656 14.4652722,16.0352781 15,16 L15,16 L15.11,16 L15.2244761,15.9801268 C15.7094641,15.8667796 16.0443438,15.407106 15.99,14.9 C15.7695551,12.9250156 14.5760831,11.1911035 12.81,10.28 C13.4429778,9.60024213 13.7995647,8.7087749 13.81,7.78 C13.81,5.69236365 12.1176364,4 10.03,4 Z M8.74134993,6.52134993 C9.25042636,6.0122735 10.0160361,5.85998425 10.6811765,6.13549443 C11.3463169,6.41100461 11.78,7.0600572 11.78,7.78 C11.78,8.76306685 10.9830669,9.56 10,9.56 C9.2800572,9.56 8.63100461,9.12631692 8.35549443,8.46117651 C8.07998425,7.7960361 8.2322735,7.03042636 8.74134993,6.52134993 Z" id="Combined-Shape" fill="#A6B1E7"></path>
                </g>
            </g>
        </g>
    </g>
</svg>