<?xml version="1.0" encoding="UTF-8"?>
<svg width="22px" height="22px" viewBox="0 0 22 22" version="1.1" xmlns="http://www.w3.org/2000/svg" xmlns:xlink="http://www.w3.org/1999/xlink">
    <!-- Generator: Sketch 64 (93537) - https://sketch.com -->
    <title>window</title>
    <desc>Created with Sketch.</desc>
    <g id="Illustrations" stroke="none" stroke-width="1" fill="none" fill-rule="evenodd">
        <g id="Artboard" transform="translate(-779.000000, -242.000000)">
            <g id="Group" transform="translate(779.000000, 242.000000)">
                <g id="window">
                    <path d="M19,-2.22044605e-16 L3,-2.22044605e-16 C1.34314575,-2.22044605e-16 -2.22044605e-16,1.34314575 -2.22044605e-16,3 L-2.22044605e-16,19 C-2.22044605e-16,20.6568542 1.34314575,22 3,22 L19,22 C20.6568542,22 22,20.6568542 22,19 L22,3 C22,1.34314575 20.6568542,-2.22044605e-16 19,-2.22044605e-16 Z" id="Shape" fill="#334AC0" fill-rule="nonzero"></path>
                    <path d="M20,19 C20,19.5522847 19.5522847,20 19,20 L3,20 C2.44771525,20 2,19.5522847 2,19 L2,10 L20,10 L20,19 Z" id="Path" fill="#A6B1E7"></path>
                    <path d="M19,2 C19.5522847,2 20,2.44771525 20,3 L20,8 L2,8 L2,3 C2,2.44771525 2.44771525,2 3,2 L19,2 Z M9,4 C8.44771525,4 8,4.44771525 8,5 C8,5.55228475 8.44771525,6 9,6 C9.55228475,6 10,5.55228475 10,5 C10,4.44771525 9.55228475,4 9,4 Z M5,4 C4.44771525,4 4,4.44771525 4,5 C4,5.55228475 4.44771525,6 5,6 C5.55228475,6 6,5.55228475 6,5 C6,4.44771525 5.55228475,4 5,4 Z M13,4 C12.4477153,4 12,4.44771525 12,5 C12,5.55228475 12.4477153,6 13,6 C13.5522847,6 14,5.55228475 14,5 C14,4.44771525 13.5522847,4 13,4 Z" id="Combined-Shape" fill="#A6B1E7"></path>
                </g>
            </g>
        </g>
    </g>
</svg>